<?xml version="1.0" encoding="UTF-8"?>
<svg id="Layer_1" xmlns="http://www.w3.org/2000/svg" xmlns:xlink="http://www.w3.org/1999/xlink" version="1.1" viewBox="0 0 477.7 189.8">
  <!-- Generator: Adobe Illustrator 30.1.0, SVG Export Plug-In . SVG Version: 2.1.1 Build 136)  -->
  <defs>
    <linearGradient id="linear-gradient" x1="235.8" y1="-564.8" x2="235.8" y2="-698.9" gradientTransform="translate(0 -560) scale(1 -1)" gradientUnits="userSpaceOnUse">
      <stop offset="0" stop-color="#c8dd75"/>
      <stop offset=".8" stop-color="#6ebe45"/>
      <stop offset="1" stop-color="#5ba645"/>
    </linearGradient>
  </defs>
  <g isolation="isolate">
    <g id="Layer_11">
      <path d="M343.5,153c-71.8,1-143.5,1-215.3,0-26.4-.4-53.1-22.8-53.4-49.5v-3.1c.3-26.7,27-49,53.4-49.5,71.8-1,143.5-1,215.3,0,26.4.4,53.1,22.8,53.4,49.5v3.1c-.3,26.7-27,49-53.4,49.5Z" fill="#c9c9c9" isolation="isolate" mix-blend-mode="multiply"/>
      <path d="M343.5,147.4c-71.8,1-143.5,1-215.3,0-26.4-.4-53.1-22.8-53.4-49.5v-3.1c.3-26.7,27-49,53.4-49.5,71.8-1,143.5-1,215.3,0,26.4.4,53.1,22.8,53.4,49.5v3.1c-.3,26.7-27,49-53.4,49.5Z" fill="#56853c"/>
      <path d="M343.5,142.7c-71.8,1-143.5,1-215.3,0-26.4-.4-53.1-22.8-53.4-49.5v-3.1c.3-26.7,27-49,53.4-49.5,71.8-1,143.5-1,215.3,0,26.4.4,53.1,22.8,53.4,49.5v3.1c-.3,26.7-27,49-53.4,49.5Z" fill="#5b8d3e"/>
      <path d="M343.5,136.5c-71.8,1-143.5,1-215.3,0-26.4-.4-53.1-22.8-53.4-49.5v-3.1c.3-26.7,27-49,53.4-49.5,71.8-1,143.5-1,215.3,0,26.4.4,53.1,22.8,53.4,49.5v3.1c-.3,26.7-27,49-53.4,49.5Z" fill="url(#linear-gradient)" stroke="#5e9741" stroke-miterlimit="10" stroke-width="1.4"/>
    </g>
  </g>
  <g>
    <path d="M212.2,97.5c0,3.5-1.6,5.3-4.9,5.3h-21.7c-3.3,0-5-1.8-5-5.3v-24c0-3.6,1.7-5.4,5-5.4h14.1c3.8,0,6.9,1,9.1,3,2.2,2,3.4,4.9,3.4,8.7v17.6ZM201.6,92.9v-9.8c0-4-1.9-6.1-5.8-6.1h-3.4c-.7,0-1,.4-1,1.1v14.7c0,.7.4,1,1.1,1h7.9c.8,0,1.2-.3,1.2-1Z" fill="#fff"/>
    <path d="M230.8,99.1c0,1.3-.6,2.2-1.7,3-1.1.7-2.4,1.1-3.9,1.1s-2.6-.3-3.7-1c-1-.7-1.6-1.6-1.6-2.8v-21.1c0-.8-.3-1.2-.9-1.2-1.2,0-2.1-.4-2.7-1.3s-.9-1.9-.9-3.1.3-2.2.9-3.1c.6-.9,1.5-1.3,2.7-1.3h5.5c4.1,0,6.1,2,6.1,6.1v24.8Z" fill="#fff"/>
    <path d="M249.3,87.1c0,1.3-.6,2.3-1.7,3s-2.4,1.1-3.9,1.1-2.6-.3-3.7-1c-1-.7-1.6-1.7-1.6-2.9v-8.9c0-.8-.3-1.2-.9-1.2-1.2,0-2.1-.4-2.7-1.3s-.9-1.9-.9-3.1.3-2.2.9-3.1c.6-.9,1.5-1.3,2.7-1.3h5.5c4.1,0,6.1,2,6.1,6.1v12.8Z" fill="#fff"/>
    <path d="M287.1,88.2c0,5.2-1.7,9.2-5.1,12-2.9,2.5-6.6,3.7-11.1,3.7s-8.6-1.2-11.5-3.6c-3.4-2.8-5.1-6.8-5.1-12.2v-5.4c0-5.2,1.6-9.2,4.8-11.8,2.8-2.3,6.6-3.4,11.4-3.4s8.8,1.1,11.7,3.3c3.3,2.6,5,6.5,5,11.9v5.4ZM276.2,88.2v-4.9c0-4.9-1.9-7.3-5.6-7.3s-5.5,2.4-5.5,7.3v4.9c0,4.8,1.9,7.2,5.7,7.2s5.5-2.4,5.5-7.2Z" fill="#fff"/>
  </g>
</svg>