<?xml version="1.0" encoding="UTF-8"?>
<svg xmlns="http://www.w3.org/2000/svg" xmlns:xlink="http://www.w3.org/1999/xlink" version="1.1" viewBox="0 0 693.7 147.8">
  <!-- Generator: Adobe Illustrator 30.1.0, SVG Export Plug-In . SVG Version: 2.1.1 Build 136)  -->
  <defs>
    <linearGradient id="linear-gradient" x1="377.1" y1="128.7" x2="377.1" y2="23.6" gradientTransform="translate(-24.3 -1)" gradientUnits="userSpaceOnUse">
      <stop offset="0" stop-color="#ffe100"/>
      <stop offset=".5" stop-color="#ffa200"/>
      <stop offset="1" stop-color="#d93a00"/>
    </linearGradient>
    <linearGradient id="linear-gradient1" x1="348.2" y1="143.7" x2="348.2" y2="11.2" gradientUnits="userSpaceOnUse">
      <stop offset="0" stop-color="#f3a500"/>
      <stop offset=".3" stop-color="#ff6200"/>
      <stop offset="1" stop-color="#ffd500"/>
    </linearGradient>
    <linearGradient id="linear-gradient2" x1="348.2" y1="135.8" x2="348.2" y2="18.5" gradientTransform="matrix(1,0,0,1,0,0)" xlink:href="#linear-gradient"/>
    <linearGradient id="linear-gradient3" x1="342.2" y1="715.5" x2="341.4" y2="654.6" gradientTransform="translate(722.3 -267.3) rotate(90)" xlink:href="#linear-gradient1"/>
    <linearGradient id="linear-gradient4" x1="341.5" y1="693" x2="341.7" y2="657.1" gradientTransform="translate(722.3 -267.3) rotate(90)" gradientUnits="userSpaceOnUse">
      <stop offset="0" stop-color="#ff9600"/>
      <stop offset=".5" stop-color="#ffd000"/>
      <stop offset="1" stop-color="#b03900"/>
    </linearGradient>
    <linearGradient id="linear-gradient5" x1="341.6" y1="692.7" x2="341.6" y2="661.9" gradientTransform="translate(722.3 -267.3) rotate(90)" gradientUnits="userSpaceOnUse">
      <stop offset="0" stop-color="#730099"/>
      <stop offset="0" stop-color="#8001a8"/>
      <stop offset=".4" stop-color="#a104cd"/>
      <stop offset=".6" stop-color="#ba06e8"/>
      <stop offset=".8" stop-color="#c807f9"/>
      <stop offset="1" stop-color="#ce08ff"/>
    </linearGradient>
    <linearGradient id="linear-gradient6" x1="648.3" y1="-329" x2="647.6" y2="-389.8" gradientTransform="translate(1024.2 722.3) rotate(-90)" xlink:href="#linear-gradient1"/>
    <linearGradient id="linear-gradient7" x1="647.7" y1="-351.4" x2="647.9" y2="-387.3" gradientTransform="translate(1024.2 722.3) rotate(-90)" xlink:href="#linear-gradient4"/>
    <linearGradient id="linear-gradient8" x1="647.8" y1="-351.7" x2="647.8" y2="-382.6" gradientTransform="translate(1024.2 722.3) rotate(-90)" xlink:href="#linear-gradient5"/>
  </defs>
  <g isolation="isolate">
    <g id="Layer_1">
      <rect x="73.9" y="22.5" width="557.7" height="100.6" transform="translate(705.5 145.5) rotate(180)" fill="url(#linear-gradient)"/>
      <g>
        <path d="M668.2,15.8c-10.6-2.4-85.5-3.8-180.4-4.4-87.7-.5-192.4-.4-279.6.4-93.5.8-166.6,2.2-176.5,4-26.5,5-33.4,115.2,0,119.1,3,.4,11.2.7,23.5,1,15.7.4,38,.7,65,1,117.7,1.2,323.7,1.4,447.1.3,32-.3,58.5-.7,76.4-1.1,13.3-.3,21.9-.7,24.5-1.2,25.2-4.3,24.8-113.4,0-119.1ZM101.8,121.5c-26-3.1-20.6-88.8,0-92.7,10.2-1.9,107.7-3.2,213.6-3.6,25.3,0,51.1-.1,76.4,0h0c102.4.1,194.9,1.2,205.5,3.7,19.4,4.4,19.7,89.3,0,92.7-19.5,3.4-470.9,2.9-495.6,0Z" fill="url(#linear-gradient1)"/>
        <path d="M631.6,22.5c-.4,0-1-.2-1.6-.3-41.6-5.9-536.6-4.5-561.9.3-23.5,4.4-29.5,102,0,105.4,28,3.3,541.3,3.8,563.5,0,.4,0,.7-.2,1.1-.3,21.2-6.8,20.5-100.2-1.1-105.2ZM101.8,121.5c-26-3.1-20.6-88.8,0-92.7,22.6-4.3,471.4-5.5,495.6,0,19.4,4.4,19.7,89.3,0,92.7-.3,0-.6,0-1.1.1-30.9,3.2-470.1,2.7-494.5-.1Z" fill="url(#linear-gradient2)"/>
        <path d="M629.9,22.2c-2.5,2.4-28.2,6.5-32.6,6.5-24.1-5.5-473-4.3-495.6,0-36-4.7-33.7-6.3-33.7-6.3,25.2-4.8,520.3-6.2,561.9-.3Z" fill="#be2f55" mix-blend-mode="multiply" opacity=".2"/>
        <path d="M632.7,127.6c-.4.1-.7.2-1.1.3-22.2,3.8-535.5,3.3-563.5,0,0,0,15.6-5.1,33.7-6.4,24.4,2.9,463.6,3.3,494.5.1,11.9,1.2,29.6,4.1,36.3,6Z" fill="#fff" mix-blend-mode="soft-light" opacity=".5"/>
      </g>
      <path d="M36,69.2c-20.8-3.1-16.3,62,0,65.2,16.3,3.2,70.2-3,61.9-3.8-8.3-.7-32,1.8-38.8-4.7-6.8-6.5-16.3-55.7-23-56.7Z" fill="#be2f55" mix-blend-mode="multiply" opacity=".3"/>
      <path d="M653,75.3c0-2.2,28,56.1,13.1,58.8-14.9,2.7-89.8,3.4-90.7,2.5s52.3-5.6,60.5-8.6c8.1-3,17.1-50.6,17.1-52.7Z" fill="#be2f55" mix-blend-mode="multiply" opacity=".3"/>
      <path d="M120.3,136.8c-27-.3-49.4-.6-65-1-3.3-5.2-2-10.7,2.3-12.3,6.1-2.3,22.6-4.7,22.6-4.7l40,18Z" fill="#be2f55" mix-blend-mode="multiply" opacity=".5"/>
      <path d="M643.8,136c-17.9.5-44.4.8-76.4,1.1l48.5-18c1.3.4,19.6,4.8,22.3,6.8,1.8,1.4,4.2,6.7,5.7,10.1Z" fill="#be2f55" mix-blend-mode="multiply" opacity=".5"/>
      <path d="M55.9,35.5s-13.2,14.3-15,37.8c-1.8,23.5,14,43.6,14,43.6,0,0-14.1-38,1-81.4Z" fill="#ffd134"/>
      <path d="M647.6,62.2s6.5,14.5,5.2,28.6c-1.4,14.1-11.8,28.1-11.8,28.1,0,0,10.1-45,6.6-56.7Z" fill="#ffd134"/>
      <path d="M35.5,15.6c-9.5.7,26.4,4.8,38.4,5,12,.2,124.9-4.5,120.6-5.8-4.3-1.3-94-3.9-159,.8Z" fill="#fcff34"/>
      <path d="M499.3,12c-11.5.4,97.7,10,128.1,8.9,30.3-1.2,40.8-4.5,36.1-5.4-4.7-1-129.9-4.5-164.1-3.4Z" fill="#fcff34"/>
      <g>
        <path d="M48.4,55.1s25.1,13.6,25.6,19c.3,3.7-23.7,18.4-23.7,18.4l-1.9-37.5Z" fill="#ffeb34"/>
        <path d="M41.9,95.4c0,0-.2,0-.3,0-1-.2-2.1-.7-3.2-1.4-3.7-2.3-7.6-6.7-10.5-11-2.3-3.4-3.8-6.7-3.8-8.6,0-5.1,10.7-19.9,17.8-21,1.6-.3,4,.5,6.9,1.9,0,0,.2,0,.3.1.2.1.4.2.6.3,0,0,0,0,0,0,5.6,2.9,12.4,7.9,17.2,12,1.3,1.1,2.5,2.2,3.4,3.1,1.6,1.6,2.6,2.9,2.6,3.5,0,1.1-3.9,5-9,9h0c-4,3.2-8.9,6.6-13.1,9-3.7,2.1-7,3.3-8.9,3Z" fill="url(#linear-gradient3)"/>
        <path d="M30,74.2c.2,2.6,9.8,14.3,14.2,14.8s21.5-13.3,21.5-14.5c0-1.2-17.3-15.3-21.4-15.1-2.7.2-14.4,12.8-14.3,14.7Z" fill="url(#linear-gradient4)"/>
        <path d="M32,74.2c.1,2.3,8.8,12.7,12.6,13.2,3.9.5,19.2-11.8,19.1-12.8,0-1.1-15.4-13.6-19-13.4-2.4.2-12.8,11.4-12.7,13Z" fill="url(#linear-gradient5)"/>
        <path d="M41.9,95.4c0,0-.2,0-.3,0-1-.2-2.1-.7-3.2-1.4-3.7-2.3-7.6-6.7-10.5-11-2.3-3.4-3.8-6.7-3.8-8.6,0-5.1,10.7-19.9,17.8-21,1.6-.3,4,.5,6.9,1.9-1.6-.7-4.9-1.7-8-.2-4.4,2.1-13.6,13.8-13.9,19.1-.3,5.3,9.9,18.8,14.3,19.3,4.4.5,9.7-1.3,9.7-1.3-3.7,2.1-7,3.3-8.9,3Z" fill="#be2f55" mix-blend-mode="multiply" opacity=".5"/>
        <path d="M47.1,61.9s18.6,10.1,18.6,12.7c0,2.2-16.9,11.4-16.9,11.4,0,0,12.2-6.9,11.1-11.6-1-4.7-12.9-12.5-12.9-12.5Z" fill="#be2f55" mix-blend-mode="multiply" opacity=".5"/>
        <path d="M32.4,74.3c.3-1.2,3.7-6.1,4.6-6s6.3,15.9,4.6,16.2c-1.7.3-9.4-9.5-9.2-10.3Z" fill="#9264cf" mix-blend-mode="multiply" opacity=".2"/>
        <path d="M59.2,73.9c-.5-2.5-11.4-12.5-14.5-12.2-3.1.3-6.4,6.1-6.1,7.5.3,1.5,8.5,17.2,10.8,16,2.3-1.2,10.4-8,9.8-11.3Z" fill="#f7ffc9" mix-blend-mode="soft-light" opacity=".5"/>
        <path d="M58.9,75c.2-2.8-12.7-14.3-13.8-12-1.1,2.4,3.3,22.5,4.5,22s9.1-7.1,9.3-10Z" fill="#f7ffc9" mix-blend-mode="soft-light" opacity=".5"/>
        <path d="M52.5,80.6c0-.8-2-4.6-3.1-3.4-1.1,1.2-1.1,6.8.5,6.6,1.5-.2,2.4-1.7,2.6-3.2Z" fill="#f3c2ff"/>
        <path d="M51.1,73.7c0-1-2.6-2.2-2.3-.9.2,1.3,2.3,2.1,2.3.9Z" fill="#f7ffc9" mix-blend-mode="soft-light" opacity=".5"/>
        <path d="M57.3,65.6c1-1.3,15.6,6.5,15.3,9.1-.3,2.6-24.2,14.5-22.7,13,1.5-1.5,17.6-10.1,16.3-13.1-1.3-2.9-9.8-7.9-8.9-9.1Z" fill="#fff" mix-blend-mode="soft-light" opacity=".5"/>
        <path d="M40,62.4s-4,1.5-5,3-1.2,3.3-1,3.1c.2-.2,5.8-5.7,6-6.1Z" fill="#fcff34"/>
        <path d="M72.5,74.6c.2-.5-3.4-.2-8.3,2.7-4.9,2.9-9.4,11.9-7.5,11.1,1.9-.8,14.6-10.5,15.8-13.8Z" fill="#fcff34"/>
      </g>
      <g>
        <path d="M653.6,93.7s-25.1-13.6-25.6-19c-.3-3.7,23.7-18.4,23.7-18.4l1.9,37.5Z" fill="#ffeb34"/>
        <path d="M660.1,53.4c0,0,.2,0,.3,0,1,.2,2.1.7,3.2,1.4,3.7,2.3,7.6,6.7,10.5,11,2.3,3.4,3.8,6.7,3.8,8.6,0,5.1-10.7,19.9-17.8,21-1.6.3-4-.5-6.9-1.9,0,0-.2,0-.3-.1-.2-.1-.4-.2-.6-.3,0,0,0,0,0,0-5.6-2.9-12.4-7.9-17.2-12-1.3-1.1-2.5-2.2-3.4-3.1-1.6-1.6-2.6-2.9-2.6-3.5,0-1.1,3.9-5,9-9h0c4-3.2,8.9-6.6,13.1-9,3.7-2.1,7-3.3,8.9-3Z" fill="url(#linear-gradient6)"/>
        <path d="M672,74.6c-.2-2.6-9.8-14.3-14.2-14.8s-21.5,13.3-21.5,14.5c0,1.2,17.3,15.3,21.4,15.1,2.7-.2,14.4-12.8,14.3-14.7Z" fill="url(#linear-gradient7)"/>
        <path d="M670,74.5c-.1-2.3-8.8-12.7-12.6-13.2-3.9-.5-19.2,11.8-19.1,12.8,0,1.1,15.4,13.6,19,13.4,2.4-.2,12.8-11.4,12.7-13Z" fill="url(#linear-gradient8)"/>
        <path d="M660.1,53.4c0,0,.2,0,.3,0,1,.2,2.1.7,3.2,1.4,3.7,2.3,7.6,6.7,10.5,11,2.3,3.4,3.8,6.7,3.8,8.6,0,5.1-10.7,19.9-17.8,21-1.6.3-4-.5-6.9-1.9,1.6.7,4.9,1.7,8,.2,4.4-2.1,13.6-13.8,13.9-19.1.3-5.3-9.9-18.8-14.3-19.3-4.4-.5-9.7,1.3-9.7,1.3,3.7-2.1,7-3.3,8.9-3Z" fill="#be2f55" mix-blend-mode="multiply" opacity=".5"/>
        <path d="M654.9,86.9s-18.6-10.1-18.6-12.7c0-2.2,16.9-11.4,16.9-11.4,0,0-12.2,6.9-11.1,11.6,1,4.7,12.9,12.5,12.9,12.5Z" fill="#be2f55" mix-blend-mode="multiply" opacity=".5"/>
        <path d="M669.6,74.5c-.3,1.2-3.7,6.1-4.6,6s-6.3-15.9-4.6-16.2c1.7-.3,9.4,9.5,9.2,10.3Z" fill="#9264cf" mix-blend-mode="multiply" opacity=".2"/>
        <path d="M642.8,74.8c.5,2.5,11.4,12.5,14.5,12.2,3.1-.3,6.4-6.1,6.1-7.5-.3-1.5-8.5-17.2-10.8-16-2.3,1.2-10.4,8-9.8,11.3Z" fill="#f7ffc9" mix-blend-mode="soft-light" opacity=".5"/>
        <path d="M643.1,73.7c-.2,2.8,12.7,14.3,13.8,12,1.1-2.4-3.3-22.5-4.5-22s-9.1,7.1-9.3,10Z" fill="#f7ffc9" mix-blend-mode="soft-light" opacity=".5"/>
        <path d="M649.5,68.2c0,.8,2,4.6,3.1,3.4,1.1-1.2,1.1-6.8-.5-6.6-1.5.2-2.4,1.7-2.6,3.2Z" fill="#f3c2ff"/>
        <path d="M651,75c0,1,2.6,2.2,2.3.9-.2-1.3-2.3-2.1-2.3-.9Z" fill="#f7ffc9" mix-blend-mode="soft-light" opacity=".5"/>
        <path d="M644.7,83.1c-1,1.3-15.6-6.5-15.3-9.1.3-2.6,24.2-14.5,22.7-13-1.5,1.5-17.6,10.1-16.3,13.1,1.3,2.9,9.8,7.9,8.9,9.1Z" fill="#fff" mix-blend-mode="soft-light" opacity=".5"/>
        <path d="M662,86.4s4-1.5,5-3,1.2-3.3,1-3.1c-.2.2-5.8,5.7-6,6.1Z" fill="#fcff34"/>
        <path d="M629.6,74.2c-.2.5,3.4.2,8.3-2.7,4.9-2.9,9.4-11.9,7.5-11.1-1.9.8-14.6,10.5-15.8,13.8Z" fill="#fcff34"/>
      </g>
    </g>
  </g>
</svg>