<?xml version="1.0" encoding="UTF-8"?>
<svg id="Layer_1" xmlns="http://www.w3.org/2000/svg" xmlns:xlink="http://www.w3.org/1999/xlink" version="1.1" viewBox="0 0 680.3 566.9">
  <!-- Generator: Adobe Illustrator 30.1.0, SVG Export Plug-In . SVG Version: 2.1.1 Build 136)  -->
  <defs>
    <radialGradient id="radial-gradient" cx="853.6" cy="628.3" fx="853.6" fy="628.3" r="579.9" gradientTransform="translate(11.7 38.9) scale(.4)" gradientUnits="userSpaceOnUse">
      <stop offset="0" stop-color="#f59dc0"/>
      <stop offset="1" stop-color="#f172a6"/>
    </radialGradient>
    <radialGradient id="radial-gradient1" cx="853.6" cy="176.8" fx="853.6" fy="176.8" r="298.2" gradientTransform="translate(11.7 38.9) scale(.4)" gradientUnits="userSpaceOnUse">
      <stop offset="0" stop-color="#e85589"/>
      <stop offset="1" stop-color="#da5387"/>
    </radialGradient>
    <radialGradient id="radial-gradient2" cx="850.3" cy="2091.1" fx="850.3" fy="2091.1" r="330.2" gradientTransform="translate(13 -470) scale(.4 .3)" gradientUnits="userSpaceOnUse">
      <stop offset="0" stop-color="#e85589"/>
      <stop offset="1" stop-color="#da5387"/>
    </radialGradient>
    <radialGradient id="radial-gradient3" cx="853.6" cy="716.7" fx="853.6" fy="716.7" r="864.1" gradientTransform="translate(11.7 38.9) scale(.4)" gradientUnits="userSpaceOnUse">
      <stop offset=".4" stop-color="#f7e9d8"/>
      <stop offset="1" stop-color="#f9e1c4"/>
    </radialGradient>
    <radialGradient id="radial-gradient4" cx="256.1" cy="248.4" fx="256.1" fy="248.4" r="30.4" gradientUnits="userSpaceOnUse">
      <stop offset="0" stop-color="#f59dc0"/>
      <stop offset="1" stop-color="#f172a6"/>
    </radialGradient>
    <radialGradient id="radial-gradient5" cx="293.1" cy="236.3" fx="293.1" fy="236.3" r="16.7" xlink:href="#radial-gradient4"/>
    <radialGradient id="radial-gradient6" cx="346.1" cy="251.5" fx="346.1" fy="251.5" r="34.2" xlink:href="#radial-gradient4"/>
    <radialGradient id="radial-gradient7" cx="399.2" cy="251.5" fx="399.2" fy="251.5" r="27" xlink:href="#radial-gradient4"/>
    <radialGradient id="radial-gradient8" cx="430.8" cy="236.3" fx="430.8" fy="236.3" r="16.7" xlink:href="#radial-gradient4"/>
  </defs>
  <path d="M536.2,130.4h-.6c-4.4-7.5-12.5-12.8-21.4-13-6.2-.2-12.4-.4-18.6-.5-27.4-18-86.7-32-155-31.9-68.3,0-127.6,13.9-155,31.9-6.2.2-12.4.3-18.6.5-9,.3-17.1,5.6-21.4,13h-.6c-13,.4-24.3,11.2-24.9,24.1-3.7,78.6-3.2,213.7,1.5,292.2.8,12.8,12,23.7,24.9,24.3,4.2,8.2,12.7,14.2,22.1,14.6,114.6,4.3,229.3,4.3,343.9,0,9.4-.4,17.9-6.3,22.1-14.6,12.9-.6,24.1-11.4,24.9-24.3,4.7-78.6,5.2-213.7,1.5-292.2-.6-12.9-11.8-23.7-24.9-24.1h.1Z" fill="#ae4177"/>
  <path d="M536.2,126h-.6c-4.4-7.5-12.5-12.8-21.4-13-6.2-.2-12.4-.4-18.6-.5-27.4-18-86.7-32-155-31.9-68.3,0-127.6,13.9-155,31.9-6.2.2-12.4.3-18.6.5-9,.3-17.1,5.6-21.4,13h-.6c-13,.4-24.3,11.2-24.9,24.1-3.7,78.6-3.2,213.7,1.5,292.2.8,12.8,12,23.7,24.9,24.3,4.2,8.2,12.7,14.2,22.1,14.6,114.6,4.3,229.3,4.3,343.9,0,9.4-.4,17.9-6.3,22.1-14.6,12.9-.6,24.1-11.4,24.9-24.3,4.7-78.6,5.2-213.7,1.5-292.2-.6-12.9-11.8-23.7-24.9-24.1h.1Z" fill="#c95188"/>
  <path d="M536.2,119.9h-.6c-4.4-7.5-12.5-12.8-21.4-13-6.2-.2-12.4-.4-18.6-.5-27.4-18-86.7-32-155-31.9-68.3,0-127.6,13.9-155,31.9-6.2.2-12.4.3-18.6.5-9,.3-17.1,5.6-21.4,13h-.6c-13,.4-24.3,11.2-24.9,24.1-3.7,78.6-3.2,213.7,1.5,292.2.8,12.8,12,23.7,24.9,24.3,4.2,8.2,12.7,14.2,22.1,14.6,114.6,4.3,229.3,4.3,343.9,0,9.4-.4,17.9-6.3,22.1-14.6,12.9-.6,24.1-11.4,24.9-24.3,4.7-78.6,5.2-213.7,1.5-292.2-.6-12.9-11.8-23.7-24.9-24.1h.1Z" fill="#ef669d"/>
  <path d="M534.3,121.4h-.6c-4.3-7.4-12.3-12.6-21.2-12.9-6.1-.2-12.3-.4-18.4-.5-27.2-17.9-85.9-31.7-153.5-31.6-67.6,0-126.3,13.8-153.5,31.6-6.1.2-12.3.3-18.4.5-8.9.3-16.9,5.5-21.2,12.9h-.6c-12.9.4-24,11.1-24.6,23.9-3.7,77.8-3.2,211.6,1.5,289.4.8,12.7,11.9,23.5,24.6,24.1,4.2,8.2,12.6,14.1,21.9,14.4,113.5,4.2,227,4.2,340.6,0,9.3-.3,17.7-6.3,21.9-14.4,12.8-.6,23.9-11.3,24.6-24.1,4.7-77.8,5.2-211.6,1.5-289.4-.6-12.8-11.7-23.5-24.6-23.9h0Z" fill="#f393be"/>
  <path d="M534.3,125.1h-.6c-4.3-7.4-12.3-12.6-21.2-12.9-6.1-.2-12.3-.4-18.4-.5-27.2-17.9-85.9-31.7-153.5-31.6-67.6,0-126.3,13.8-153.5,31.6-6.1.2-12.3.3-18.4.5-8.9.3-16.9,5.5-21.2,12.9h-.6c-12.9.4-24,11.1-24.6,23.9-3.7,77.8-3.2,211.6,1.5,289.4.8,12.7,11.9,23.5,24.6,24.1,4.2,8.2,12.6,14.1,21.9,14.4,113.5,4.2,227,4.2,340.6,0,9.3-.3,17.7-6.3,21.9-14.4,12.8-.6,23.9-11.3,24.6-24.1,4.7-77.8,5.2-211.6,1.5-289.4-.6-12.8-11.7-23.5-24.6-23.9h0Z" fill="url(#radial-gradient)"/>
  <path d="M480.9,142.9H200.3c-10.8,0-14.5-16.4-5-22.3,30.7-18.9,84.3-31.4,145.3-31.4s114.6,12.5,145.3,31.4c9.5,5.9,5.9,22.3-5,22.3h0Z" fill="url(#radial-gradient1)"/>
  <path d="M183.3,121.6h314.7c6.4,0,11.5,5.1,11.5,11.5h0c0,6.3-5.1,11.4-11.5,11.4H183.3c-6.4,0-11.5-5.1-11.5-11.4h0c0-6.3,5.1-11.5,11.5-11.5Z" fill="url(#radial-gradient2)"/>
  <path d="M537.5,150.7s0-.2-.2-.4c0-.3-.3-.6-.6-1.1-.2-.4-.5-1-.8-1.5-.3-.6-.6-1.1-.9-1.7-.4.6-.8,1.1-1.2,1.7-.4.6-.8,1.1-1.1,1.5s-.6.8-.8,1.1-.3.4-.3.4c0,.1-.2.2-.3.2h0c-.3-.2-.7-.3-1.1-.4l-1.2-.3-1.2-.3c-.4,0-.8-.2-1.2-.3,0,0-.2,0-.2-.2v-.3c0-.1.2-.3.4-.6l5.5-7.5c-.7-1.2-1.3-2.4-2-3.6-.6-1.2-1.3-2.4-2-3.7,0-.2-.2-.4-.3-.5v-.3c0-.1,0-.2.2-.2.8-.2,1.7-.4,2.6-.6.9-.2,1.7-.5,2.4-.8h0s.2,0,.3.2l2.5,4.5,3.5-4.5c0-.1.2-.2.3-.2h0c.7.3,1.4.6,2.3.8l2.4.6s.2,0,.2.1v.3c0,.1-.2.3-.4.6-1,1.3-1.9,2.5-2.8,3.7-.9,1.2-1.8,2.4-2.7,3.6l4,7.5c0,.2.2.4.3.5v.3c0,.1,0,.2-.2.2-.8.2-1.7.4-2.6.6-.9.2-1.7.5-2.4.8h0s-.2,0-.3-.2h-.1Z" fill="#cd5378"/>
  <path d="M530.2,158.1c-124-5.4-255.3-5.4-379.3,0-7.8.3-14.6,7-15.1,14.7-6.3,90.4-6.6,176-.8,266.4.5,7.8,7.3,14.4,15.1,14.7,1.3,0,2.6.1,4,.2,1.4,6.9,7.7,12.5,14.8,12.8,112.1,4.4,231.4,4.4,343.5,0,7.1-.3,13.4-5.9,14.8-12.8,1.3,0,2.6-.1,4-.2,7.8-.3,14.6-6.9,15.1-14.7,5.8-90.4,5.5-176-.8-266.4-.6-7.8-7.4-14.4-15.1-14.7h-.2Z" fill="url(#radial-gradient3)"/>
  <path d="M129.3,198.2s11.3,3.1,13.3,6.8-13.4,2.7-13.3,0c0-2.7-.7-.5,0-6.8Z" fill="#f171a2"/>
  <g>
    <path d="M528.1,413.5c-1.4,5.8-.3,11,3.3,15.8,1.6,2.1,1.3,2.7-1.3,2-5.8-1.4-11-.3-15.8,3.3-2.1,1.6-2.7,1.3-2-1.3,1.4-5.8.3-11-3.3-15.8-1.6-2.1-1.3-2.7,1.3-2,5.8,1.4,11,.3,15.8-3.3,2.1-1.6,2.7-1.3,2,1.3Z" fill="#fdcea2"/>
    <path d="M501.7,418.9c-.8,3.5-.2,6.6,2,9.4,1,1.3.8,1.6-.8,1.2-3.5-.8-6.6-.2-9.4,2-1.3,1-1.6.8-1.2-.8.8-3.5.2-6.6-2-9.4-1-1.3-.8-1.6.8-1.2,3.5.8,6.6.2,9.4-2,1.3-1,1.6-.8,1.2.8Z" fill="#fdcea2"/>
    <path d="M504.7,439.6c-.5,2.2-.1,4.3,1.3,6.1.6.8.5,1-.5.8-2.2-.5-4.3-.1-6.1,1.3-.8.6-1,.5-.8-.5.5-2.2.1-4.3-1.3-6.1-.6-.8-.5-1,.5-.8,2.2.5,4.3.1,6.1-1.3.8-.6,1-.5.8.5Z" fill="#fdcea2"/>
  </g>
  <g>
    <path d="M153.1,413.5c1.4,5.8.3,11-3.3,15.8-1.6,2.1-1.3,2.7,1.3,2,5.8-1.4,11-.3,15.8,3.3,2.1,1.6,2.7,1.3,2-1.3-1.4-5.8-.3-11,3.3-15.8,1.6-2.1,1.3-2.7-1.3-2-5.8,1.4-11,.3-15.8-3.3-2.1-1.6-2.7-1.3-2,1.3Z" fill="#fdcea2"/>
    <path d="M179.5,418.9c.8,3.5.2,6.6-2,9.4-1,1.3-.8,1.6.8,1.2,3.5-.8,6.6-.2,9.4,2,1.3,1,1.6.8,1.2-.8-.8-3.5-.2-6.6,2-9.4,1-1.3.8-1.6-.8-1.2-3.5.8-6.6.2-9.4-2-1.3-1-1.6-.8-1.2.8Z" fill="#fdcea2"/>
    <path d="M176.5,439.6c.5,2.2.1,4.3-1.3,6.1-.6.8-.5,1,.5.8,2.2-.5,4.3-.1,6.1,1.3.8.6,1,.5.8-.5-.5-2.2-.1-4.3,1.3-6.1.6-.8.5-1-.5-.8-2.2.5-4.3.1-6.1-1.3-.8-.6-1-.5-.8.5Z" fill="#fdcea2"/>
  </g>
  <g>
    <path d="M264.7,233.6c0,9.3-1.5,18.6-4.6,28-.6,2.1-1.7,3.1-3.3,3.1h-2.3c-1.3,0-2.2-1.1-2.8-3.4-3.2-9.8-4.7-19-4.7-27.7v-21.6c0-3.8,2.1-5.7,6.4-5.7h5c4.2,0,6.3,1.9,6.3,5.7v21.6ZM265.3,281.4c0,3.5-.6,5.9-1.9,7.1s-3.6,1.9-7,1.9-5.7-.6-7-1.8c-1.3-1.2-1.9-3.6-1.9-7.2s.6-6.3,1.8-7.5c1.2-1.2,3.6-1.9,7.1-1.9s6.1.6,7.2,1.8,1.7,3.7,1.7,7.6Z" fill="url(#radial-gradient4)"/>
    <path d="M301.6,255c0,1.4-.2,2.3-.5,2.7-.4.4-1.2.6-2.4.6h-10.9c-2.1,0-3.1-1.1-3.1-3.3v-38c0-1.9,1-2.8,3.1-2.8h10.8c1.5,0,2.4.2,2.7.5s.5,1.3.5,2.9v37.4Z" fill="url(#radial-gradient5)"/>
    <path d="M376.1,262.4c0,18-10.4,27-31.3,27s-19.4-.8-25.9-2.4c-1.9-.4-2.8-1.8-2.8-4v-6.3c0-2.5,1-3.6,3-3.4,8.1.8,15.9,1.1,23.4,1.1s10.9-.8,13.1-2.4,3.3-4.2,3.3-8v-28.4c0-3.2-1.1-5.2-3.3-6.3-1.6-.8-5-1.1-10.1-1.1s-10.2.1-12.7.4v16c.1.4.7.5,1.8.5h10.3c1.9,0,2.8,1,2.8,3.1v7c0,2.5-1.8,3.7-5.3,3.7h-19.5c-2.5,0-4.1-.2-4.8-.6-1.3-.8-1.9-2.5-1.9-5.3v-33.1c0-2,1.2-3.2,3.6-3.7,7.4-1.8,15.8-2.7,25.2-2.7s21.6,2.3,25.8,6.9c3.7,4,5.5,10.1,5.5,18.5v23.4Z" fill="url(#radial-gradient6)"/>
    <path d="M407.8,285.2c0,1.7-.3,2.7-.8,3.1s-1.4.5-2.5.5h-10.7c-2.1,0-3.1-1.2-3.1-3.6v-67.2c0-2.5,1-3.7,3.1-3.7h10.8c1.4,0,2.3.2,2.6.7s.5,1.5.5,3v67.2Z" fill="url(#radial-gradient7)"/>
    <path d="M439.3,255c0,1.4-.2,2.3-.5,2.7s-1.2.6-2.4.6h-10.9c-2.1,0-3.1-1.1-3.1-3.3v-38c0-1.9,1-2.8,3.1-2.8h10.8c1.5,0,2.4.2,2.7.5s.5,1.3.5,2.9v37.4Z" fill="url(#radial-gradient8)"/>
    <path d="M183.1,372.2c0,1.9-.3,3.2-1,3.9s-2,1-3.9,1-3.3-.3-3.9-1-1-2-1-3.9.3-3.4.9-4.1,2-1.1,4-1.1,3.4.4,4,1.1.9,2.1.9,4.1Z" fill="#231f20"/>
    <path d="M224,336.2l-12.9,37.9c-.5,1.5-1.3,2.3-2.3,2.3h-7.1c-.7,0-1-.4-1-1.2s.2-1.1.5-2l10.7-31.3h-21.3c-1.2,0-1.8-.6-1.8-1.9v-19c0-1.2.7-1.8,2-1.8h6.2c1.1,0,1.7.7,1.7,2.2v11.7h23.6c1.3,0,2,.5,2,1.6s0,1-.3,1.6Z" fill="#231f20"/>
    <path d="M262.6,353.8c0,9.2-1.4,15.3-4.3,18.4s-7.6,4.6-14.2,4.6-8.9-.5-12-1.4c-1-.3-1.5-1-1.5-2.2v-4.5c0-1.1.7-1.6,2.2-1.4,3.7.4,7,.5,9.8.5s6.1-.5,7.5-1.5,2.1-3,2.1-5.9v-11.3c0-3-.9-5-2.7-6.1-1.5-.9-4.1-1.3-7.9-1.3s-6.4.3-9.4.8c-1.1.2-1.7-.3-1.7-1.4v-4.5c0-1.2.5-1.9,1.4-2.3,2.7-1,6.7-1.5,12.1-1.5s10.1.9,12.8,2.8c2.1,1.5,3.5,3.7,4.4,6.4s1.3,6.7,1.3,11.8Z" fill="#231f20"/>
    <path d="M306.2,374.3c0,1-.2,1.6-.5,1.8s-.8.3-1.4.3h-6.2c-1.3,0-1.9-.7-1.9-2.1v-28c0-2.6-1.6-4.1-4.8-4.5-2.1-.2-5-.4-8.5-.4s-7.2.1-10.9.4c-1.3.1-2-.4-2-1.6v-4.5c0-1.3.6-2,1.9-2.1,5.9-.6,11.3-.9,16.2-.9s10.9,1,13.8,3.1,4.3,5.6,4.3,10.4v28.1ZM281,374.3c0,1-.2,1.6-.5,1.8s-.8.3-1.4.3h-6.2c-1.2,0-1.8-.7-1.8-2.1v-12.9c0-2.9.7-5.7,2.2-8.4.4-.7,1.1-1.1,1.9-1.1h4.1c1.2,0,1.7.6,1.7,1.7v20.7Z" fill="#231f20"/>
    <path d="M347.2,374.2c0,1-.1,1.6-.4,1.9s-.9.4-1.9.4h-13.6c-1.1,0-1.6-.6-1.6-1.8v-5.1c0-.8.1-1.4.4-1.6s.8-.3,1.4-.3h5.8v-25.9h-2.7c-1.2,0-1.8-.5-1.8-1.6v-4.3c0-.9,0-1.4.2-1.6s.5-.4,1.2-.6c3.9-.5,10.9-.8,21.1-.8s10.5,1.1,13.2,3.4,4,6.1,4,11.7v26.5c0,1.4-.6,2.1-1.7,2.1h-6.5c-1.2,0-1.7-.7-1.7-2.1v-26.5c0-2.4-.6-4-1.8-4.9s-3.1-1.4-5.9-1.4h-7.8v32.6Z" fill="#231f20"/>
    <path d="M419.6,374.8c0,1.1-.4,1.6-1.1,1.6h-7.7c-.9,0-1.5-.2-1.9-.5,0,0-.4-.5-1.1-1.5l-14.3-19.9c-.3,0-.7,1.8-1.4,5.2l-2.8,14.5c-.3,1.5-1.1,2.2-2.3,2.2h-5.7c-1.2,0-1.8-.7-1.8-2.1v-.4l1.9-10.3c.9-4.7,2.4-7.9,4.4-9.8l4.3-3.9-10.1-13.4c-.6-.7-.8-1.3-.8-1.7,0-1.2.4-1.7,1.2-1.7h7.5c.8,0,1.7.6,2.5,1.7l13.1,17.6c.5-.5,1.1-2.1,1.6-4.8l2.3-12.3c.3-1.5,1-2.2,2-2.2h6.4c1.4,0,2.1.4,2.1,1.2s0,.8-.3,1.6l-1.4,7.7c-.9,4.4-2.6,7.7-5.1,9.9l-4.1,3.6,11.8,16.2c.5.7.8,1.2.8,1.6Z" fill="#231f20"/>
    <path d="M460.6,334.2c0,.5-.2,1.3-.6,2.4l-3,10.1c-.8,2.7-1.9,4.9-3.2,6.6s-3.3,3.6-6,5.6l8.7,7.4c1.1.9,1.7,2,1.7,3.1v4.7c0,1.6-.7,2.4-2,2.4h-29.8c-.9,0-1.4,0-1.6-.3s-.4-.6-.4-1.4v-5.4c0-.8.1-1.3.4-1.5s.7-.4,1.4-.4h19.9c.4,0,.6-.1.6-.4,0-.1,0-.3-.4-.4-2.4-1.3-4.9-3.2-7.7-5.6-6.1-5.2-10.2-10.8-12.4-16.6l-3.6-9.2c-.6-1.6-.2-2.4,1.4-2.4h6.7c1,0,1.9.7,2.4,2.2l3.6,8.9c2.3,5.4,4.4,9.1,6.5,11.1.8-1.4,1.9-4.5,3.3-9.3l3-10c.6-2,1.4-2.9,2.3-2.9h6.8c1.1,0,1.6.4,1.6,1.3Z" fill="#231f20"/>
    <path d="M507,362.1c0,4.7-1.1,8.4-3.4,10.9s-5.5,3.8-9.7,3.8-5.8-.4-7.7-1.1c-.7-.3-1.2-.5-1.3-.7s-.2-.7-.2-1.5v-4.1c0-1.2.7-1.7,2-1.5,2.4.2,3.8.3,4.2.3,4.2,0,6.2-1.9,6.2-5.7v-14.3c0-4.2-2.1-6.4-6.2-6.4h-6c-2.7,0-4.4.6-5.3,1.9v30.8c0,.9-.1,1.4-.3,1.6s-.7.3-1.4.3h-6.5c-.7,0-1.2-.1-1.4-.3s-.3-.7-.3-1.6v-28.4c0-1.3-.4-2.5-1.3-3.6l-2.1-2.4c-.7-.7-1-1.3-1-1.7s.3-.9,1-1.6l4-3.7c.7-.6,1.3-.9,1.9-.9s.9.2,1.4.6l1.6,1.7c.7.8,1.5,1.8,2.5,3,3.5-3.2,6.7-4.8,9.6-4.8h6.2c8.9,0,13.3,4.5,13.3,13.4v15.9Z" fill="#231f20"/>
  </g>
</svg>