<?xml version="1.0" encoding="UTF-8"?>
<svg id="Layer_1" xmlns="http://www.w3.org/2000/svg" xmlns:xlink="http://www.w3.org/1999/xlink" version="1.1" viewBox="0 0 242.8 223.4">
  <!-- Generator: Adobe Illustrator 30.1.0, SVG Export Plug-In . SVG Version: 2.1.1 Build 136)  -->
  <defs>
    <radialGradient id="radial-gradient" cx="112.3" cy="443" fx="74.7" fy="431.2" r="118.3" gradientTransform="translate(0 -342)" gradientUnits="userSpaceOnUse">
      <stop offset="0" stop-color="#969595"/>
      <stop offset="1" stop-color="#474747"/>
    </radialGradient>
    <clipPath id="clippath">
      <path d="M126.1,16.3c8.3,11,17.6,25.5,26.7,41.4,1.8,3.1,5.1,5.4,8.7,6,18.6,3.2,36,6.8,49.7,10.5,6.7,1.9,8.8,11.9,4.5,17.4-8.9,11.2-19.9,23.9-32.8,36.9-2.5,2.5-3.8,6.1-3.3,9.5,2.2,17.3,3.8,33.4,4.9,47.7.6,7.2-9.2,11.9-16.4,8.9-14.4-5.9-29.7-11.6-46.3-18.5-3.2-1.3-7.2-1.3-10.4,0-16.6,6.9-31.8,12.6-46.3,18.5-7.1,3-16.9-1.8-16.4-8.9,1.1-14.3,2.6-30.4,4.9-47.7.4-3.4-.8-7-3.3-9.5-12.8-13-23.9-25.7-32.8-36.9-4.3-5.5-2.2-15.4,4.5-17.4,13.7-3.7,31-7.3,49.7-10.5,3.6-.6,6.9-2.9,8.7-6,9.1-15.9,18.4-30.4,26.7-41.4,4.1-5.2,14.9-5.2,19,0Z" fill="none"/>
    </clipPath>
  </defs>
  <g isolation="isolate">
    <g id="Layer_11">
      <g>
        <path d="M126.1,38.2c8.3,11,17.6,25.5,26.7,41.4,1.8,3.1,5.1,5.4,8.7,6,18.6,3.2,36,6.8,49.7,10.5,6.7,1.9,8.8,11.9,4.5,17.4-8.9,11.2-19.9,23.9-32.8,36.9-2.5,2.5-3.8,6.1-3.3,9.5,2.2,17.3,3.8,33.4,4.9,47.7.6,7.2-9.2,11.9-16.4,8.9-14.4-5.9-29.7-11.6-46.3-18.5-3.2-1.3-7.2-1.3-10.4,0-16.6,6.9-31.8,12.6-46.3,18.5-7.1,3-16.9-1.8-16.4-8.9,1.1-14.3,2.6-30.4,4.9-47.7.4-3.4-.8-7-3.3-9.5-12.8-13-23.9-25.7-32.8-36.9-4.3-5.5-2.2-15.4,4.5-17.4,13.7-3.7,31-7.3,49.7-10.5,3.6-.6,6.9-2.9,8.7-6,9.1-15.9,18.4-30.4,26.7-41.4,4.1-5.2,14.9-5.2,19,0Z" fill="#787777" isolation="isolate" mix-blend-mode="multiply"/>
        <path d="M126.1,32.2c8.3,11,17.6,25.5,26.7,41.4,1.8,3.1,5.1,5.4,8.7,6,18.6,3.2,38.5-1.9,52.2,1.8,6.7,1.9,6.2,20.6,1.9,26.1-8.9,11.2-19.9,23.9-32.8,36.9-2.5,2.5-3.8,6.1-3.3,9.5,2.2,17.3,5.2,31.6,6.3,45.9.6,7.2-10.6,13.7-17.8,10.8-14.4-5.9-29.7-11.6-46.3-18.5-3.2-1.3-7.2-1.3-10.4,0-16.6,6.9-31.8,12.6-46.3,18.5-7.1,3-17.9-1.7-17.4-8.8,1.1-14.3,3.6-30.5,5.9-47.8.4-3.4-.8-7-3.3-9.5-12.8-13-23.9-25.7-32.8-36.9-4.3-5.5-5.4-24.5,1.3-26.4,13.7-3.7,34.2,1.7,52.8-1.5,3.6-.6,6.9-2.9,8.7-6,9.1-15.9,18.4-30.4,26.7-41.4,4.1-5.2,14.9-5.2,19,0h.2Z" fill="#4f4f4f"/>
        <path d="M126.1,25.5c8.3,11,17.6,25.5,26.7,41.4,1.8,3.1,5.1,5.4,8.7,6,18.6,3.2,37.9-2.7,51.6,1,6.7,1.9,6.9,21.4,2.6,26.9-8.9,11.2-19.9,23.9-32.8,36.9-2.5,2.5-3.8,6.1-3.3,9.5,2.2,17.3,4.5,32,5.6,46.3.6,7.2-10,13.3-17.1,10.3-14.4-5.9-29.7-11.6-46.3-18.5-3.2-1.3-7.2-1.3-10.4,0-16.6,6.9-31.8,12.6-46.3,18.5-7.1,3-17.6-1.8-17-9,1.1-14.3,3.3-30.3,5.5-47.6.4-3.4-.8-7-3.3-9.5-12.8-13-23.9-25.7-32.8-36.9-4.3-5.5-5-24.1,1.7-26,13.7-3.7,33.9,1.4,52.5-1.8,3.6-.6,6.9-2.9,8.7-6,9.1-15.9,18.4-30.4,26.7-41.4,4.1-5.2,14.9-5.2,19,0h0Z" fill="#272727"/>
        <path d="M126.1,11.3c8.3,11,17.6,25.5,26.7,41.4,1.8,3.1,5.1,5.4,8.7,6,18.6,3.2,36,6.8,49.7,10.5,6.7,1.9,9.2,16.3,4.9,21.8-8.9,11.2-20.4,19.4-33.2,32.5-2.5,2.5-6.3,6.4-5.9,9.7,2.2,17.3,4.2,33.6,5.3,47.8.6,7.2-7.1,11.5-14.3,8.5-14.4-5.9-29.7-11.6-46.3-18.5-3.2-1.3-7.2-1.3-10.4,0-16.6,6.9-31.8,12.6-46.3,18.5-7.1,3-14.5-1.5-14-8.6,1.1-14.3,1.8-30.3,4.1-47.6.4-3.4-2.4-7.3-4.9-9.8-12.8-13-25-22.5-33.9-33.7-4.3-5.5-1.1-18.7,5.6-20.6,13.7-3.7,31-7.3,49.7-10.5,3.6-.6,6.9-2.9,8.7-6,9.1-15.9,18.4-30.4,26.7-41.4,4.1-5.2,14.9-5.2,19,0h0Z" fill="#6f6f6f" stroke="#232323" stroke-miterlimit="10" stroke-width="4.3"/>
        <g>
          <path d="M126.1,16.3c8.3,11,17.6,25.5,26.7,41.4,1.8,3.1,5.1,5.4,8.7,6,18.6,3.2,36,6.8,49.7,10.5,6.7,1.9,8.8,11.9,4.5,17.4-8.9,11.2-19.9,23.9-32.8,36.9-2.5,2.5-3.8,6.1-3.3,9.5,2.2,17.3,3.8,33.4,4.9,47.7.6,7.2-9.2,11.9-16.4,8.9-14.4-5.9-29.7-11.6-46.3-18.5-3.2-1.3-7.2-1.3-10.4,0-16.6,6.9-31.8,12.6-46.3,18.5-7.1,3-16.9-1.8-16.4-8.9,1.1-14.3,2.6-30.4,4.9-47.7.4-3.4-.8-7-3.3-9.5-12.8-13-23.9-25.7-32.8-36.9-4.3-5.5-2.2-15.4,4.5-17.4,13.7-3.7,31-7.3,49.7-10.5,3.6-.6,6.9-2.9,8.7-6,9.1-15.9,18.4-30.4,26.7-41.4,4.1-5.2,14.9-5.2,19,0Z" fill="url(#radial-gradient)"/>
          <g clip-path="url(#clippath)">
            <g>
              <ellipse cx="79.6" cy="68.3" rx="92.3" ry="90.1" fill="#292929" isolation="isolate" opacity=".4"/>
              <ellipse cx="70.7" cy="51.5" rx="92.3" ry="90.1" fill="#363636" isolation="isolate" opacity=".4"/>
              <ellipse cx="52.9" cy="34.6" rx="92.3" ry="90.1" fill="#434343" isolation="isolate" opacity=".4"/>
            </g>
          </g>
        </g>
        <path d="M93.8,45.6c-4.9,10-7.1,18.9-4.9,19.9,2.2,1.1,7.9-6.1,12.7-16.1,4.9-10,7.1-18.9,4.9-19.9-2.2-1.1-7.9,6.1-12.7,16.1Z" fill="#fff" isolation="isolate"/>
        <path d="M54.5,73.9c-5.9,1.2-10.5,3.2-10.2,4.5s5.3,1.4,11.1.2c5.9-1.2,10.5-3.2,10.2-4.5s-5.3-1.4-11.1-.2Z" fill="#fff" isolation="isolate"/>
      </g>
    </g>
  </g>
</svg>