<?xml version="1.0" encoding="UTF-8"?>
<svg id="Layer_1" xmlns="http://www.w3.org/2000/svg" xmlns:xlink="http://www.w3.org/1999/xlink" version="1.1" viewBox="0 0 477.7 189.8">
  <!-- Generator: Adobe Illustrator 30.1.0, SVG Export Plug-In . SVG Version: 2.1.1 Build 136)  -->
  <defs>
    <linearGradient id="linear-gradient" x1="235.8" y1="756.8" x2="235.8" y2="890.9" gradientTransform="translate(0 -752)" gradientUnits="userSpaceOnUse">
      <stop offset="0" stop-color="#c8dd75"/>
      <stop offset=".8" stop-color="#6ebe45"/>
      <stop offset="1" stop-color="#5ba645"/>
    </linearGradient>
  </defs>
  <g isolation="isolate">
    <g id="Layer_11">
      <path d="M343.5,153c-71.8,1-143.5,1-215.3,0-26.4-.4-53.1-22.8-53.4-49.5v-3.1c.3-26.7,27-49,53.4-49.5,71.8-1,143.5-1,215.3,0,26.4.4,53.1,22.8,53.4,49.5v3.1c-.3,26.7-27,49-53.4,49.5Z" fill="#c9c9c9" isolation="isolate" mix-blend-mode="multiply"/>
      <path d="M343.5,147.4c-71.8,1-143.5,1-215.3,0-26.4-.4-53.1-22.8-53.4-49.5v-3.1c.3-26.7,27-49,53.4-49.5,71.8-1,143.5-1,215.3,0,26.4.4,53.1,22.8,53.4,49.5v3.1c-.3,26.7-27,49-53.4,49.5Z" fill="#56853c"/>
      <path d="M343.5,142.7c-71.8,1-143.5,1-215.3,0-26.4-.4-53.1-22.8-53.4-49.5v-3.1c.3-26.7,27-49,53.4-49.5,71.8-1,143.5-1,215.3,0,26.4.4,53.1,22.8,53.4,49.5v3.1c-.3,26.7-27,49-53.4,49.5Z" fill="#5b8d3e"/>
      <path d="M343.5,136.5c-71.8,1-143.5,1-215.3,0-26.4-.4-53.1-22.8-53.4-49.5v-3.1c.3-26.7,27-49,53.4-49.5,71.8-1,143.5-1,215.3,0,26.4.4,53.1,22.8,53.4,49.5v3.1c-.3,26.7-27,49-53.4,49.5Z" fill="url(#linear-gradient)" stroke="#5e9741" stroke-miterlimit="10" stroke-width="1.4"/>
    </g>
  </g>
  <g>
    <path d="M145.3,79.4c0,2.3-.7,4.5-2,6.5-1.2,1.8-2.7,3.2-4.5,4.1-.3.1-.4.3-.4.6s.1.5.4.7l5.5,6.5c.7.8,1,1.8,1,2.8s-.5,2.5-1.5,3.5-2.1,1.6-3.4,1.6-2.2-.5-3.1-1.6l-10.2-12c-.6-.7-1.2-1.1-1.7-1.1-1.1,0-1.7,1.1-1.7,3.3s.8,3.1,2.3,3.6c1.6.6,2.3,1.8,2.3,3.6s-.3,1.8-.8,2.5c-.5.7-1.2,1.1-2.1,1.1h-6.2c-1.9,0-3.3-.8-4.3-2.4-.8-1.3-1.2-3-1.2-5,0-4.6,2-8.6,6-12,.3-.3.5-.6.5-.9s0-.4-.2-.6l-4.5-5.1c-.9-1-1.3-2-1.3-3.2s.4-2.4,1.3-3.3c.9-.8,1.9-1.3,3.2-1.3s2.9.5,3.7,1.4l9.7,10.9c.6.7,1.2,1.1,1.8,1.1,1.1,0,1.6-.9,1.6-2.8s-.4-1.7-1.1-1.7c-1.1,0-1.9-.4-2.5-1.3-.6-.9-1-1.9-1-3.1,0-2.8,1.2-4.2,3.7-4.2h4.1c4.5,0,6.7,2.5,6.7,7.6Z" fill="#fff"/>
    <path d="M176.8,101.4c0,1-.3,1.9-1,2.6s-1.5,1.1-2.6,1.1h-21.5c-.9,0-1.6-.4-2.1-1.2-.5-.8-.8-1.8-.8-3s.3-2.2.8-3,1.2-1.3,2.1-1.3h8.5c1.4,0,2.5-.5,3.4-1.6.8-1.1,1.2-2.4,1.2-4v-5.5c0-1.4-.4-2.7-1.3-3.7s-2-1.5-3.3-1.5h-7.7c-2.2,0-3.3-1.4-3.3-4.2s.3-2.1.9-3c.6-.9,1.4-1.4,2.3-1.4h11.9c3.2,0,5.8,1.1,7.6,3.2,1.6,1.9,2.4,4.2,2.4,6.8v6.4c0,3.1-.9,5.4-2.6,7.2-.1.1-.2.4-.2.6s.1.5.3.6l1.9.7c1.9.7,2.9,2.1,2.9,4.2Z" fill="#fff"/>
    <path d="M208.1,101.7c0,1.2-.5,2.1-1.5,2.8-1,.7-2.1,1-3.5,1s-2.4-.3-3.3-.9c-.9-.6-1.4-1.5-1.4-2.6v-17c0-3.1-1.4-4.6-4.1-4.6h-10.7c-1.1,0-1.9-.4-2.4-1.3s-.9-1.9-.9-3,.3-2.2.9-3c.6-.8,1.4-1.2,2.4-1.2h15.1c6.3,0,9.4,3.3,9.4,10v19.9ZM190.9,101.7c0,1.2-.5,2.1-1.5,2.8-1,.7-2.1,1-3.5,1s-2.4-.3-3.3-.9c-.9-.6-1.4-1.5-1.4-2.6v-11.8c0-1.3.5-2.3,1.6-3.1,1-.7,2.1-1,3.4-1,3.1,0,4.6,1.4,4.6,4.1v11.6Z" fill="#fff"/>
    <path d="M250.3,101.4c0,1-.3,1.9-1,2.6s-1.5,1.1-2.6,1.1h-21.5c-.9,0-1.6-.4-2.1-1.2-.5-.8-.8-1.8-.8-3s.3-2.2.8-3,1.2-1.3,2.1-1.3h8.5c1.4,0,2.5-.5,3.4-1.6.8-1.1,1.2-2.4,1.2-4v-5.5c0-1.4-.4-2.7-1.3-3.7s-2-1.5-3.3-1.5h-7.7c-2.2,0-3.3-1.4-3.3-4.2s.3-2.1.9-3c.6-.9,1.4-1.4,2.3-1.4h11.9c3.2,0,5.8,1.1,7.6,3.2,1.6,1.9,2.4,4.2,2.4,6.8v6.4c0,3.1-.9,5.4-2.6,7.2-.1.1-.2.4-.2.6s.1.5.3.6l1.9.7c1.9.7,2.9,2.1,2.9,4.2Z" fill="#fff"/>
    <path d="M279.7,82.6c0,4.6-2.1,9.1-6.2,13.4l-8.3,8.8c-1,1-2,1.5-3,1.5s-1.7-.4-2.3-1.1c-.6-.8-.9-1.6-.9-2.7s.3-2,1-2.9l7.8-11.1c1.2-1.8,1.8-3.2,1.8-4.2,0-2.6-1.1-3.8-3.4-3.8h-9.9c-2.1,0-3.1-1.2-3.1-3.7v-10.4c0-1.3.5-2.3,1.4-3.1,1-.7,2.1-1.1,3.4-1.1s2.5.4,3.4,1.1c.9.7,1.4,1.8,1.4,3.1v4.4c0,.8.4,1.2,1.2,1.2h4.7c3.7,0,6.5,1.1,8.5,3.4,1.7,1.9,2.5,4.4,2.5,7.4Z" fill="#fff"/>
    <path d="M321,93.5c0,3.5-1.1,6.3-3.3,8.4-2.2,2.1-5,3.2-8.4,3.2h-12.5c-3.4,0-6.2-1.1-8.4-3.2-2.2-2.1-3.3-4.9-3.3-8.4v-18c0-1.2.5-2.1,1.4-2.9.9-.7,2-1.1,3.2-1.1s2.2.4,3.2,1.1c.9.7,1.4,1.7,1.4,2.9v18.6c0,.8.3,1.5.8,2,.6.6,1.3.9,2.3.9s.7,0,.9-.3c.1-.2.2-.5.2-.8v-20.3c0-1.2.5-2.2,1.4-3,.9-.7,2-1.1,3.3-1.1s2.2.4,3.2,1.2c.9.8,1.4,1.8,1.4,2.9v20.3c0,.7.3,1.1,1,1.1s1.7-.3,2.3-.9c.6-.6.9-1.3.9-2v-18.6c0-1.2.5-2.1,1.4-2.9.9-.7,2-1.1,3.2-1.1s2.2.4,3.2,1.1c.9.7,1.4,1.7,1.4,2.9v18Z" fill="#fff"/>
    <path d="M352.2,82.6c0,4.6-2.1,9.1-6.2,13.4l-8.3,8.8c-1,1-2,1.5-3,1.5s-1.7-.4-2.3-1.1-.9-1.6-.9-2.7.3-2,1-2.9l7.8-11.1c1.2-1.8,1.8-3.2,1.8-4.2,0-2.6-1.1-3.8-3.4-3.8h-9.9c-2.1,0-3.1-1.2-3.1-3.7v-10.4c0-1.3.5-2.3,1.4-3.1,1-.7,2.1-1.1,3.4-1.1s2.5.4,3.4,1.1c.9.7,1.4,1.8,1.4,3.1v4.4c0,.8.4,1.2,1.2,1.2h4.7c3.7,0,6.5,1.1,8.5,3.4,1.7,1.9,2.5,4.4,2.5,7.4Z" fill="#fff"/>
  </g>
</svg>