<?xml version="1.0" encoding="UTF-8"?>
<svg id="Layer_1" xmlns="http://www.w3.org/2000/svg" xmlns:xlink="http://www.w3.org/1999/xlink" version="1.1" viewBox="0 0 477.7 189.8">
  <!-- Generator: Adobe Illustrator 30.1.0, SVG Export Plug-In . SVG Version: 2.1.1 Build 136)  -->
  <defs>
    <linearGradient id="linear-gradient" x1="235.8" y1="756.8" x2="235.8" y2="890.9" gradientTransform="translate(0 -752)" gradientUnits="userSpaceOnUse">
      <stop offset="0" stop-color="#c8dd75"/>
      <stop offset=".8" stop-color="#6ebe45"/>
      <stop offset="1" stop-color="#5ba645"/>
    </linearGradient>
  </defs>
  <g isolation="isolate">
    <g id="Layer_11">
      <path d="M343.5,153c-71.8,1-143.5,1-215.3,0-26.4-.4-53.1-22.8-53.4-49.5v-3.1c.3-26.7,27-49,53.4-49.5,71.8-1,143.5-1,215.3,0,26.4.4,53.1,22.8,53.4,49.5v3.1c-.3,26.7-27,49-53.4,49.5Z" fill="#c9c9c9" isolation="isolate" mix-blend-mode="multiply"/>
      <path d="M343.5,147.4c-71.8,1-143.5,1-215.3,0-26.4-.4-53.1-22.8-53.4-49.5v-3.1c.3-26.7,27-49,53.4-49.5,71.8-1,143.5-1,215.3,0,26.4.4,53.1,22.8,53.4,49.5v3.1c-.3,26.7-27,49-53.4,49.5Z" fill="#56853c"/>
      <path d="M343.5,142.7c-71.8,1-143.5,1-215.3,0-26.4-.4-53.1-22.8-53.4-49.5v-3.1c.3-26.7,27-49,53.4-49.5,71.8-1,143.5-1,215.3,0,26.4.4,53.1,22.8,53.4,49.5v3.1c-.3,26.7-27,49-53.4,49.5Z" fill="#5b8d3e"/>
      <path d="M343.5,136.5c-71.8,1-143.5,1-215.3,0-26.4-.4-53.1-22.8-53.4-49.5v-3.1c.3-26.7,27-49,53.4-49.5,71.8-1,143.5-1,215.3,0,26.4.4,53.1,22.8,53.4,49.5v3.1c-.3,26.7-27,49-53.4,49.5Z" fill="url(#linear-gradient)" stroke="#5e9741" stroke-miterlimit="10" stroke-width="1.4"/>
    </g>
  </g>
  <g>
    <path d="M190.5,81.9c0,5.2-2.5,10.2-7.4,15.1l-9.8,9.8c-1.1,1.1-2.3,1.7-3.6,1.7s-2-.4-2.7-1.3c-.7-.9-1.1-1.9-1.1-3s.4-2.2,1.2-3.3l9.2-12.5c1.5-2,2.2-3.6,2.2-4.8,0-2.9-1.4-4.3-4.1-4.3h-11.8c-2.5,0-3.7-1.4-3.7-4.1v-11.7c0-1.5.6-2.6,1.7-3.5,1.1-.8,2.5-1.3,4.1-1.3s3,.4,4.1,1.2c1.1.8,1.7,2,1.7,3.5v4.9c0,.9.5,1.3,1.4,1.3h5.6c4.4,0,7.7,1.3,10.1,3.8,2,2.2,3,5,3,8.3Z" fill="#fff"/>
    <path d="M230.5,103.3c0,1.4-.6,2.4-1.8,3.1-1.2.7-2.6,1.1-4.2,1.1s-2.8-.4-4-1.1c-1.1-.7-1.7-1.7-1.7-2.9v-17.7c0-4.4-2.1-6.6-6.3-6.6h-2.9c-.7,0-1.1.4-1.1,1.1v23.1c0,1.3-.6,2.2-1.7,2.9-1.1.7-2.5,1.1-4,1.1s-2.9-.3-4-1c-1.3-.8-1.9-1.8-1.9-3.2v-27.8c0-3.8,1.8-5.7,5.4-5.7h14.5c4.1,0,7.4,1.1,9.9,3.2s3.7,5.3,3.7,9.4v20.9Z" fill="#fff"/>
    <path d="M274.5,102.6c0,1.6-.6,2.8-1.7,3.7-1.1.8-2.5,1.3-4.1,1.3s-2.9-.4-4.1-1.3c-1.1-.8-1.7-2.1-1.7-3.7v-19.7c0-2.5-1.3-3.7-4-3.7h-1c-2.6,0-3.8,1.5-3.8,4.4v14.6c0,3.2-1,5.7-2.9,7.4-1.7,1.5-4.1,2.3-7,2.3-5.8,0-8.8-1.6-8.8-4.8s0-.6,0-.8c.2-2.3,1.3-3.5,3.2-3.5h.7c.3.1.7.2,1.2.2,1.2,0,1.8-1.1,1.8-3.3v-8.5c0-2.5.8-4.4,2.4-5.8.3-.2.4-.6.4-1.2s-.5-1-1.6-1h-2.4c-1.3,0-2.2-.5-2.9-1.4-.7-.9-1-2-1-3.3s.3-2.5,1-3.4c.7-1,1.6-1.5,2.9-1.5h20.9c4.4,0,7.5,1,9.4,2.9,1.9,1.9,2.9,4.9,2.9,8.9v21.2Z" fill="#fff"/>
    <path d="M313.9,103.3c0,1.4-.6,2.4-1.8,3.1-1.2.7-2.5,1.1-4.1,1.1s-2.8-.4-4-1.1c-1.1-.7-1.7-1.7-1.7-2.9v-19.1c0-3.4-1.6-5.2-4.8-5.2h-12.8c-1.3,0-2.2-.5-2.9-1.4s-1-2.1-1-3.4.3-2.4,1-3.4c.7-.9,1.6-1.4,2.9-1.4h18c7.5,0,11.2,3.8,11.2,11.3v22.4ZM293.4,103.3c0,1.4-.6,2.4-1.8,3.1-1.2.7-2.5,1.1-4.1,1.1s-2.8-.4-4-1.1c-1.1-.7-1.7-1.7-1.7-2.9v-13.3c0-1.4.7-2.6,2-3.4,1.1-.8,2.5-1.2,4.1-1.2,3.7,0,5.5,1.5,5.5,4.6v13.1Z" fill="#fff"/>
  </g>
</svg>