<?xml version="1.0" encoding="UTF-8"?>
<svg id="Layer_1" xmlns="http://www.w3.org/2000/svg" xmlns:xlink="http://www.w3.org/1999/xlink" version="1.1" viewBox="0 0 477.7 189.8">
  <!-- Generator: Adobe Illustrator 30.1.0, SVG Export Plug-In . SVG Version: 2.1.1 Build 136)  -->
  <defs>
    <linearGradient id="linear-gradient" x1="226.5" y1="1367.5" x2="226.5" y2="1448.4" gradientTransform="translate(0 -1328)" gradientUnits="userSpaceOnUse">
      <stop offset="0" stop-color="#48dddc"/>
      <stop offset=".8" stop-color="#009ebe"/>
      <stop offset="1" stop-color="#157aa6"/>
    </linearGradient>
  </defs>
  <g isolation="isolate">
    <g id="Layer_11">
      <path d="M302.3,128.9c-50.5.6-100.9.6-151.5,0-18.6-.2-37.4-13.8-37.6-29.9v-1.9c.2-16.1,19-29.6,37.6-29.9,50.5-.6,100.9-.6,151.5,0,18.6.2,37.4,13.8,37.6,29.9v1.9c-.2,16.1-19,29.6-37.6,29.9Z" fill="#9e200b" isolation="isolate" mix-blend-mode="multiply"/>
      <path d="M302.3,125.5c-50.5.6-100.9.6-151.5,0-18.6-.2-37.4-13.8-37.6-29.9v-1.9c.2-16.1,19-29.6,37.6-29.9,50.5-.6,100.9-.6,151.5,0,18.6.2,37.4,13.8,37.6,29.9v1.9c-.2,16.1-19,29.6-37.6,29.9Z" fill="#0c7385"/>
      <path d="M302.3,122.7c-50.5.6-100.9.6-151.5,0-18.6-.2-37.4-13.8-37.6-29.9v-1.9c.2-16.1,19-29.6,37.6-29.9,50.5-.6,100.9-.6,151.5,0,18.6.2,37.4,13.8,37.6,29.9v1.9c-.2,16.1-19,29.6-37.6,29.9Z" fill="#0b7b8d"/>
      <path d="M302.3,118.9c-50.5.6-100.9.6-151.5,0-18.6-.2-37.4-13.8-37.6-29.9v-1.9c.2-16.1,19-29.6,37.6-29.9,50.5-.6,100.9-.6,151.5,0,18.6.2,37.4,13.8,37.6,29.9v1.9c-.2,16.1-19,29.6-37.6,29.9Z" fill="url(#linear-gradient)" stroke="#148197" stroke-miterlimit="10" stroke-width=".9"/>
    </g>
  </g>
  <g>
    <path d="M170.5,78.5h7.1l12.2,16.1v-16.1h8.1v29.2h-7l-12.2-16.2v16.2h-8.1v-29.2Z" fill="#fff"/>
    <path d="M203.9,78.5h21.1v7.2h-13v3.9h11.1v6.7h-11.1v4.3h13.2v7.2h-21.3v-29.2Z" fill="#fff"/>
    <path d="M237.8,92.3l-9.3-13.8h9.5l4.9,8.2,4.9-8.2h9.5l-9.3,13.8,10.5,15.4h-9.5l-6-9.9-6,9.9h-9.5l10.5-15.4Z" fill="#fff"/>
    <path d="M266.9,85.7h-7.7v-7.2h23.5v7.2h-7.7v22h-8.1v-22Z" fill="#fff"/>
  </g>
</svg>