<?xml version="1.0" encoding="utf-8"?>
<!-- Generator: Adobe Illustrator 30.1.0, SVG Export Plug-In . SVG Version: 9.03 Build 0)  -->
<svg version="1.0" id="Layer_1" xmlns="http://www.w3.org/2000/svg" xmlns:xlink="http://www.w3.org/1999/xlink" x="0px" y="0px"
	 viewBox="0 0 227.4 231.4" enable-background="new 0 0 227.4 231.4" xml:space="preserve">
<g>
	<path fill="#C9C9C9" d="M124.9,43c8.3,11,17.6,25.5,26.7,41.4c1.8,3.1,5.1,5.4,8.7,6c18.6,3.2,36,6.8,49.7,10.5
		c6.7,1.9,8.8,11.9,4.5,17.4c-8.9,11.2-19.9,23.9-32.8,36.9c-2.5,2.5-3.8,6.1-3.3,9.5c2.2,17.3,3.8,33.4,4.9,47.7
		c0.6,7.2-9.2,11.9-16.4,8.9c-14.4-5.9-29.7-11.6-46.3-18.5c-3.2-1.3-7.2-1.3-10.4,0c-16.6,6.9-31.8,12.6-46.3,18.5
		c-7.1,3-16.9-1.8-16.4-8.9c1.1-14.3,2.6-30.4,4.9-47.7c0.4-3.4-0.8-7-3.3-9.5c-12.8-13-23.9-25.7-32.8-36.9
		c-4.3-5.5-2.2-15.4,4.5-17.4c13.7-3.7,31-7.3,49.7-10.5c3.6-0.6,6.9-2.9,8.7-6C88.3,68.5,97.6,54,105.9,43
		C110.1,37.8,120.8,37.8,124.9,43z"/>
	<path fill="#D76E27" d="M124.9,37c8.3,11,17.6,25.5,26.7,41.4c1.8,3.1,5.1,5.4,8.7,6c18.6,3.2,38.5-1.9,52.2,1.8
		c6.7,1.9,6.2,20.6,1.9,26.1c-8.9,11.2-19.9,23.9-32.8,36.9c-2.5,2.5-3.8,6.1-3.3,9.5c2.2,17.3,5.2,31.6,6.3,45.9
		c0.6,7.2-10.6,13.7-17.8,10.8c-14.4-5.9-29.7-11.6-46.3-18.5c-3.2-1.3-7.2-1.3-10.4,0c-16.6,6.9-31.8,12.6-46.3,18.5
		c-7.1,3-17.9-1.7-17.4-8.8c1.1-14.3,3.6-30.5,5.9-47.8c0.4-3.4-0.8-7-3.3-9.5c-12.8-13-23.9-25.7-32.8-36.9
		c-4.3-5.5-5.4-24.5,1.3-26.4c13.7-3.7,34.2,1.7,52.8-1.5c3.6-0.6,6.9-2.9,8.7-6c9.1-15.9,18.4-30.4,26.7-41.4
		C110.1,31.8,120.8,31.8,124.9,37z"/>
	<path fill="#E97C24" d="M124.9,30.4c8.3,11,17.6,25.5,26.7,41.4c1.8,3.1,5.1,5.4,8.7,6c18.6,3.2,37.9-2.7,51.6,1
		c6.7,1.9,6.9,21.4,2.6,26.9c-8.9,11.2-19.9,23.9-32.8,36.9c-2.5,2.5-3.8,6.1-3.3,9.5c2.2,17.3,4.5,32,5.6,46.3
		c0.6,7.2-10,13.3-17.1,10.3c-14.4-5.9-29.7-11.6-46.3-18.5c-3.2-1.3-7.2-1.3-10.4,0c-16.6,6.9-31.8,12.6-46.3,18.5
		c-7.1,3-17.6-1.8-17-9c1.1-14.3,3.3-30.3,5.5-47.6c0.4-3.4-0.8-7-3.3-9.5c-12.8-13-23.9-25.7-32.8-36.9c-4.3-5.5-5-24.1,1.7-26
		c13.7-3.7,33.9,1.4,52.5-1.8c3.6-0.6,6.9-2.9,8.7-6c9.1-15.9,18.4-30.4,26.7-41.4C110.1,25.1,120.8,25.1,124.9,30.4z"/>
	<path fill="#FFCC4D" stroke="#F47421" stroke-width="4.2604" stroke-miterlimit="10" d="M124.9,16.1c8.3,11,17.6,25.5,26.7,41.4
		c1.8,3.1,5.1,5.4,8.7,6c18.6,3.2,36,6.8,49.7,10.5c6.7,1.9,9.2,16.3,4.9,21.8c-8.9,11.2-20.4,19.4-33.2,32.5
		c-2.5,2.5-6.3,6.4-5.9,9.7c2.2,17.3,4.2,33.6,5.3,47.8c0.6,7.2-7.1,11.5-14.3,8.5c-14.4-5.9-29.7-11.6-46.3-18.5
		c-3.2-1.3-7.2-1.3-10.4,0c-16.6,6.9-31.8,12.6-46.3,18.5c-7.1,3-14.5-1.5-14-8.6c1.1-14.3,1.8-30.3,4.1-47.6
		c0.4-3.4-2.4-7.3-4.9-9.8c-12.8-13-25-22.5-33.9-33.7C11,89.1,14.1,75.9,20.8,74c13.7-3.7,31-7.3,49.7-10.5c3.6-0.6,6.9-2.9,8.7-6
		c9.1-15.9,18.4-30.4,26.7-41.4C110.1,10.9,120.8,10.9,124.9,16.1z"/>
	<g>
		<defs>
			<path id="SVGID_1_" d="M124.9,21.2c8.3,11,17.6,25.5,26.7,41.4c1.8,3.1,5.1,5.4,8.7,6c18.6,3.2,36,6.8,49.7,10.5
				c6.7,1.9,8.8,11.9,4.5,17.4c-8.9,11.2-19.9,23.9-32.8,36.9c-2.5,2.5-3.8,6.1-3.3,9.5c2.2,17.3,3.8,33.4,4.9,47.7
				c0.6,7.2-9.2,11.9-16.4,8.9c-14.4-5.9-29.7-11.6-46.3-18.5c-3.2-1.3-7.2-1.3-10.4,0c-16.6,6.9-31.8,12.6-46.3,18.5
				c-7.1,3-16.9-1.8-16.4-8.9c1.1-14.3,2.6-30.4,4.9-47.7c0.4-3.4-0.8-7-3.3-9.5c-12.8-13-23.9-25.7-32.8-36.9
				C12.1,91,14.1,81,20.8,79.1c13.7-3.7,31-7.3,49.7-10.5c3.6-0.6,6.9-2.9,8.7-6c9.1-15.9,18.4-30.4,26.7-41.4
				C110.1,15.9,120.8,15.9,124.9,21.2z"/>
		</defs>
		
			<radialGradient id="SVGID_00000124856714697175494110000004202528293804386948_" cx="111.0901" cy="105.875" r="118.2997" fx="73.4485" fy="94.0733" gradientUnits="userSpaceOnUse">
			<stop  offset="0" style="stop-color:#FAED31"/>
			<stop  offset="1" style="stop-color:#F99C2F"/>
		</radialGradient>
		<use xlink:href="#SVGID_1_"  overflow="visible" fill="url(#SVGID_00000124856714697175494110000004202528293804386948_)"/>
		<clipPath id="SVGID_00000158007954428300770230000016394846552014939275_">
			<use xlink:href="#SVGID_1_"  overflow="visible"/>
		</clipPath>
		
			<ellipse clip-path="url(#SVGID_00000158007954428300770230000016394846552014939275_)" fill="#F7D612" cx="78.4" cy="73.2" rx="92.3" ry="90.1"/>
		
			<ellipse clip-path="url(#SVGID_00000158007954428300770230000016394846552014939275_)" fill="#FEE256" cx="69.5" cy="56.3" rx="92.3" ry="90.1"/>
	</g>
	<path fill="#F4F9F5" d="M92.6,50.5c-4.9,10-7.1,18.9-4.9,19.9c2.2,1.1,7.9-6.1,12.7-16.1c4.9-10,7.1-18.9,4.9-19.9
		C103.1,33.3,97.4,40.5,92.6,50.5z"/>
	<path fill="#FFFFFF" d="M53.3,78.7c-5.9,1.2-10.5,3.2-10.2,4.5c0.3,1.3,5.3,1.4,11.1,0.2c5.9-1.2,10.5-3.2,10.2-4.5
		C64.2,77.6,59.2,77.5,53.3,78.7z"/>
</g>
</svg>
