<?xml version="1.0" encoding="UTF-8"?>
<svg id="Layer_1" xmlns="http://www.w3.org/2000/svg" xmlns:xlink="http://www.w3.org/1999/xlink" version="1.1" viewBox="0 0 554.2 796.1">
  <!-- Generator: Adobe Illustrator 30.1.0, SVG Export Plug-In . SVG Version: 2.1.1 Build 136)  -->
  <defs>
    <radialGradient id="radial-gradient" cx="1911" cy="-527.1" fx="1911" fy="-527.1" r="814.9" gradientTransform="translate(-473.7 200.1) scale(.4 -.4)" gradientUnits="userSpaceOnUse">
      <stop offset="0" stop-color="#fdb77a"/>
      <stop offset="1" stop-color="#f78f36"/>
    </radialGradient>
    <radialGradient id="radial-gradient1" cx="1912.1" cy="331.1" fx="1912.1" fy="331.1" r="298.2" gradientTransform="translate(-473.7 200.1) scale(.4 -.4)" gradientUnits="userSpaceOnUse">
      <stop offset="0" stop-color="#ff7c00"/>
      <stop offset="1" stop-color="#d57d2f"/>
    </radialGradient>
    <radialGradient id="radial-gradient2" cx="1908.8" cy="-1654.8" fx="1908.8" fy="-1654.8" r="330.2" gradientTransform="translate(-472.4 -381.1) scale(.4 -.3)" gradientUnits="userSpaceOnUse">
      <stop offset="0" stop-color="#ff7c00"/>
      <stop offset="1" stop-color="#d57d2f"/>
    </radialGradient>
    <radialGradient id="radial-gradient3" cx="1912.1" cy="-628.8" fx="1912.1" fy="-628.8" r="1227.9" gradientTransform="translate(-473.7 200.1) scale(.4 -.4)" gradientUnits="userSpaceOnUse">
      <stop offset=".4" stop-color="#f7e9d8"/>
      <stop offset="1" stop-color="#f9e1c4"/>
    </radialGradient>
  </defs>
  <path d="M474.2,88.4h-.6c-4.4-7.5-12.5-12.8-21.4-13-6.2-.2-12.4-.4-18.6-.5-27.4-18-86.7-32-155-31.9-68.3,0-127.6,13.9-155,31.9-6.2.2-12.4.3-18.6.5-9,.3-17.1,5.6-21.4,13h-.6c-13,.4-24.3,11.2-24.9,24.1-3.7,78.6-3.2,523.3,1.5,601.8.8,12.8,12,23.7,24.9,24.3,4.2,8.2,12.7,14.2,22.1,14.6,114.6,4.3,229.3,4.3,343.9,0,9.4-.4,17.9-6.3,22.1-14.6,12.9-.6,24.1-11.4,24.9-24.3,4.7-78.6,5.2-523.3,1.5-601.8-.6-12.9-11.8-23.7-24.9-24.1h.1Z" fill="#b55107"/>
  <path d="M474.2,84h-.6c-4.4-7.5-12.5-12.8-21.4-13-6.2-.2-12.4-.4-18.6-.5-27.4-18-86.7-32-155-31.9-68.3,0-127.6,13.9-155,31.9-6.2.2-12.4.3-18.6.5-9,.3-17.1,5.6-21.4,13h-.6c-13,.4-24.3,11.2-24.9,24.1-3.7,78.6-3.2,523.3,1.5,601.8.8,12.8,12,23.7,24.9,24.3,4.2,8.2,12.7,14.2,22.1,14.6,114.6,4.3,229.3,4.3,343.9,0,9.4-.4,17.9-6.3,22.1-14.6,12.9-.6,24.1-11.4,24.9-24.3,4.7-78.6,5.2-523.3,1.5-601.8-.6-12.9-11.8-23.7-24.9-24.1h.1Z" fill="#bc6d2e"/>
  <path d="M474.2,77.9h-.6c-4.4-7.5-12.5-12.8-21.4-13-6.2-.2-12.4-.4-18.6-.5-27.4-18-86.7-32-155-31.9-68.3,0-127.6,13.9-155,31.9-6.2.2-12.4.3-18.6.5-9,.3-17.1,5.6-21.4,13h-.6c-13,.4-24.3,11.2-24.9,24.1-3.7,78.6-3.2,523.3,1.5,601.8.8,12.8,12,23.7,24.9,24.3,4.2,8.2,12.7,14.2,22.1,14.6,114.6,4.3,229.3,4.3,343.9,0,9.4-.4,17.9-6.3,22.1-14.6,12.9-.6,24.1-11.4,24.9-24.3,4.7-78.6,5.2-523.3,1.5-601.8-.6-12.9-11.8-23.7-24.9-24.1h.1Z" fill="#f49441"/>
  <path d="M472.3,79.4h-.6c-4.3-7.4-12.3-12.6-21.2-12.9-6.1-.2-12.3-.4-18.4-.5-27.2-17.9-85.9-31.7-153.5-31.6-67.6,0-126.3,13.8-153.5,31.6-6.1.2-12.3.3-18.4.5-8.9.3-16.9,5.5-21.2,12.9h-.6c-12.9.4-24,11.1-24.6,23.9-3.7,77.8-3.2,521.2,1.5,599,.8,12.7,11.9,23.5,24.6,24.1,4.2,8.2,12.6,14.1,21.9,14.4,113.5,4.2,227,4.2,340.6,0,9.3-.3,17.7-6.3,21.9-14.4,12.8-.6,23.9-11.3,24.6-24.1,4.7-77.8,5.2-521.2,1.5-599-.6-12.8-11.7-23.5-24.6-23.9h0Z" fill="#fad73c"/>
  <path d="M471.8,83.1h-.6c-4.3-7.4-12.3-12.6-21.2-12.9-6.1-.2-12.3-.4-18.4-.5-27.2-17.9-85.9-31.7-153.5-31.6-67.6,0-126.3,13.8-153.5,31.6-6.1.2-12.3.3-18.4.5-8.9.3-16.9,5.5-21.2,12.9h-.6c-12.9.4-24,11.1-24.6,23.9-3.7,77.8-3.2,521.2,1.5,599,.8,12.7,11.9,23.5,24.6,24.1,4.2,8.2,12.6,14.1,21.9,14.4,113.5,4.2,227,4.2,340.6,0,9.3-.3,17.7-6.3,21.9-14.4,12.8-.6,23.9-11.3,24.6-24.1,4.7-77.8,5.2-521.2,1.5-599-.6-12.8-11.7-23.5-24.6-23.9h0Z" fill="url(#radial-gradient)"/>
  <path d="M418.9,100.9H138.3c-10.8,0-14.5-16.4-5-22.3,30.7-18.9,84.3-31.4,145.3-31.4s114.6,12.5,145.3,31.4c9.5,5.9,5.9,22.3-5,22.3h0Z" fill="url(#radial-gradient1)"/>
  <path d="M121.3,79.6h314.7c6.4,0,11.5,5.1,11.5,11.5h0c0,6.3-5.1,11.4-11.5,11.4H121.3c-6.4,0-11.5-5.1-11.5-11.4h0c0-6.3,5.1-11.5,11.5-11.5Z" fill="url(#radial-gradient2)"/>
  <path d="M468.2,116.1c-124-5.4-255.3-5.4-379.3,0-7.8.3-14.6,7-15.1,14.7-6.3,90.4-6.6,485.6-.8,576,.5,7.8,7.3,14.4,15.1,14.7,1.3,0,2.6,0,4,.2,1.4,6.9,7.7,12.5,14.8,12.8,112.1,4.4,231.4,4.4,343.5,0,7.1-.3,13.4-5.9,14.8-12.8,1.3,0,2.6,0,4-.2,7.8-.3,14.6-6.9,15.1-14.7,5.8-90.4,5.5-485.6-.8-576-.6-7.8-7.4-14.4-15.1-14.7,0,0-.2,0-.2,0Z" fill="url(#radial-gradient3)"/>
  <g>
    <path d="M466.1,681.1c-1.4,5.8-.3,11,3.3,15.8,1.6,2.1,1.3,2.7-1.3,2-5.8-1.4-11-.3-15.8,3.3-2.1,1.6-2.7,1.3-2-1.3,1.4-5.8.3-11-3.3-15.8-1.6-2.1-1.3-2.7,1.3-2,5.8,1.4,11,.3,15.8-3.3,2.1-1.6,2.7-1.3,2,1.3Z" fill="#fdcea2"/>
    <path d="M439.7,686.5c-.8,3.5-.2,6.6,2,9.4,1,1.3.8,1.6-.8,1.2-3.5-.8-6.6-.2-9.4,2-1.3,1-1.6.8-1.2-.8.8-3.5.2-6.6-2-9.4-1-1.3-.8-1.6.8-1.2,3.5.8,6.6.2,9.4-2,1.3-1,1.6-.8,1.2.8Z" fill="#fdcea2"/>
    <path d="M442.7,707.2c-.5,2.2-.1,4.3,1.3,6.1.6.8.5,1-.5.8-2.2-.5-4.3,0-6.1,1.3-.8.6-1,.5-.8-.5.5-2.2.1-4.3-1.3-6.1-.6-.8-.5-1,.5-.8,2.2.5,4.3,0,6.1-1.3.8-.6,1-.5.8.5Z" fill="#fdcea2"/>
  </g>
  <g>
    <path d="M91.1,681.1c1.4,5.8.3,11-3.3,15.8-1.6,2.1-1.3,2.7,1.3,2,5.8-1.4,11-.3,15.8,3.3,2.1,1.6,2.7,1.3,2-1.3-1.4-5.8-.3-11,3.3-15.8,1.6-2.1,1.3-2.7-1.3-2-5.8,1.4-11,.3-15.8-3.3-2.1-1.6-2.7-1.3-2,1.3Z" fill="#fdcea2"/>
    <path d="M117.5,686.5c.8,3.5.2,6.6-2,9.4-1,1.3-.8,1.6.8,1.2,3.5-.8,6.6-.2,9.4,2,1.3,1,1.6.8,1.2-.8-.8-3.5-.2-6.6,2-9.4,1-1.3.8-1.6-.8-1.2-3.5.8-6.6.2-9.4-2-1.3-1-1.6-.8-1.2.8Z" fill="#fdcea2"/>
    <path d="M114.5,707.2c.5,2.2,0,4.3-1.3,6.1-.6.8-.5,1,.5.8,2.2-.5,4.3,0,6.1,1.3.8.6,1,.5.8-.5-.5-2.2,0-4.3,1.3-6.1.6-.8.5-1-.5-.8-2.2.5-4.3,0-6.1-1.3-.8-.6-1-.5-.8.5Z" fill="#fdcea2"/>
  </g>
  <g>
    <path d="M156.6,223.4c-.1,2.4,0,5.9,0,10.4,0,.3.1.7.3,1.3.2.5.3.9.3,1.2,0,.6-.5,1.1-1.5,1.5-.2,0-.5.1-.8.1-1,0-2.1-.3-3.2-.8-1.3-.6-2-1.4-2-2.3s.1-.9.4-1.5c.3-.6.6-1.3.8-1.9v-7.8l-6.1,1.3c0,1.5,0,3.6,0,6.2,0,2.7,0,4,0,4.1,0,.4,0,.9.3,1.7.2.8.3,1.3.3,1.6,0,.6-.2,1.1-.6,1.5-.4.4-1,.6-1.7.6s-1.5-.2-2.2-.6c-.8-.4-1.3-.8-1.5-1.2-.3-.4-.4-.7-.4-.9s.1-.4.4-1c0-1.3,0-3.4,0-6.3,0-2.9,0-4.8,0-5.6,0,0-.4-.7-1.1-1.9-.4-.7-.6-1.3-.5-1.9,0-.3.2-.6.5-.8.3-.2.6-.4.9-.6,0-7.2,0-12,0-14.6-.3-.5-.4-1-.4-1.3,0-.7.5-1.2,1.4-1.7.4-.2,1-.3,1.7-.3,2.4,0,3.8.6,4.3,1.9,0,.2.1.5.1.7,0,.4-.3,1-.8,1.9-.5.8-.8,1.5-.8,2.1-.2,4.8-.2,8.4,0,10.8,3-.5,4.9-.9,5.9-1.2-.3-3.7-.2-8,0-12.9-.3-.8-.4-1.4-.4-1.9,0-.9.6-1.6,1.7-2.2.2-.1.6-.2,1-.2,1.1,0,2.1.3,3.1.8,1.1.6,1.7,1.4,1.8,2.3,0,.4-.2,1-.8,1.6-.6.6-.8,1.2-.8,1.7,0,4.3,0,8,0,11,.5.4,1,1,1.5,1.7.5.8.7,1.4.7,1.9s-.3.8-.8,1.1c-.5.2-1,.5-1.4.7Z" fill="#ef4240"/>
    <path d="M181.3,236.5c-.5,1.5-1.6,2.2-3.3,2.2s-1.1-.1-1.4-.3c-.5-.3-.8-1-1-2-.4-1.7-.7-3.1-1.1-4,0,1.7-1,3.3-2.7,5-1.7,1.7-3.5,2.6-5.2,2.6s-3.7-1.5-4.6-4.4c-.3-1.1-.5-2.1-.5-3.1,0-2.8,1.4-5.2,4.3-7.2,2.4-1.4,4.7-2.8,7.1-4.1.1-.5.2-1,.2-1.5,0-.9-.3-1.5-.8-1.7-.5-.2-1-.2-1.3-.2-.6,0-1.2.2-1.6.6-.4.4-.8.8-1.2,1.2-.4.2-.8.8-1.4,1.7-.5.7-1,1.1-1.5,1.1-.8,0-1.5-.2-2.1-.8-.6-.6-1-1.4-1-2.2s.1-.9.4-1.3c.7-1.1,1.7-2.1,3.1-3,2.1-1.3,4.8-1.9,7.9-1.9s3.4,1,4.2,2.9c.5,1.3.8,3.7,1.1,7.3.3,4.3.6,7.5,1,9.5,0,.4.3.9.8,1.5.5.6.7,1.1.7,1.6s0,.4,0,.6ZM173.4,225.4c-.9.5-1.8,1-2.7,1.5-.9.5-1.7,1.2-2.5,2-1.1,1.2-1.6,2.3-1.6,3.2s.3,1.5.8,2.3c.3.4.6.6,1,.6.8,0,1.6-.9,2.6-2.6.9-1.7,1.7-4.1,2.4-7Z" fill="#ef4240"/>
    <path d="M202,226c0,3.2-.7,6.1-2,8.7-1.5,2.8-3.4,4.3-5.6,4.3s-2.5-1-3.8-2.9v5.8c0,.5.2,1.1.6,1.9.4.8.6,1.3.6,1.7s0,.6-.2.9c-.6,1.4-1.9,2-3.7,2s-2.4-.5-2.8-1.6c-.1-.4-.2-.7-.2-1s0-.8.3-1.3c.2-.6.3-1,.3-1.4v-25.8c0-.3-.1-.7-.4-1.2-.2-.5-.4-.9-.4-1.2s0-.5.2-.8c.4-.8,1.5-1.3,3.3-1.3s2,.2,2.4.7c.2.2.2.4.2.7s0,.5-.2,1c-.2.5-.2.8-.3,1,1.4-2,3-3,4.9-3s4.3,1.4,5.5,4.3c.9,2.2,1.3,5,1.3,8.5ZM196.3,226c0-2.9,0-4.7-.2-5.5-.3-2-1.1-2.9-2.3-2.9s-1.3.9-1.9,2.8c-.6,1.9-.8,3.7-.8,5.6s.3,3,.9,4.9c.6,2,1.2,3,1.8,3s1.3-.9,1.8-2.8c.4-1.6.6-3.3.6-5.1Z" fill="#ef4240"/>
    <path d="M221.5,226c0,3.2-.7,6.1-2,8.7-1.5,2.8-3.4,4.3-5.6,4.3s-2.5-1-3.8-2.9v5.8c0,.5.2,1.1.6,1.9.4.8.6,1.3.6,1.7s0,.6-.2.9c-.6,1.4-1.9,2-3.7,2s-2.4-.5-2.8-1.6c-.1-.4-.2-.7-.2-1s0-.8.3-1.3c.2-.6.3-1,.3-1.4v-25.8c0-.3-.1-.7-.4-1.2-.2-.5-.4-.9-.4-1.2s0-.5.2-.8c.4-.8,1.5-1.3,3.3-1.3s2,.2,2.4.7c.2.2.2.4.2.7s0,.5-.2,1c-.2.5-.2.8-.3,1,1.4-2,3-3,4.9-3s4.3,1.4,5.5,4.3c.9,2.2,1.3,5,1.3,8.5ZM215.8,226c0-2.9,0-4.7-.2-5.5-.3-2-1.1-2.9-2.3-2.9s-1.3.9-1.9,2.8c-.6,1.9-.8,3.7-.8,5.6s.3,3,.9,4.9c.6,2,1.2,3,1.8,3s1.3-.9,1.8-2.8c.4-1.6.6-3.3.6-5.1Z" fill="#ef4240"/>
    <path d="M243.5,215.9c0,.6,0,1.3-.5,1.9-.7,1.1-1.1,1.8-1.1,1.9-1.3,3-3.2,7.9-5.9,14.6-1.2,3.2-2,6.1-2.3,8.6,0,.2,0,.8,0,1.6,0,.7,0,1.2-.3,1.5-.5.6-1.2,1-2.2,1-1.7,0-2.8-.6-3.3-1.9-.1-.3-.2-.6-.2-.9s.1-.6.4-1c.2-.4.4-.7.5-.9l1.1-5.7-6.5-18.7c0-.2-.3-.7-.7-1.5-.3-.5-.4-1-.4-1.4s0-.4,0-.6c.3-1.1,1.3-1.6,3.1-1.6s1.9.2,2.6.5c.8.5,1.2,1.3,1.3,2.4.2,1.9.3,2.9.3,3.1l3,9.4,4.6-11.7c0,0,.2-.8.4-2,.2-.8.5-1.3,1-1.5.3-.2.6-.3,1-.3.9,0,1.7.3,2.6,1,.9.6,1.4,1.4,1.5,2.3Z" fill="#ef4240"/>
    <path d="M276.2,223.1c0,1.9-1,4.1-2.9,6.5-.4.5-2.4,2.5-5.9,6.2-.6,1.1-1.1,2.2-1.7,3.2-.8,1-1.7,1.5-2.7,1.4-2.1-.2-3.8-1.3-5.2-3.2-.5-.6-.7-1.2-.7-1.8s.3-1.2,1-1.7c-.3-1.7-.6-6.2-.9-13.5-.2-6-.3-10.2-.3-12.4-.6-1-1-2-1-3.1s.2-1.4.7-1.9c.3-.3.8-.5,1.4-.5,1.6,0,3,.6,4,1.9,2.9-1.1,5.3-1.6,7.2-1.6s3.5.7,4.2,2c.5.8.7,1.8.7,2.8,0,3.2-1.7,6.5-5.1,10,1.4.4,2.8.8,4.2,1.3,1.3.5,2.1,1.1,2.5,2,.4.8.6,1.7.6,2.6ZM266.5,208.2c-.8,0-2.1.7-4.2,2,0,.3,0,1.2,0,2.6,0,1.5,0,2.5,0,3,1.2-1,2.3-2.3,3.3-3.7,1-1.4,1.5-2.5,1.5-3.2s-.3-.7-.9-.7ZM268.1,222.6c-1.8,0-3.4.7-5,2l.2,6.9c4.3-3.4,6.5-6,6.5-7.6s-.6-1.2-1.7-1.2Z" fill="#ef4240"/>
    <path d="M286.7,215.5c0,.4-.2,1.1-.7,2-.5.9-.7,1.6-.7,2.2v13.3c0,.6.2,1.5.5,2.6.3,1.1.5,1.9.5,2.3,0,.6-.2,1.1-.7,1.4-.8.5-1.6.7-2.4.7s-2-.4-2.4-1.2c-.6-1-1-3.8-1-8.6s0-2.9,0-5.4c0-2.4,0-4.2,0-5.3s0-1-.1-1.7c0-.7-.1-1.2-.1-1.5,0-1,.4-1.9,1.1-2.6.3-.3.9-.5,1.7-.5s1.6.1,2.4.4c.8.3,1.3.6,1.6.9.2.3.3.7.3,1ZM286.1,204.5c0,0,.1.2.1.5s0,.7-.3,1.4c-.2.8-.3,1.4-.4,1.7,0,.3,0,1,0,2,0,.6-.2,1-.6,1.2-.4.2-.9.3-1.4.3-.8,0-1.6-.2-2.5-.5-1-.4-1.5-1-1.5-1.7s0-.5.3-.9c.2-.4.3-.7.3-.9,0-.2,0-.8,0-1.8,0-.8,0-1.3.5-1.5.5-.4,1.3-.5,2.6-.5s2.3.3,2.9.8Z" fill="#ef4240"/>
    <path d="M308.1,215.4c-.1.6-.7,1.1-1.7,1.3-1.2.3-2,.6-2.3,1l-7.4,8.5v6.9c0,.7.2,1.3.6,2,.4.7.6,1.2.6,1.6s-.1.8-.3,1.2c-.5,1.1-1.6,1.7-3.1,1.7s-1.9-.3-2.6-1c-.4-.5-.6-1-.6-1.7s0-.6,0-1.2c0-.5,0-1,0-1.3v-16.9c0-.3-.1-.6-.4-1-.2-.4-.4-.7-.4-1s0-.4.2-.6c.4-.7,1.6-1.1,3.7-1.1s2.5.4,2.7,1.1c0,.3.1.6.1.8,0,.3-.1.6-.4.8s-.4.4-.4.5v1.6c0,0,4-4.1,4-4.1.5-.5.9-1,1.4-1.5.5-.5,1.1-.8,1.7-.9,1,0,2,.1,3,.7,1,.5,1.4,1.3,1.4,2.1s0,.3,0,.5Z" fill="#ef4240"/>
    <path d="M323.8,217.9c-.2,0-.6,0-1.1-.3-.5-.2-.9-.3-1.2-.3s-.4,0-.6.1l-1.7.9v15.5c0,.6.3,1.3.9,2.2.6.9.9,1.6.7,2.2-.2.7-.6,1.2-1.3,1.6-.7.4-1.5.6-2.4.6-1.6,0-2.7-.7-3.3-2.1-.2-.4-.3-1.8-.3-4,0-1.5,0-3.9,0-7.1,0-3.6,0-5.9,0-6.9-.2,0-.5.3-.9.6-.4.3-.8.5-1.3.5s-.8,0-1.3-.3c-2.1-.7-3.2-1.5-3.2-2.2s0-.4.1-.6c.2-.5.6-.8,1.2-.8.9-.1,1.4-.2,1.6-.3.7-.3,2-.9,3.8-1.9v-3.9c0-.3,0-.7-.2-1.2-.2-.5-.2-.9-.2-1.1s0-.5.2-.8c.8-1.2,1.8-1.8,3.2-1.8s2.6.6,3.3,1.8c.2.5.4.9.4,1.2s-.2.7-.5,1.1c-.4.4-.5.8-.5,1.1v2.2c.5-.2,1.1-.6,1.8-1.2.5-.4,1-.6,1.3-.6s.3,0,.5,0c1.9.5,2.9,1.7,2.9,3.4s-.2,1.1-.5,1.6c-.3.5-.8.8-1.3.8Z" fill="#ef4240"/>
    <path d="M346.8,234.6c.2.8.3,1.2.3,1.4,0,.6-.4,1.2-1.1,1.6-.7.4-1.5.6-2.4.6-1.3,0-2.1-.5-2.5-1.4-.2-.4-.2-.7-.2-1,0-.4.2-.8.5-1.3.3-.5.5-.9.5-1.3.4-1.6.5-3.8.5-6.8,0-5.1-.4-7.8-1.1-7.9-.5,0-1.4.8-2.6,2.6-1.3,1.9-2.3,4-3.2,6.4-1,2.8-1.4,5.2-1.3,7.3,0,.2-.1.4-.1.5,0,.3.1.7.4,1.2.2.5.4.9.4,1.2s-.1.6-.3.9c-.8,1.2-1.6,1.8-2.4,1.8s-1.7-.7-2.4-2c-.5-.8-.7-5.3-.7-13.5s0-9.9.2-20.6c0-.2,0-.5,0-.8,0-.4,0-.7,0-.9,0-.3.1-.6.3-.8.3-.6,1-1,2.1-1s1.8.3,2.6.8c.8.5,1.1,1.1.9,1.8,0,.2-.2.4-.4.6-.3.2-.4.5-.4.7v14.6c1.7-3.9,4.3-5.9,7.6-6.2,1.8-.1,3.3,1.2,4.3,4.1,1,2.6,1.5,5.8,1.5,9.5s-.3,5.5-1,7.8Z" fill="#ef4240"/>
    <path d="M367.7,238.2c-.4.8-1.5,1.2-3.3,1.2s-2-.2-2.4-.7c-.2-.2-.2-.4-.2-.6s0-.5.2-1c.2-.5.2-.8.3-1-1.4,2-3,2.9-4.9,2.9s-4.3-1.4-5.5-4.3c-.9-2.2-1.3-5-1.3-8.5s.7-6.1,2-8.7c1.5-2.9,3.4-4.3,5.6-4.3s2.5,1,3.8,3v-5.8c0-.5-.2-1.1-.6-1.9-.4-.8-.6-1.3-.6-1.7s0-.6.2-.9c.6-1.4,1.9-2,3.7-2s2.4.5,2.8,1.6c.1.4.2.7.2,1s0,.8-.3,1.3c-.2.6-.3,1-.3,1.4v25.8c0,.3.1.7.4,1.2.2.5.4.9.4,1.2s0,.5-.2.8ZM361.4,226.2c0-1.4-.3-3-.9-4.9-.6-2-1.3-3-1.9-3s-1.3.9-1.7,2.8c-.3,1.5-.5,3.2-.5,5.1s0,.9,0,1.6v1.7c0,3.4.7,5.1,2.2,5.1s1.3-1,1.9-2.9c.5-1.8.8-3.6.8-5.5Z" fill="#ef4240"/>
    <path d="M391.1,236.5c-.5,1.5-1.6,2.2-3.3,2.2s-1.1-.1-1.4-.3c-.5-.3-.8-1-1-2-.4-1.7-.7-3.1-1.1-4,0,1.7-1,3.3-2.7,5-1.7,1.7-3.5,2.6-5.2,2.6s-3.7-1.5-4.6-4.4c-.3-1.1-.5-2.1-.5-3.1,0-2.8,1.4-5.2,4.3-7.2,2.4-1.4,4.7-2.8,7.1-4.1.1-.5.2-1,.2-1.5,0-.9-.3-1.5-.8-1.7-.5-.2-1-.2-1.3-.2-.6,0-1.2.2-1.6.6l-1.2,1.2c-.4.2-.8.8-1.4,1.7-.5.7-1,1.1-1.5,1.1-.8,0-1.5-.2-2.1-.8-.6-.6-1-1.4-1-2.2s.1-.9.4-1.3c.7-1.1,1.7-2.1,3.1-3,2.1-1.3,4.8-1.9,7.9-1.9s3.4,1,4.2,2.9c.5,1.3.8,3.7,1.1,7.3.3,4.3.6,7.5,1,9.5,0,.4.3.9.8,1.5.5.6.7,1.1.7,1.6s0,.4,0,.6ZM383.3,225.4c-.9.5-1.8,1-2.7,1.5-.9.5-1.7,1.2-2.5,2-1.1,1.2-1.6,2.3-1.6,3.2s.3,1.5.8,2.3c.3.4.6.6,1,.6.8,0,1.6-.9,2.6-2.6.9-1.7,1.7-4.1,2.4-7Z" fill="#ef4240"/>
    <path d="M413,215.9c0,.6,0,1.3-.5,1.9-.7,1.1-1.1,1.8-1.1,1.9-1.3,3-3.2,7.9-5.9,14.6-1.2,3.2-2,6.1-2.3,8.6,0,.2,0,.8,0,1.6,0,.7,0,1.2-.3,1.5-.5.6-1.2,1-2.2,1-1.7,0-2.8-.6-3.3-1.9-.1-.3-.2-.6-.2-.9s.1-.6.4-1c.2-.4.4-.7.5-.9l1.1-5.7-6.5-18.7c0-.2-.3-.7-.7-1.5-.3-.5-.4-1-.4-1.4s0-.4,0-.6c.3-1.1,1.3-1.6,3.1-1.6s1.9.2,2.6.5c.8.5,1.2,1.3,1.3,2.4.2,1.9.3,2.9.3,3.1l3,9.4,4.6-11.7c0,0,.2-.8.4-2,.2-.8.5-1.3,1-1.5.3-.2.6-.3,1-.3.9,0,1.8.3,2.6,1s1.4,1.4,1.5,2.3Z" fill="#ef4240"/>
    <path d="M423,204c0,.2,0,.4,0,.6,0,.3-.1.7-.3,1.3-.2.6-.3,1.1-.3,1.5v15c0,.5.1,1.1.3,1.9.2.8.3,1.3.3,1.7,0,.6-.2,1-.7,1.4-.5.3-1.1.5-1.8.5-1.6,0-2.8-.5-3.6-1.6-.3-.4-.4-.8-.4-1.2s0-.4,0-.8c0-.4,0-.7,0-1-.3-3.8-.4-7.7-.4-11.7s.2-8.1.7-8.6c.3-.4,1.1-.6,2.3-.6,2.2,0,3.4.6,3.7,1.7ZM423,232.5c.2.3.2.7.2,1.1s0,.7-.2,1.3c-.1.6-.2,1.1-.2,1.4,0,0,0,.4.1,1.4,0,.5,0,1-.3,1.3-.3.5-1,.8-1.9.8-1.6,0-2.8-.5-3.6-1.6-.2-.3-.3-.8-.3-1.4s0-.8,0-1.6c0-.8,0-1.4,0-1.9,0,0,0-.4-.1-1,0-.4,0-.7,0-1,.2-.6.9-.9,2-.9,2.1,0,3.4.6,3.9,1.9Z" fill="#ef4240"/>
    <g>
      <polygon points="241.5 346.9 252.6 343.1 244.2 339.1 241.5 346.9" fill="#f7b600"/>
      <polygon points="273.9 314.9 258.1 299 255.6 306.4 273.9 314.9" fill="#ffdd7d"/>
      <polygon points="255.6 306.4 252.7 314.6 287.6 330.8 289.2 330.3 273.9 314.9 255.6 306.4" fill="#f7b600"/>
      <polygon points="249.9 322.8 275.9 334.9 287.6 330.8 252.7 314.6 249.9 322.8" fill="#ffdd7d"/>
      <polygon points="247 330.9 264.3 339 275.9 334.9 249.9 322.8 247 330.9" fill="#f7b600"/>
      <polygon points="247 330.9 244.2 339.1 252.6 343.1 264.3 339 247 330.9" fill="#ffdd7d"/>
      <path d="M280.4,308.2c8.8,8.6,13.3,18.2,10.1,21.3-3.2,3.1-12.9-1.3-21.7-10-8.8-8.6-13.3-18.2-10.1-21.3,3.2-3.1,12.9,1.3,21.7,10Z" fill="#493816"/>
      <path d="M269.4,286.4c-2.1-2.9.2-4.3,3-3.7-2.7-3.3-1-5.6,3.2-4.7,1.3.3-.5,2.5-1.7,2.4,3.6,2.7,1.6,5.5-2.2,4.8,3.3,4.6-2.4,3.4-4.9,3.6-.7,3.4,3.3,7.3,2,7.3-2.9,0-7.6-10.8.6-9.8Z" fill="#42ade2"/>
      <path d="M296.8,292.7c-1.9.9-7.4-7.7-.7-7.8-3.9-3.5-3.4-5.2,1.8-5.3-6-6,3.5-8.1,4.4-4.9.3,1-2.9-.8-3.9.9-1.2,2,7.3,7-1.5,6.7,3.2,3.3,3.4,4.8-1.7,5.4.7.9,2.7,4.6,1.5,5.1Z" fill="#ff8736"/>
      <path d="M299,313l2-1.7s1.9,2.7,3.2,3.7c1-4.6.7-7.4,6.1-4.2-3.1-8.1,2-5,6.7-2.8-.3-2,0-1.8,2.1-2.4,1.8,6.9-3.1,4.9-7.1,2.6,2.3,6.2-.1,5.9-5.1,3.8,0,2.6-.9,5.6-2.5,5.8-1.8.3-5.4-4.8-5.4-4.8Z" fill="#ed4c5c"/>
      <path d="M284.4,293.7c-2.4,3.1-6.1,4.9-8.8,7.6-2.9,2.8-4.6,10.7-4.6,10.7,0,0,1-8.2,3.8-11.3,2.5-2.8,6.1-4.9,8-8.2,3.5-5.9.4-13.8-4-18.3.9-.8,2.2-1.9,2.9-2.6,4.2,5.3,7.8,15.6,2.8,22.2Z" fill="#c28fef"/>
      <path d="M288.4,300.3c-3.4,2.5-5.8,6.1-8.2,9.5-2.1,3-8.7,6.7-8.7,6.7,0,0,6.3-4.2,8.1-7.4,2.3-3.9,4.6-7.9,8.3-10.8,7.3-5.7,17.8-5,26-2-.5,1.2-1.4,3.7-1.4,3.7,0,0-17.2-4.6-24.1.4Z" fill="#ff8736"/>
      <path d="M302.9,299.7c-2.2,2.9-3.3,6.4-5,9.6-1.6,3-3.6,5.8-6.7,7.4-3.3,1.7-10.8,1.1-10.8,1.1,0,0,7.5,0,10.5-2.2,3.1-2.1,4.8-5.7,6-9.1,2.3-6.4,5.2-13.5,12-16.4.5,1.2,1.4,3.7,1.4,3.7,0,0-3.7,1-7.4,5.8Z" fill="#42ade2"/>
      <rect x="244.1" y="283.5" width="5.2" height="5.2" transform="translate(-130.1 258.3) rotate(-45)" fill="#42ade2"/>
      <rect x="249.3" y="295.2" width="5.2" height="5.2" transform="translate(-136.8 265.3) rotate(-45)" fill="#ff8736"/>
      <rect x="258.7" y="277.8" width="5.2" height="5.2" transform="translate(-121.7 266.9) rotate(-45)" fill="#ed4c5c"/>
      <rect x="298.7" y="321.8" width="5.2" height="5.2" transform="translate(-141.1 308.1) rotate(-45)" fill="#c28fef"/>
      <rect x="290.5" y="334.4" width="5.2" height="5.2" transform="translate(-152.4 306) rotate(-45)" fill="#ed4c5c"/>
      <rect x="306.7" y="337.3" width="5.2" height="5.2" transform="translate(-149.8 318.2) rotate(-45)" fill="#ff8736"/>
      <rect x="310.3" y="320.5" width="5.2" height="5.2" transform="translate(-136.8 315.9) rotate(-45)" fill="#42ade2"/>
      <rect x="304.2" y="281.7" width="5.2" height="5.2" transform="translate(-111.2 300.2) rotate(-45)" fill="#42ade2"/>
      <rect x="264.7" y="303.8" width="5.2" height="5.2" transform="translate(-138.4 278.8) rotate(-45)" fill="#ed4c5c"/>
    </g>
    <path d="M207.2,353.9c.3.4.4.9.4,1.2s-.1.8-.4,1.3c-.4.6-.6,1.1-.7,1.4l-5.8,19.1c-.2.5-.3,1.2-.3,2s0,.8,0,1.5c0,.6,0,1.1,0,1.4,0,1.4-.5,2.5-1.4,3-1,.6-2,.9-3,.9s-2.7-.5-3.7-1.5c-.7-.6-1-1.4-1-2.3s0-.8.1-1.4c0-.6.1-1.1.1-1.5s0-.9-.2-1.2l-3.4-11.9-4,13.9c0,.3,0,.7.4,1.1.4.4.5.8.5,1.1,0,2.1-.6,3.8-1.6,5.1-.5.6-1.3.9-2.2.9-1.4,0-2.5-.5-3.2-1.6-.2-.4-.4-.8-.4-1.3,0-.8,0-1.3-.1-1.5l-5.7-24.4c0-.3-.2-.7-.5-1.2-.2-.4-.4-.8-.4-1.1,0-.7.4-1.3,1.2-1.8.7-.4,1.4-.6,2.2-.6s1.5.2,2.1.6c.5.3.7.9.8,1.6,0,.7.1,1.5.2,2.2l2.8,15.2,4.5-16.3c0-.2,0-.5,0-.9-.1-.4-.2-.6-.2-.8,0-.3.1-.7.4-1.1.5-.7,1.4-1,2.7-1s2.7.5,3.5,1.4c.3.4.4.7.4,1.1s0,.5-.1.8c0,.4-.1.6-.1.8s0,.4,0,.5l4.4,15.4,4.8-16.1c0-.2.1-.9.2-2.2,0-.9.3-1.5.8-1.8.9-.7,1.9-1,3.1-1s2.1.4,2.6,1.3Z" fill="#222"/>
    <path d="M215.3,365.6c0,.4-.2.9-.6,1.7-.4.8-.6,1.4-.6,1.9v11.5c0,.5.1,1.3.4,2.2.3,1,.4,1.6.4,2,0,.5-.2.9-.6,1.2-.7.4-1.4.6-2.1.6s-1.7-.3-2.1-1c-.5-.8-.8-3.3-.8-7.5s0-2.5,0-4.7,0-3.6,0-4.6,0-.8-.1-1.4c0-.6-.1-1-.1-1.3,0-.9.3-1.6.9-2.2.3-.3.7-.4,1.5-.4s1.4.1,2.1.3c.7.2,1.2.5,1.4.8.2.3.3.6.3.9ZM214.8,356c0,0,.1.2.1.4s0,.6-.2,1.2c-.2.7-.3,1.2-.4,1.5,0,.3,0,.8,0,1.7,0,.5-.2.9-.5,1.1-.3.2-.7.3-1.2.3-.7,0-1.4-.1-2.2-.4-.9-.4-1.3-.9-1.3-1.5s0-.4.2-.8.2-.6.3-.8c0-.2,0-.7,0-1.6,0-.7,0-1.1.4-1.3.4-.3,1.2-.5,2.2-.5s2,.2,2.5.7Z" fill="#222"/>
    <path d="M231,380.2c0,1.8-.7,3.4-2,4.7-1.3,1.3-2.9,1.9-4.6,1.9s-2.3-.5-3.5-1.6c-.9-.9-1.8-1.9-2.6-3.2-.7-1.1-.9-1.8-.9-2.1.3-.7,1.2-1,2.7-1s1.1,0,1.5.3c.6.3,1,.8,1.1,1.3,0,.6.2,1,.4,1.1.5.8,1,1.3,1.5,1.3s.7-.2,1-.7c.3-.5.5-1,.5-1.6s0-.8-.2-1.2c-.1-.4-.8-1-2.1-1.8-1.5-1-2.6-1.8-3.3-2.6-1.1-1.3-1.7-2.7-1.7-4.4s.6-3.7,1.7-5.2c1.2-1.5,2.6-2.2,4.4-2.2s3.2.7,4.2,2.1c.8,1.1,1.1,2.3,1,3.4.3.3.4.8.4,1.6s-.3,1.5-.9,2c-.6.5-1.2.8-1.8.8-.9,0-1.7-.6-2.3-1.8-.2-.3-.3-.7-.3-1.3s0-.6,0-1c0-.4,0-.7,0-.9,0-.7-.2-1-.7-1-.8,0-1.1.7-1.1,2.2s.5,2.7,1.5,3.7c.4.4,1.2.9,2.6,1.6,1.1.6,1.9,1.2,2.4,1.8.7.9,1.1,2.2,1.1,3.7Z" fill="#222"/>
    <path d="M250,382.2c.2.7.2,1.1.2,1.3,0,.5-.3,1-1,1.4-.6.4-1.3.5-2.1.5-1.1,0-1.8-.4-2.2-1.3-.1-.3-.2-.6-.2-.9,0-.3.2-.7.5-1.1.3-.4.5-.8.5-1.1.3-1.4.5-3.3.5-5.9,0-4.4-.3-6.7-.9-6.8-.5,0-1.2.7-2.3,2.2-1.1,1.6-2,3.5-2.7,5.5-.9,2.4-1.2,4.5-1.1,6.4,0,.2-.1.3-.1.5,0,.2.1.6.3,1,.2.4.3.8.3,1s0,.5-.3.7c-.7,1-1.4,1.5-2.1,1.5s-1.4-.6-2.1-1.7c-.4-.7-.6-4.6-.6-11.7s0-8.6.2-17.9c0-.2,0-.4,0-.7,0-.3,0-.6,0-.8,0-.3.1-.5.2-.7.3-.5.9-.8,1.8-.8s1.6.2,2.3.7c.7.4,1,1,.8,1.6,0,.2-.2.3-.4.5-.2.2-.3.4-.3.6v12.6c1.5-3.4,3.7-5.1,6.6-5.3,1.6-.1,2.8,1.1,3.8,3.5.9,2.3,1.3,5,1.3,8.3s-.3,4.8-.8,6.8Z" fill="#222"/>
    <path d="M259.8,365.6c0,.4-.2.9-.6,1.7-.4.8-.6,1.4-.6,1.9v11.5c0,.5.1,1.3.4,2.2.3,1,.4,1.6.4,2,0,.5-.2.9-.6,1.2-.7.4-1.4.6-2.1.6s-1.7-.3-2.1-1c-.5-.8-.8-3.3-.8-7.5s0-2.5,0-4.7,0-3.6,0-4.6,0-.8-.1-1.4c0-.6-.1-1-.1-1.3,0-.9.3-1.6.9-2.2.3-.3.7-.4,1.5-.4s1.4.1,2.1.3c.7.2,1.2.5,1.4.8.2.3.3.6.3.9ZM259.3,356c0,0,.1.2.1.4s0,.6-.2,1.2c-.2.7-.3,1.2-.4,1.5,0,.3,0,.8,0,1.7,0,.5-.2.9-.5,1.1-.3.2-.7.3-1.2.3-.7,0-1.4-.1-2.2-.4-.9-.4-1.3-.9-1.3-1.5s0-.4.2-.8.2-.6.3-.8c0-.2,0-.7,0-1.6,0-.7,0-1.1.4-1.3.4-.3,1.2-.5,2.2-.5s2,.2,2.5.7Z" fill="#222"/>
    <path d="M281,383c0,.6-.4,1.1-1.1,1.5-.7.4-1.5.6-2.4.6-1.3,0-2.2-.4-2.6-1.2.2-8.1,0-12.1-.7-12.2-.7-.1-2.3,3.5-4.8,10.8v2.4c0,.9-.3,1.6-.8,2-.5.4-1,.6-1.6.6-.9,0-2-.5-3-1.5-.3-.3-.5-2.3-.5-6,0,2.3,0-1.9,0-12.7s0-.6,0-1c0-.4,0-.7,0-.9,0-.5.1-.9.4-1.3.3-.5.8-.7,1.5-.7s1.4.2,2.2.6c.8.4,1.2.8,1.4,1.2.1.3.2.5.2.8s-.1.6-.3,1.1-.3.9-.3,1.2v5.4c1.6-3.5,2.9-5.8,3.7-6.9,1.5-1.9,3.2-2.8,5.1-2.7,1.1,0,1.9,1.1,2.4,3.1.4,1.5.6,3.8.6,6.8v7.1c0,.2.2.5.5,1,.2.3.3.6.2,1Z" fill="#222"/>
    <path d="M297.5,364.6c0,2.3.2,6,.4,11.1.1,3.6.2,6.2.2,7.8,0,3.5-.3,5.8-.8,7.1-.5,1.3-1.7,1.9-3.3,2.1-2.1.2-3.9-.4-5.5-1.6-.8-.2-1.3-.4-1.5-.5-.4-.3-.7-.7-.9-1.3-.2-1.2.7-1.8,2.9-1.8s1.1,0,1.6.2c.4,0,.8.4,1.2.9.4.5.9.8,1.3.8.8,0,1.1-1,1.1-3.2s0-2.5-.2-4.6c-.9,1.6-1.6,2.6-2,3.1-.9.9-1.9,1.3-3,1.3s-2.9-1.1-3.9-3.4c-.9-2.1-1.4-4.6-1.4-7.5s.5-5.6,1.5-7.7c1.1-2.4,2.6-3.6,4.6-3.6,1,0,1.8.2,2.3.6.5.4,1,.9,1.5,1.4-.3-.9-.3-1.6.2-2.1.3-.3.7-.4,1.3-.4s1.1.1,1.6.4c.5.3.9.6,1.1,1.1ZM292.8,374.6c.1-1.5,0-3-.5-4.3-.5-1.5-1.2-2.3-2-2.3s-1.3.8-1.8,2.3c-.5,1.4-.7,2.8-.8,4.3,0,1.6,0,3,.4,4.3.4,1.5.9,2.3,1.5,2.3s1.2-.7,2-2.2c.8-1.5,1.2-2.9,1.3-4.4Z" fill="#222"/>
    <path d="M327.3,365.9c0,.5,0,1.1-.4,1.7-.6,1-.9,1.5-.9,1.6-1.1,2.6-2.8,6.8-5.1,12.6-1,2.8-1.7,5.3-2,7.5,0,.2,0,.7,0,1.4,0,.6,0,1-.3,1.3-.4.5-1,.8-1.9.8-1.5,0-2.5-.6-2.9-1.7-.1-.3-.2-.5-.2-.7s.1-.6.3-.9c.2-.3.3-.6.4-.8l.9-4.9-5.7-16.3c0-.2-.3-.6-.6-1.3-.2-.5-.4-.9-.4-1.2s0-.4,0-.5c.3-.9,1.2-1.4,2.7-1.4s1.7.2,2.2.5c.7.4,1,1.1,1.1,2.1.1,1.6.2,2.5.3,2.7l2.6,8.2,4-10.1c0,0,.1-.7.4-1.7.1-.7.4-1.1.8-1.3.3-.2.6-.2.9-.2.8,0,1.5.3,2.3.8.8.6,1.2,1.2,1.3,2Z" fill="#222"/>
    <path d="M341.3,365.2c1.8,1.8,2.6,4.8,2.6,9s-.6,6.1-1.8,8.4c-1.4,2.6-3.3,3.9-5.7,3.9s-4.3-1.2-5.6-3.5c-1.2-2-1.7-4.6-1.7-7.8s.4-5.3,1.3-7.5c.9-2.4,2.1-3.7,3.6-4.2.8-.2,1.5-.3,2.4-.3,2,0,3.7.7,4.9,2ZM336.8,367.1c-.9,0-1.6.7-2.2,2.4-.5,1.5-.8,3.2-.8,4.9,0,2.5.1,4.2.3,5.2.4,1.8,1.1,2.8,2.3,3,.7.1,1.4-.9,2-3,.6-2,.9-4.2.9-6.6,0-3.8-.8-5.8-2.5-6Z" fill="#222"/>
    <path d="M361.8,366.3c0,.4,0,.8-.2,1.3-.3.6-.4,1-.5,1.3,0,5.4-.2,9.2-.7,11.3-1,4.4-3,6.7-6.2,6.7-4.6,0-6.9-4.2-6.9-12.5s.2-4.6.5-7.1c-.2-.6-.3-1.1-.3-1.6,0-.8.2-1.4.7-1.9.4-.4,1-.7,1.8-.7s1.3.1,1.8.4.9.6,1,1c0,.2,0,.4,0,.5,0,.3-.1.9-.4,1.6-.3.7-.4,1.4-.4,1.8-.3,1.5-.4,3.3-.4,5.5s.1,4.1.4,5.6c.4,1.7.9,2.6,1.5,2.6,1.1,0,1.8-1.9,2.2-5.6.2-1.9.3-4.8.3-8.9s0-.6-.1-1.1c0-.5-.1-.9-.1-1.1,0-.6.2-1.1.7-1.3.3-.1.6-.2,1.1-.2.9,0,1.7.2,2.4.5.9.4,1.3,1,1.5,1.8Z" fill="#222"/>
    <path d="M389.8,383.8c-.4,1.3-1.4,1.9-2.9,1.9s-.9,0-1.3-.3c-.4-.3-.7-.9-.9-1.7-.3-1.5-.6-2.7-.9-3.5,0,1.4-.9,2.9-2.4,4.4-1.5,1.5-3,2.2-4.5,2.2s-3.2-1.3-4-3.8c-.3-.9-.4-1.8-.4-2.7,0-2.4,1.2-4.5,3.7-6.2,2-1.2,4.1-2.4,6.2-3.6.1-.4.2-.9.2-1.3,0-.8-.2-1.3-.7-1.4-.4-.1-.8-.2-1.1-.2-.5,0-1,.2-1.4.5-.4.4-.7.7-1,1-.3.2-.7.7-1.2,1.5-.4.6-.8.9-1.3,1-.7,0-1.3-.2-1.8-.7-.5-.5-.8-1.2-.8-1.9s.1-.8.3-1.1c.6-1,1.5-1.9,2.7-2.6,1.8-1.1,4.1-1.6,6.9-1.6s3,.8,3.6,2.5c.4,1.1.7,3.2.9,6.3.2,3.7.5,6.5.9,8.2,0,.3.3.8.7,1.3.4.5.6,1,.6,1.4s0,.4,0,.5ZM383,374.2c-.8.4-1.6.9-2.3,1.3-.8.4-1.5,1-2.1,1.8-.9,1.1-1.4,2-1.4,2.7s.2,1.3.7,2c.3.4.5.5.9.5.7,0,1.4-.8,2.2-2.3.8-1.5,1.5-3.5,2.1-6Z" fill="#222"/>
    <path d="M151.8,411.1c0,.2.1.4.1.6,0,.4-.2.9-.7,1.5-.6.7-.9,1.3-1.1,1.6l-4.3,13c-.1.4-.2.9-.2,1.5v.9c0,.4,0,.6,0,.8,0,1-.3,1.7-1,2.2-.7.5-1.4.7-2.2.7-1.3,0-2.3-.5-3.1-1.4-.4-.5-.6-1-.6-1.6,0-.9,0-1.5,0-1.7l-2.4-8.7-2.3,7.9c0,.3-.1.8-.2,1.6,0,.7-.2,1.2-.4,1.6-1,1.6-2.2,2.4-3.7,2.4s-1-.1-1.4-.4c-.5-.3-.8-.9-.9-1.6-.1-.7-.2-1.4-.3-2.1l-3.5-13.4c0-.3-.3-1-.7-1.9-.3-.7-.5-1.3-.5-1.8s0-.7.2-1c.2-.7,1.2-1.1,2.8-1.1s1.5.1,1.8.4c.4.3.6.9.6,1.6,0,1.2,0,1.8,0,1.9l2.4,9.4,3.3-9.7c0-.2,0-.4,0-.5s0-.4,0-.7c0-.3,0-.5,0-.7,0-.6.3-1,.9-1.3.5-.3,1.1-.4,1.7-.4s1.6.2,2.2.6c.7.5,1.1,1.2,1.2,2,0,.8.1,1.6.2,2.5l2.4,9.4,3.8-11.3c0-.2,0-.3,0-.5s0-.5-.1-.8c0-.4-.1-.6-.1-.8s0-.5.2-.7c.4-.7,1.4-1.1,3.1-1.1s2.5.4,2.8,1.1Z" fill="#222"/>
    <path d="M164.6,412.3c1.8,1.8,2.6,4.8,2.6,9s-.6,6.1-1.8,8.4c-1.4,2.6-3.3,3.9-5.7,3.9s-4.3-1.2-5.6-3.5c-1.2-2-1.7-4.6-1.7-7.8s.4-5.3,1.3-7.5c.9-2.4,2.1-3.7,3.6-4.2.8-.2,1.5-.3,2.4-.3,2,0,3.7.7,4.9,2ZM160.1,414.2c-.9,0-1.6.7-2.2,2.4-.5,1.5-.8,3.2-.8,4.9,0,2.5.1,4.2.3,5.2.4,1.8,1.1,2.8,2.3,3,.7.1,1.4-.9,2-3,.6-2,.9-4.2.9-6.6,0-3.8-.8-5.8-2.5-6Z" fill="#222"/>
    <path d="M188.3,430.1c0,.6-.4,1.1-1.1,1.5-.7.4-1.5.6-2.4.6-1.3,0-2.2-.4-2.6-1.2.2-8.1,0-12.1-.7-12.2-.7-.1-2.3,3.5-4.8,10.8v2.4c0,.9-.3,1.6-.8,2-.5.4-1,.6-1.6.6-.9,0-2-.5-3-1.5-.3-.3-.5-2.3-.5-6,0,2.3,0-1.9,0-12.7s0-.6,0-1c0-.4,0-.7,0-.9,0-.5.1-.9.4-1.3.3-.5.8-.7,1.5-.7s1.4.2,2.2.6c.8.4,1.2.8,1.4,1.2.1.3.2.5.2.8s-.1.6-.3,1.1c-.2.5-.3.9-.3,1.2v5.4c1.6-3.5,2.9-5.8,3.7-6.9,1.5-1.9,3.2-2.8,5.1-2.7,1.1,0,1.9,1.1,2.4,3.1.4,1.5.6,3.8.6,6.8v7.1c0,.2.2.5.5,1,.2.3.3.6.2,1Z" fill="#222"/>
    <path d="M205.7,432.3c-.3.7-1.3,1.1-2.9,1.1s-1.7-.2-2-.6c-.1-.1-.2-.3-.2-.5s0-.5.2-.9c.1-.4.2-.7.2-.9-1.2,1.7-2.6,2.6-4.2,2.6s-3.8-1.2-4.8-3.7c-.8-1.9-1.1-4.3-1.1-7.3s.6-5.3,1.8-7.6c1.3-2.5,2.9-3.7,4.8-3.7s2.2.9,3.3,2.6v-5.1c0-.4-.2-1-.5-1.6-.3-.7-.5-1.2-.5-1.5s0-.5.2-.8c.5-1.2,1.6-1.8,3.2-1.8s2.1.5,2.4,1.4c.1.3.2.6.2.9s0,.7-.3,1.2c-.2.5-.3.9-.3,1.2v22.4c0,.3.1.6.3,1,.2.4.3.7.3,1s0,.4-.2.7ZM200.3,422c0-1.2-.2-2.6-.7-4.2-.5-1.7-1.1-2.6-1.6-2.6s-1.1.8-1.5,2.4c-.3,1.3-.4,2.8-.4,4.4s0,.8,0,1.4v1.5c0,3,.6,4.4,1.9,4.4s1.2-.9,1.6-2.6c.5-1.6.7-3.2.7-4.8Z" fill="#222"/>
    <path d="M222.3,428.5c-.2,1-.9,2.1-2.1,3.2-.2.3-.9.7-2.2,1.1-1.4.5-2.7.8-3.7.7-2-.1-3.5-1.3-4.6-3.4-1-2-1.5-4.4-1.5-7.2s.6-5.8,1.7-8.1c1.3-2.6,3-4,5.1-4.3.4,0,.8,0,1.2,0,3.1,0,4.8,1.9,5.1,5.7.2,1.8-.5,3.7-2.1,5.7-1.7,2.3-3.8,3.9-6.4,4.8.3,1,.5,1.7.7,2,.4.7.9,1,1.5,1s1.2-.2,1.9-.7c.6-.4,1-.8,1.2-1.1.1,0,.2-.3.3-.9.1-.5.4-.9.8-1.2.2,0,.3-.1.5-.1.6,0,1.2.3,1.8.9s.8,1.2.7,1.9ZM216.2,414.6c-1,0-1.9.7-2.6,2.2-.9,2-1.2,4-1.1,5.9,1.2-.4,2.4-1.3,3.4-2.7,1-1.4,1.6-2.7,1.6-3.8s-.5-1.5-1.4-1.5Z" fill="#222"/>
    <path d="M240.3,412.6c-.1.5-.6.9-1.5,1.1-1,.3-1.7.6-2,.9l-6.4,7.4v6c0,.6.2,1.2.5,1.7.3.6.5,1,.5,1.4s0,.7-.3,1.1c-.4,1-1.3,1.5-2.7,1.5s-1.7-.3-2.2-.9c-.4-.4-.5-.9-.5-1.5s0-.5,0-1c0-.5,0-.9,0-1.1v-14.7c0-.2-.1-.5-.3-.9-.2-.3-.3-.6-.3-.8s0-.3.2-.5c.3-.6,1.4-.9,3.2-.9s2.2.3,2.4,1c0,.3.1.5.1.7,0,.3-.1.5-.3.7-.2.2-.3.3-.3.5v1.4c0,0,3.5-3.6,3.5-3.6.4-.4.8-.9,1.2-1.3.4-.4.9-.7,1.5-.7.9,0,1.7.1,2.6.6.8.5,1.2,1.1,1.2,1.8s0,.3,0,.4Z" fill="#222"/>
    <path d="M256.2,414c-.2.7-.7,1.1-1.4,1.1-.7,0-1.4.1-2.1.2l-2.8.8v12.8c0,.7.2,1.3.7,1.9.5.6.7,1.1.7,1.4s0,.4-.1.5c-.4.9-1.1,1.4-2.3,1.4s-1.5-.2-2.1-.6c-.6-.4-1-.8-1.2-1.4-.2-.7-.2-1.5-.2-2.6v-12.2c-.5.2-1.1.3-1.6.2-1.8-.2-2.7-1-2.7-2.2s.1-.8.4-1.2c.2-.3.6-.5,1.4-.6,1.2-.2,2-.4,2.4-.5,0-3.9.4-6.7,1-8.4.9-2.4,2.6-4,5.1-4.8.2,0,.4,0,.6,0,.7,0,1.5.2,2.3.7.8.5,1.2.9,1.1,1.3-.1.5-.6,1-1.4,1.2-1,.3-1.6.7-2,1.1-.9,1.2-1.6,2.4-1.8,3.6-.2,1-.3,2.4-.3,4.2.2,0,.8-.2,1.9-.6.7-.2,1.3-.3,1.9-.3.7,0,1.3.3,1.8.8.6.5.8,1.1.8,1.7s0,.4,0,.5Z" fill="#222"/>
    <path d="M273.3,413.4c0,.4,0,.8-.2,1.3-.3.6-.4,1-.5,1.3,0,5.4-.2,9.2-.7,11.3-1,4.5-3,6.7-6.2,6.7-4.6,0-6.9-4.2-6.9-12.5s.2-4.6.5-7.1c-.2-.6-.3-1.1-.3-1.6,0-.8.2-1.4.7-1.9.4-.4,1-.7,1.8-.7s1.3.1,1.8.4c.6.3.9.6,1,1,0,.2,0,.4,0,.5,0,.3-.1.9-.4,1.6-.3.7-.4,1.4-.4,1.8-.3,1.5-.4,3.3-.4,5.5s.1,4.1.4,5.6c.4,1.7.9,2.6,1.5,2.6,1.1,0,1.8-1.9,2.2-5.6.2-1.9.3-4.8.3-8.9s0-.6-.1-1.1c0-.5-.1-.9-.1-1.1,0-.6.2-1.1.7-1.3.3-.1.6-.2,1.1-.2.9,0,1.7.2,2.4.5.9.4,1.3,1,1.5,1.8Z" fill="#222"/>
    <path d="M282.3,432.8c-.5,1-1.5,1.5-2.9,1.5s-2.2-.4-2.7-1.3c-.2-.3-.2-.5-.2-.9s0-.7.3-1.3c.2-.6.3-1.1.3-1.5l-.2-25.4v-2.1c0-.3.4-.6,1.1-.8.7-.2,1.3-.3,2.1-.3,1.1,0,1.8.2,2,.6.3.4.4.8.4,1.2s-.1.8-.3,1.4c-.2.7-.3,1.2-.3,1.6v23.6c0,.4.1.9.3,1.6.2.6.3,1.1.3,1.4s0,.5-.2.8Z" fill="#222"/>
    <path d="M308.7,432.3c-.3.7-1.3,1.1-2.9,1.1s-1.7-.2-2-.6c-.1-.1-.2-.3-.2-.5s0-.5.2-.9.2-.7.2-.9c-1.2,1.7-2.6,2.6-4.2,2.6s-3.8-1.2-4.8-3.7c-.8-1.9-1.1-4.3-1.1-7.3s.6-5.3,1.8-7.6c1.3-2.5,2.9-3.7,4.8-3.7s2.2.9,3.3,2.6v-5.1c0-.4-.2-1-.5-1.6-.3-.7-.5-1.2-.5-1.5s0-.5.2-.8c.5-1.2,1.6-1.8,3.2-1.8s2.1.5,2.4,1.4c.1.3.2.6.2.9s0,.7-.3,1.2c-.2.5-.3.9-.3,1.2v22.4c0,.3.1.6.3,1,.2.4.3.7.3,1s0,.4-.2.7ZM303.3,422c0-1.2-.2-2.6-.7-4.2-.5-1.7-1.1-2.6-1.6-2.6s-1.1.8-1.5,2.4c-.3,1.3-.4,2.8-.4,4.4s0,.8,0,1.4v1.5c0,3,.6,4.4,1.9,4.4s1.2-.9,1.6-2.6c.5-1.6.7-3.2.7-4.8Z" fill="#222"/>
    <path d="M329.1,430.9c-.4,1.3-1.4,1.9-2.9,1.9s-.9,0-1.3-.3c-.4-.3-.7-.9-.9-1.7-.3-1.5-.6-2.7-.9-3.5,0,1.4-.9,2.9-2.4,4.4-1.5,1.5-3,2.2-4.5,2.2s-3.2-1.3-4-3.8c-.3-.9-.4-1.8-.4-2.7,0-2.4,1.2-4.5,3.7-6.2,2-1.2,4.1-2.4,6.2-3.6.1-.4.2-.9.2-1.3,0-.8-.2-1.3-.7-1.4s-.8-.2-1.1-.2c-.5,0-1,.2-1.4.5-.4.4-.7.7-1,1-.3.2-.7.7-1.2,1.5-.4.6-.8.9-1.3,1-.7,0-1.3-.2-1.8-.7-.5-.5-.8-1.2-.8-1.9s.1-.8.3-1.1c.6-1,1.5-1.9,2.7-2.6,1.8-1.1,4.1-1.6,6.9-1.6s3,.8,3.6,2.5c.4,1.1.7,3.2.9,6.3.2,3.7.5,6.5.9,8.2,0,.3.3.8.7,1.3.4.5.6,1,.6,1.4s0,.4,0,.5ZM322.2,421.3c-.8.4-1.6.9-2.3,1.3-.8.4-1.5,1-2.1,1.8-.9,1.1-1.4,2-1.4,2.7s.2,1.3.7,2c.3.4.5.5.9.5.7,0,1.4-.8,2.2-2.3.8-1.5,1.5-3.5,2.1-6Z" fill="#222"/>
    <path d="M348,413c0,.5,0,1.1-.4,1.7-.6,1-.9,1.5-.9,1.6-1.1,2.6-2.8,6.8-5.1,12.6-1,2.8-1.7,5.3-2,7.5,0,.2,0,.7,0,1.4,0,.6,0,1-.3,1.3-.4.5-1,.8-1.9.8-1.5,0-2.5-.6-2.9-1.7-.1-.3-.2-.5-.2-.7s.1-.6.3-.9c.2-.3.3-.6.4-.8l.9-4.9-5.7-16.3c0-.2-.3-.6-.6-1.3-.2-.5-.4-.9-.4-1.2s0-.4,0-.5c.3-.9,1.2-1.4,2.7-1.4s1.7.2,2.2.5c.7.4,1,1.1,1.1,2.1.1,1.6.2,2.5.3,2.7l2.6,8.2,4-10.1c0,0,.1-.7.4-1.7.1-.7.4-1.1.8-1.3.3-.2.6-.2.9-.2.8,0,1.5.3,2.3.8.8.6,1.2,1.2,1.3,2Z" fill="#222"/>
    <path d="M373.2,414c-.2.7-.7,1.1-1.4,1.1-.7,0-1.4.1-2.1.2l-2.8.8v12.8c0,.7.2,1.3.7,1.9s.7,1.1.7,1.4,0,.4-.1.5c-.4.9-1.1,1.4-2.3,1.4s-1.5-.2-2.1-.6c-.6-.4-1-.8-1.2-1.4-.2-.7-.2-1.5-.2-2.6v-12.2c-.5.2-1.1.3-1.6.2-1.8-.2-2.7-1-2.7-2.2s.1-.8.4-1.2c.2-.3.6-.5,1.4-.6,1.2-.2,2-.4,2.4-.5,0-3.9.4-6.7,1-8.4.9-2.4,2.6-4,5.1-4.8.2,0,.4,0,.6,0,.7,0,1.5.2,2.3.7.8.5,1.2.9,1.1,1.3-.1.5-.6,1-1.4,1.2-1,.3-1.6.7-2,1.1-.9,1.2-1.6,2.4-1.8,3.6-.2,1-.3,2.4-.3,4.2.2,0,.8-.2,1.9-.6.7-.2,1.3-.3,1.9-.3.7,0,1.3.3,1.8.8.6.5.8,1.1.8,1.7s0,.4,0,.5Z" fill="#222"/>
    <path d="M382.3,412.7c0,.4-.2.9-.6,1.7-.4.8-.6,1.4-.6,1.9v11.5c0,.5.1,1.3.4,2.2.3,1,.4,1.6.4,2,0,.5-.2.9-.6,1.2-.7.4-1.4.6-2.1.6s-1.7-.3-2.1-1c-.5-.8-.8-3.3-.8-7.5s0-2.5,0-4.7c0-2.1,0-3.6,0-4.6s0-.8-.1-1.4c0-.6-.1-1-.1-1.3,0-.9.3-1.6.9-2.2s.7-.4,1.5-.4,1.4.1,2.1.3c.7.2,1.2.5,1.4.8s.3.6.3.9ZM381.8,403.1c0,0,.1.2.1.4s0,.6-.2,1.2c-.2.7-.3,1.2-.4,1.5,0,.3,0,.8,0,1.7,0,.5-.2.9-.5,1.1-.3.2-.7.3-1.2.3-.7,0-1.4-.1-2.2-.4-.9-.4-1.3-.9-1.3-1.5s0-.4.2-.8c.2-.3.2-.6.3-.8,0-.2,0-.7,0-1.6,0-.7,0-1.1.4-1.3.4-.3,1.2-.5,2.2-.5s2,.2,2.5.7Z" fill="#222"/>
    <path d="M391.5,432.8c-.5,1-1.5,1.5-2.9,1.5s-2.2-.4-2.7-1.3c-.2-.3-.2-.5-.2-.9s0-.7.3-1.3.3-1.1.3-1.5l-.2-25.4v-2.1c0-.3.4-.6,1.1-.8.7-.2,1.3-.3,2.1-.3,1.1,0,1.8.2,2,.6.3.4.4.8.4,1.2s-.1.8-.3,1.4c-.2.7-.3,1.2-.3,1.6v23.6c0,.4.1.9.3,1.6.2.6.3,1.1.3,1.4s0,.5-.2.8Z" fill="#222"/>
    <path d="M401.3,432.8c-.5,1-1.5,1.5-2.9,1.5s-2.2-.4-2.7-1.3c-.2-.3-.2-.5-.2-.9s0-.7.3-1.3.3-1.1.3-1.5l-.2-25.4v-2.1c0-.3.4-.6,1.1-.8.7-.2,1.3-.3,2.1-.3,1.1,0,1.8.2,2,.6.3.4.4.8.4,1.2s-.1.8-.3,1.4c-.2.7-.3,1.2-.3,1.6v23.6c0,.4.1.9.3,1.6.2.6.3,1.1.3,1.4s0,.5-.2.8Z" fill="#222"/>
    <path d="M418.7,428.5c-.2,1-.9,2.1-2.1,3.2-.2.3-.9.7-2.2,1.1-1.4.5-2.7.8-3.7.7-2-.1-3.5-1.3-4.6-3.4-1-2-1.5-4.4-1.5-7.2s.6-5.8,1.7-8.1c1.3-2.6,3-4,5.1-4.3.4,0,.8,0,1.2,0,3.1,0,4.8,1.9,5.1,5.7.2,1.8-.5,3.7-2.1,5.7-1.7,2.3-3.8,3.9-6.4,4.8.3,1,.5,1.7.7,2,.4.7.9,1,1.5,1s1.2-.2,1.9-.7c.6-.4,1-.8,1.2-1.1.1,0,.2-.3.3-.9s.4-.9.8-1.2c.2,0,.3-.1.5-.1.6,0,1.2.3,1.8.9s.8,1.2.7,1.9ZM412.5,414.6c-1,0-1.9.7-2.6,2.2-.9,2-1.2,4-1.1,5.9,1.2-.4,2.4-1.3,3.4-2.7s1.6-2.7,1.6-3.8-.5-1.5-1.4-1.5Z" fill="#222"/>
    <path d="M436.3,432.3c-.3.7-1.3,1.1-2.9,1.1s-1.7-.2-2-.6c-.1-.1-.2-.3-.2-.5s0-.5.2-.9.2-.7.2-.9c-1.2,1.7-2.6,2.6-4.2,2.6s-3.8-1.2-4.8-3.7c-.8-1.9-1.1-4.3-1.1-7.3s.6-5.3,1.8-7.6c1.3-2.5,2.9-3.7,4.8-3.7s2.2.9,3.3,2.6v-5.1c0-.4-.2-1-.5-1.6-.3-.7-.5-1.2-.5-1.5s0-.5.2-.8c.5-1.2,1.6-1.8,3.2-1.8s2.1.5,2.4,1.4c.1.3.2.6.2.9s0,.7-.3,1.2c-.2.5-.3.9-.3,1.2v22.4c0,.3.1.6.3,1,.2.4.3.7.3,1s0,.4-.2.7ZM430.9,422c0-1.2-.2-2.6-.7-4.2-.5-1.7-1.1-2.6-1.6-2.6s-1.1.8-1.5,2.4c-.3,1.3-.4,2.8-.4,4.4s0,.8,0,1.4v1.5c0,3,.6,4.4,1.9,4.4s1.2-.9,1.6-2.6c.5-1.6.7-3.2.7-4.8Z" fill="#222"/>
    <path d="M136.6,458.3c0,.2.1.4.1.6,0,.4-.2.9-.7,1.5-.6.7-.9,1.3-1.1,1.6l-4.3,13c-.1.4-.2.9-.2,1.5v.9c0,.4,0,.6,0,.8,0,1-.3,1.7-1,2.2-.7.5-1.4.7-2.2.7-1.3,0-2.3-.5-3.1-1.4-.4-.5-.6-1-.6-1.6,0-.9,0-1.5,0-1.7l-2.4-8.7-2.3,7.9c0,.3-.1.8-.2,1.6,0,.7-.2,1.2-.4,1.6-1,1.6-2.2,2.4-3.7,2.4s-1-.1-1.4-.4c-.5-.3-.8-.9-.9-1.6-.1-.7-.2-1.4-.3-2.1l-3.5-13.4c0-.3-.3-1-.7-1.9-.3-.7-.5-1.3-.5-1.8s0-.7.2-1c.2-.7,1.2-1.1,2.8-1.1s1.5.1,1.8.4c.4.3.6.9.6,1.6,0,1.2,0,1.8,0,1.9l2.4,9.4,3.3-9.7c0-.2,0-.4,0-.5s0-.4,0-.7c0-.3,0-.5,0-.7,0-.6.3-1,.9-1.3.5-.3,1.1-.4,1.7-.4s1.6.2,2.2.6c.7.5,1.1,1.2,1.2,2,0,.8.1,1.6.2,2.5l2.4,9.4,3.8-11.3c0-.2,0-.3,0-.5s0-.5-.1-.8c0-.4-.1-.6-.1-.8s0-.5.2-.7c.4-.7,1.4-1.1,3.1-1.1s2.5.4,2.8,1.1Z" fill="#222"/>
    <path d="M145.7,459.8c0,.4-.2.9-.6,1.7-.4.8-.6,1.4-.6,1.9v11.5c0,.5.1,1.3.4,2.2.3,1,.4,1.6.4,2,0,.5-.2.9-.6,1.2-.7.4-1.4.6-2.1.6s-1.7-.3-2.1-1c-.5-.8-.8-3.3-.8-7.5s0-2.5,0-4.7c0-2.1,0-3.6,0-4.6s0-.8-.1-1.4c0-.6-.1-1-.1-1.3,0-.9.3-1.6.9-2.2.3-.3.7-.4,1.5-.4s1.4.1,2.1.3c.7.2,1.2.5,1.4.8.2.3.3.6.3.9ZM145.2,450.3c0,0,.1.2.1.4s0,.6-.2,1.2c-.2.7-.3,1.2-.4,1.5,0,.3,0,.8,0,1.7,0,.5-.2.9-.5,1.1-.3.2-.7.3-1.2.3-.7,0-1.4-.1-2.2-.4-.9-.4-1.3-.9-1.3-1.5s0-.4.2-.8c.2-.3.2-.6.3-.8,0-.2,0-.7,0-1.6,0-.7,0-1.1.4-1.3.4-.3,1.2-.5,2.2-.5s2,.2,2.5.7Z" fill="#222"/>
    <path d="M162.3,461.9c-.2,0-.5,0-1-.3-.4-.2-.8-.3-1-.3s-.4,0-.5.1l-1.5.7v13.4c0,.5.3,1.1.8,1.9.5.8.8,1.4.6,1.9-.1.6-.5,1-1.2,1.4-.6.3-1.3.5-2.1.5-1.4,0-2.3-.6-2.9-1.8-.2-.4-.2-1.5-.3-3.5,0-1.3,0-3.4,0-6.1,0-3.1,0-5.1,0-6-.2,0-.4.2-.8.5-.4.3-.7.5-1.1.5s-.7,0-1.1-.2c-1.8-.6-2.7-1.3-2.7-1.9s0-.3.1-.5c.2-.4.5-.7,1-.7.8-.1,1.2-.2,1.4-.3.6-.2,1.7-.8,3.3-1.7v-3.4c0-.3,0-.6-.2-1-.1-.4-.2-.8-.2-1s0-.5.2-.7c.7-1,1.6-1.6,2.7-1.6s2.3.5,2.8,1.6c.2.4.3.8.3,1s-.2.6-.5,1c-.3.3-.5.7-.5.9v1.9c.5-.2,1-.6,1.6-1.1.4-.4.8-.5,1.1-.5s.3,0,.4,0c1.6.4,2.5,1.4,2.5,3s-.2,1-.5,1.4c-.3.4-.7.7-1.2.7Z" fill="#222"/>
    <path d="M182.3,476.4c.2.7.2,1.1.2,1.3,0,.5-.3,1-1,1.4-.6.4-1.3.5-2.1.5-1.1,0-1.8-.4-2.2-1.3-.1-.3-.2-.6-.2-.9,0-.3.2-.7.5-1.1.3-.4.5-.8.5-1.1.3-1.4.5-3.3.5-5.9,0-4.4-.3-6.7-.9-6.8-.5,0-1.2.7-2.3,2.2-1.1,1.6-2,3.5-2.7,5.5-.9,2.4-1.2,4.5-1.1,6.4,0,.2-.1.3-.1.5,0,.2.1.6.3,1,.2.4.3.8.3,1s0,.5-.3.7c-.7,1-1.4,1.5-2.1,1.5s-1.4-.6-2.1-1.7c-.4-.7-.6-4.6-.6-11.7s0-8.6.2-17.9c0-.2,0-.4,0-.7,0-.3,0-.6,0-.8,0-.3.1-.5.2-.7.3-.5.9-.8,1.8-.8s1.6.2,2.3.7c.7.4,1,1,.8,1.6,0,.2-.2.3-.4.5-.2.2-.3.4-.3.6v12.6c1.5-3.3,3.7-5.1,6.6-5.3,1.6-.1,2.8,1.1,3.8,3.5.9,2.3,1.3,5,1.3,8.3s-.3,4.8-.8,6.8Z" fill="#222"/>
    <path d="M200,464.2c0,8.1,0,10.9,0,8.4,0,3.9-.4,7-1,9.1-.8,2.9-2.2,4.5-4,4.7-.8.1-1.7,0-2.7-.5s-1.5-1-1.5-1.6,0-.4.2-.6c.3-.4.8-.5,1.4-.4.7.1,1.1,0,1.4,0,.8-.6,1.3-5.3,1.3-14.2s0-4.6,0-7.5c0-.2,0-.6-.2-1.2-.2-.6-.2-1-.2-1.3,0-.9.7-1.4,2.2-1.4s2.2.3,2.7.9c.5.5.7,1.2.7,2s0,1-.1,1.8c0,.8-.1,1.4-.1,1.8ZM200,456.1c-.2.4-.7.6-1.5.6s-1.2-.1-1.7-.4c-.7-.3-1.1-.7-1.1-1.3s0-.4.1-.7.1-.5.1-.6c0-.2,0-.4,0-.9,0-.4,0-.7,0-.9,0-.6.2-1,.5-1.3.4-.4,1-.6,1.6-.6s1.1.2,1.6.5c.5.3.7.8.7,1.3s0,.6-.2,1.1-.2.9-.2,1.2c0,.2,0,.5.2.7s.2.5.2.6,0,.3-.1.5Z" fill="#222"/>
    <path d="M215.9,459.4c1.8,1.8,2.6,4.8,2.6,9s-.6,6.1-1.8,8.4c-1.4,2.6-3.3,3.9-5.7,3.9s-4.3-1.2-5.6-3.5c-1.2-2-1.7-4.6-1.7-7.8s.4-5.3,1.3-7.5c.9-2.4,2.1-3.7,3.6-4.2.8-.2,1.5-.3,2.4-.3,2,0,3.7.7,4.9,2ZM211.4,461.3c-.9,0-1.6.7-2.2,2.4-.5,1.5-.8,3.2-.8,4.9,0,2.5.1,4.2.3,5.2.4,1.8,1.1,2.8,2.3,3,.7.1,1.4-.9,2-3,.6-2,.9-4.2.9-6.6,0-3.8-.8-5.8-2.5-6Z" fill="#222"/>
    <path d="M238.7,460.1c0,.5,0,1.1-.4,1.7-.6,1-.9,1.5-.9,1.6-1.1,2.6-2.8,6.8-5.1,12.6-1,2.8-1.7,5.3-2,7.5,0,.2,0,.7,0,1.4,0,.6,0,1-.3,1.3-.4.5-1,.8-1.9.8-1.5,0-2.5-.6-2.9-1.7-.1-.3-.2-.5-.2-.7s.1-.6.3-.9c.2-.3.3-.6.4-.8l.9-4.9-5.7-16.3c0-.2-.3-.6-.6-1.3-.2-.5-.4-.9-.4-1.2s0-.4,0-.5c.3-.9,1.2-1.4,2.7-1.4s1.7.2,2.2.5c.7.4,1,1.1,1.1,2.1.1,1.6.2,2.5.3,2.7l2.6,8.2,4-10.1c0,0,.1-.7.4-1.7.1-.7.4-1.1.8-1.3.3-.2.6-.2.9-.2.8,0,1.5.3,2.3.8.8.6,1.2,1.2,1.3,2Z" fill="#222"/>
    <path d="M241.7,477.9c0,.2,0,.4,0,.5,0,.4-.3,1-.9,1.8-.8,1-1.5,2-2.3,3.1-.8,1-1.3,1.5-1.8,1.6-.5,0-1.1-.3-1.8-.9-.6-.6-.9-1.2-.7-1.8,0,0,.4-.5,1.3-1.4.9-.9,1.4-1.6,1.6-2.3.2-.2.3-.6.3-1,0-.5.1-.8.3-1,.2-.2.4-.2.8-.2.6,0,1.3.2,2,.5.7.3,1.1.7,1.2,1.1Z" fill="#222"/>
    <path d="M259.5,479.9c-.5,1-1.5,1.5-2.9,1.5s-2.2-.4-2.7-1.3c-.2-.3-.2-.5-.2-.9s0-.7.3-1.3c.2-.6.3-1.1.3-1.5l-.2-25.4v-2.1c0-.3.4-.6,1.1-.8.7-.2,1.3-.3,2.1-.3,1.1,0,1.8.2,2,.6.3.4.4.8.4,1.2s-.1.8-.3,1.4-.3,1.2-.3,1.6v23.6c0,.4.1.9.3,1.6.2.6.3,1.1.3,1.4s0,.5-.2.8Z" fill="#222"/>
    <path d="M279.8,478c-.4,1.3-1.4,1.9-2.9,1.9s-.9,0-1.3-.3c-.4-.3-.7-.9-.9-1.7-.3-1.5-.6-2.7-.9-3.5,0,1.4-.9,2.9-2.4,4.4-1.5,1.5-3,2.2-4.5,2.2s-3.2-1.3-4-3.8c-.3-.9-.4-1.8-.4-2.7,0-2.4,1.2-4.5,3.7-6.2,2-1.2,4.1-2.4,6.2-3.6.1-.4.2-.9.2-1.3,0-.8-.2-1.3-.7-1.4-.4-.1-.8-.2-1.1-.2-.5,0-1,.2-1.4.5-.4.4-.7.7-1,1-.3.2-.7.7-1.2,1.5-.4.6-.8.9-1.3,1-.7,0-1.3-.2-1.8-.7s-.8-1.2-.8-1.9.1-.8.3-1.1c.6-1,1.5-1.9,2.7-2.6,1.8-1.1,4.1-1.6,6.9-1.6s3,.8,3.6,2.5c.4,1.1.7,3.2.9,6.3.2,3.7.5,6.5.9,8.2,0,.3.3.8.7,1.3.4.5.6,1,.6,1.4s0,.4,0,.5ZM273,468.4c-.8.4-1.6.9-2.3,1.3-.8.4-1.5,1-2.1,1.8-.9,1.1-1.4,2-1.4,2.7s.2,1.3.7,2c.3.4.5.5.9.5.7,0,1.4-.8,2.2-2.3.8-1.5,1.5-3.5,2.1-6Z" fill="#222"/>
    <path d="M296.7,460.5c0,.4,0,.8-.2,1.3-.3.6-.4,1-.5,1.3,0,5.4-.2,9.2-.7,11.3-1,4.5-3,6.7-6.2,6.7-4.6,0-6.9-4.2-6.9-12.5s.2-4.6.5-7.1c-.2-.6-.3-1.1-.3-1.6,0-.8.2-1.4.7-1.9.4-.4,1-.7,1.8-.7s1.3.1,1.8.4c.6.3.9.6,1,1,0,.2,0,.4,0,.5,0,.3-.1.9-.4,1.6-.3.7-.4,1.4-.4,1.8-.3,1.5-.4,3.3-.4,5.5s.1,4.1.4,5.6c.4,1.7.9,2.6,1.5,2.6,1.1,0,1.8-1.9,2.2-5.6.2-1.9.3-4.8.3-8.9s0-.6-.1-1.1c0-.5-.1-.9-.1-1.1,0-.6.2-1.1.7-1.3s.6-.2,1.1-.2c.9,0,1.7.2,2.4.5.9.4,1.3,1,1.5,1.8Z" fill="#222"/>
    <path d="M313.3,458.8c0,2.3.2,6,.4,11.1.1,3.6.2,6.2.2,7.8,0,3.5-.3,5.8-.8,7.1-.5,1.3-1.7,1.9-3.3,2.1-2.1.2-3.9-.4-5.5-1.6-.8-.2-1.3-.4-1.5-.5-.4-.3-.7-.7-.9-1.3-.2-1.2.7-1.8,2.9-1.8s1.1,0,1.6.2c.4,0,.8.4,1.2.9.4.5.9.8,1.3.8.8,0,1.1-1,1.1-3.2s0-2.5-.2-4.6c-.9,1.6-1.6,2.6-2,3.1-.9.9-1.9,1.3-3,1.3s-2.9-1.1-3.9-3.4c-.9-2.1-1.4-4.6-1.4-7.5s.5-5.6,1.5-7.7c1.1-2.4,2.6-3.6,4.6-3.6,1,0,1.8.2,2.3.6.5.4,1,.9,1.5,1.4-.3-.9-.3-1.6.2-2.1.3-.3.7-.4,1.3-.4s1.1.1,1.6.4c.5.3.9.6,1.1,1.1ZM308.6,468.9c.1-1.5,0-3-.5-4.3-.5-1.5-1.2-2.3-2-2.3s-1.3.8-1.8,2.3c-.5,1.4-.7,2.8-.8,4.3,0,1.6,0,3,.4,4.3.4,1.5.9,2.3,1.5,2.3s1.2-.7,2-2.2c.8-1.5,1.2-2.9,1.3-4.4Z" fill="#222"/>
    <path d="M333,476.4c.2.7.2,1.1.2,1.3,0,.5-.3,1-1,1.4-.6.4-1.3.5-2.1.5-1.1,0-1.8-.4-2.2-1.3-.1-.3-.2-.6-.2-.9,0-.3.1-.7.5-1.1.3-.4.5-.8.5-1.1.3-1.4.5-3.3.5-5.9,0-4.4-.3-6.7-.9-6.8-.5,0-1.2.7-2.3,2.2s-2,3.5-2.7,5.5c-.9,2.4-1.2,4.5-1.1,6.4,0,.2-.1.3-.1.5,0,.2.1.6.3,1,.2.4.3.8.3,1s0,.5-.3.7c-.7,1-1.4,1.5-2.1,1.5s-1.4-.6-2.1-1.7c-.4-.7-.6-4.6-.6-11.7s0-8.6.2-17.9c0-.2,0-.4,0-.7,0-.3,0-.6,0-.8,0-.3.1-.5.2-.7.3-.5.9-.8,1.8-.8s1.6.2,2.3.7c.7.4,1,1,.8,1.6,0,.2-.2.3-.4.5-.2.2-.3.4-.3.6v12.6c1.5-3.3,3.7-5.1,6.6-5.3,1.6-.1,2.8,1.1,3.8,3.5.9,2.3,1.3,5,1.3,8.3s-.3,4.8-.8,6.8Z" fill="#222"/>
    <path d="M350,461.9c-.2,0-.5,0-1-.3-.4-.2-.8-.3-1-.3s-.4,0-.5.1l-1.5.7v13.4c0,.5.3,1.1.8,1.9.5.8.8,1.4.6,1.9-.1.6-.5,1-1.2,1.4-.6.3-1.3.5-2.1.5-1.4,0-2.3-.6-2.9-1.8-.2-.4-.2-1.5-.3-3.5,0-1.3,0-3.4,0-6.1,0-3.1,0-5.1,0-6-.2,0-.4.2-.8.5s-.7.5-1.1.5-.7,0-1.1-.2c-1.8-.6-2.7-1.3-2.7-1.9s0-.3.1-.5c.2-.4.5-.7,1-.7.8-.1,1.2-.2,1.4-.3.6-.2,1.7-.8,3.3-1.7v-3.4c0-.3,0-.6-.2-1-.1-.4-.2-.8-.2-1s0-.5.2-.7c.7-1,1.6-1.6,2.7-1.6s2.3.5,2.8,1.6c.2.4.3.8.3,1s-.2.6-.5,1c-.3.3-.5.7-.5.9v1.9c.5-.2,1-.6,1.6-1.1.4-.4.8-.5,1.1-.5s.3,0,.4,0c1.6.4,2.5,1.4,2.5,3s-.2,1-.5,1.4c-.3.4-.7.7-1.2.7Z" fill="#222"/>
    <path d="M366.8,475.6c-.2,1-.9,2.1-2.1,3.2-.2.3-.9.7-2.2,1.1-1.4.5-2.7.8-3.7.7-2-.1-3.5-1.3-4.6-3.4-1-2-1.5-4.4-1.5-7.2s.6-5.8,1.7-8.1c1.3-2.6,3-4,5.1-4.3.4,0,.8,0,1.2,0,3.1,0,4.8,1.9,5.1,5.7.2,1.8-.5,3.7-2.1,5.7-1.7,2.3-3.8,3.9-6.4,4.8.3,1,.5,1.7.7,2,.4.7.9,1,1.5,1s1.2-.2,1.9-.7c.6-.4,1-.8,1.2-1.1.1,0,.2-.3.3-.9s.4-.9.8-1.2c.2,0,.3-.1.5-.1.6,0,1.2.3,1.8.9s.8,1.2.7,1.9ZM360.6,461.8c-1,0-1.9.7-2.6,2.2-.9,2-1.2,4-1.1,5.9,1.2-.4,2.4-1.3,3.4-2.7s1.6-2.7,1.6-3.8-.5-1.5-1.4-1.5Z" fill="#222"/>
    <path d="M384.8,459.7c-.1.5-.6.9-1.5,1.1-1,.3-1.7.6-2,.9l-6.4,7.4v6c0,.6.2,1.2.5,1.7s.5,1,.5,1.4,0,.7-.3,1.1c-.4,1-1.3,1.5-2.7,1.5s-1.7-.3-2.2-.9c-.4-.4-.5-.9-.5-1.5s0-.5,0-1c0-.5,0-.9,0-1.1v-14.7c0-.2-.1-.5-.3-.9-.2-.3-.3-.6-.3-.8s0-.3.2-.5c.3-.6,1.4-.9,3.2-.9s2.2.3,2.4,1c0,.3.1.5.1.7,0,.3-.1.5-.3.7-.2.2-.3.3-.3.5v1.4c0,0,3.5-3.6,3.5-3.6.4-.4.8-.9,1.2-1.3.4-.4.9-.7,1.5-.7.9,0,1.7.1,2.6.6.8.5,1.2,1.1,1.2,1.8s0,.3,0,.4Z" fill="#222"/>
    <path d="M384.8,477.9c0,.2,0,.4,0,.5,0,.4-.3,1-.9,1.8-.8,1-1.5,2-2.3,3.1-.8,1-1.3,1.5-1.8,1.6-.5,0-1.1-.3-1.8-.9-.6-.6-.9-1.2-.7-1.8,0,0,.4-.5,1.3-1.4.9-.9,1.4-1.6,1.6-2.3.2-.2.3-.6.3-1,0-.5.1-.8.3-1s.4-.2.8-.2c.6,0,1.3.2,2,.5.7.3,1.1.7,1.2,1.1Z" fill="#222"/>
    <path d="M413.2,478c-.4,1.3-1.4,1.9-2.9,1.9s-.9,0-1.3-.3c-.4-.3-.7-.9-.9-1.7-.3-1.5-.6-2.7-.9-3.5,0,1.4-.9,2.9-2.4,4.4-1.5,1.5-3,2.2-4.5,2.2s-3.2-1.3-4-3.8c-.3-.9-.4-1.8-.4-2.7,0-2.4,1.2-4.5,3.7-6.2,2-1.2,4.1-2.4,6.2-3.6.1-.4.2-.9.2-1.3,0-.8-.2-1.3-.7-1.4-.4-.1-.8-.2-1.1-.2-.5,0-1,.2-1.4.5-.4.4-.7.7-1,1-.3.2-.7.7-1.2,1.5-.4.6-.8.9-1.3,1-.7,0-1.3-.2-1.8-.7-.5-.5-.8-1.2-.8-1.9s.1-.8.3-1.1c.6-1,1.5-1.9,2.7-2.6,1.8-1.1,4.1-1.6,6.9-1.6s3,.8,3.6,2.5c.4,1.1.7,3.2.9,6.3.2,3.7.5,6.5.9,8.2,0,.3.3.8.7,1.3.4.5.6,1,.6,1.4s0,.4,0,.5ZM406.4,468.4c-.8.4-1.6.9-2.3,1.3-.8.4-1.5,1-2.1,1.8-.9,1.1-1.4,2-1.4,2.7s.2,1.3.7,2c.3.4.5.5.9.5.7,0,1.4-.8,2.2-2.3.8-1.5,1.5-3.5,2.1-6Z" fill="#222"/>
    <path d="M434.1,477.2c0,.6-.4,1.1-1.1,1.5-.7.4-1.5.6-2.4.6-1.3,0-2.2-.4-2.6-1.2.2-8.1,0-12.1-.7-12.2-.7-.1-2.3,3.5-4.8,10.8v2.4c0,.9-.3,1.6-.8,2-.5.4-1,.6-1.6.6-.9,0-2-.5-3-1.5-.3-.3-.5-2.3-.5-6,0,2.3,0-1.9,0-12.7s0-.6,0-1c0-.4,0-.7,0-.9,0-.5.1-.9.4-1.3.3-.5.8-.7,1.5-.7s1.4.2,2.2.6c.8.4,1.2.8,1.4,1.2.1.3.2.5.2.8s-.1.6-.3,1.1c-.2.5-.3.9-.3,1.2v5.4c1.6-3.5,2.9-5.8,3.7-6.9,1.5-1.9,3.2-2.8,5.1-2.7,1.1,0,1.9,1.1,2.4,3.1.4,1.5.6,3.8.6,6.8v7.1c0,.2.2.5.5,1,.2.3.3.6.2,1Z" fill="#222"/>
    <path d="M451.5,479.5c-.3.7-1.3,1.1-2.9,1.1s-1.7-.2-2-.6c-.1-.1-.2-.3-.2-.5s0-.5.2-.9.2-.7.2-.9c-1.2,1.7-2.6,2.6-4.2,2.6s-3.8-1.2-4.8-3.7c-.8-1.9-1.1-4.3-1.1-7.3s.6-5.3,1.8-7.6c1.3-2.5,2.9-3.7,4.8-3.7s2.2.9,3.3,2.6v-5.1c0-.4-.2-1-.5-1.6-.3-.7-.5-1.2-.5-1.5s0-.5.2-.8c.5-1.2,1.6-1.8,3.2-1.8s2.1.5,2.4,1.4c.1.3.2.6.2.9s0,.7-.3,1.2c-.2.5-.3.9-.3,1.2v22.4c0,.3.1.6.3,1,.2.4.3.7.3,1s0,.4-.2.7ZM446.1,469.1c0-1.2-.2-2.6-.7-4.2-.5-1.7-1.1-2.6-1.6-2.6s-1.1.8-1.5,2.4c-.3,1.3-.4,2.8-.4,4.4s0,.8,0,1.4v1.5c0,3,.6,4.4,1.9,4.4s1.2-.9,1.6-2.6c.5-1.6.7-3.2.7-4.8Z" fill="#222"/>
    <path d="M136.2,526.8c-.3,1-1.1,1.5-2.3,1.5s-2.6-.5-3.4-1.6c-.4-.6-.6-2.6-.6-5.9v-2.1c0-.9,0-1.6,0-1.9,0-1.8,0-2.8-.3-2.8-.4-.2-1.7,3.5-4,11,0,0,0,.7-.2,1.9,0,.8-.3,1.3-.8,1.5-.3.2-.7.3-1.1.3-.8,0-1.5-.2-2.2-.7s-1.2-1.1-1.3-1.8c-.3-1-.4-2.9-.4-5.7,0-4.2,0-6.2,0-6,0-1.1-.1-1.7-.2-1.7-.6,1-1.1,2-1.6,2.9-1.1,2.2-1.7,4-1.8,5.5-.1.3-.1.9,0,1.8.1.8,0,1.3-.4,1.6-.3.3-.8.4-1.4.4s-1.3-.2-1.9-.5c-.6-.4-1.1-.8-1.4-1.2-.4-.7-.7-2.6-.7-5.7v-9.3c0-.3-.1-.6-.3-1.1-.2-.5-.3-.8-.3-1.1s0-.5.2-.7c.3-.5,1.2-.8,2.6-.8s2.7.4,3.1,1.3c0,.2.1.4.1.5s-.1.6-.4,1c-.2.4-.4.8-.4,1.1v4.5c.8-1.6,1.8-3.7,3.1-6.3.2-.3.3-.7.5-1,.1-.3.4-.6.6-.9.3-.3.8-.4,1.5-.4,1,0,2.1.2,3.2.7,1.1.5,1.6,1,1.6,1.7,0,.7,0,1.2-.3,1.6-.2.4-.3.6-.3.9v8.5c.3-.9,1.1-3.2,2.2-6.7.9-2.7,1.5-4.2,2-4.5.6-.4,1.4-.6,2.6-.6,2.1,0,3.2.6,3.3,1.8,0,3.2,0,8.5,0,16,0,.3.3.6.8,1,.5.4.8.8.8,1.3s0,.5-.2.7Z" fill="#222"/>
    <path d="M156.2,525.2c-.4,1.3-1.4,1.9-2.9,1.9s-.9,0-1.3-.3c-.4-.3-.7-.9-.9-1.7-.3-1.5-.6-2.7-.9-3.5,0,1.4-.9,2.9-2.4,4.4-1.5,1.5-3,2.2-4.5,2.2s-3.2-1.3-4-3.8c-.3-.9-.4-1.8-.4-2.7,0-2.4,1.2-4.5,3.7-6.2,2-1.2,4.1-2.4,6.2-3.6.1-.4.2-.9.2-1.3,0-.8-.2-1.3-.7-1.4-.4-.1-.8-.2-1.1-.2-.5,0-1,.2-1.4.5-.4.4-.7.7-1,1-.3.2-.7.7-1.2,1.5-.4.6-.8.9-1.3,1-.7,0-1.3-.2-1.8-.7s-.8-1.2-.8-1.9.1-.8.3-1.1c.6-1,1.5-1.9,2.7-2.6,1.8-1.1,4.1-1.6,6.9-1.6s3,.8,3.6,2.5c.4,1.1.7,3.2.9,6.3.2,3.7.5,6.5.9,8.2,0,.3.3.8.7,1.3.4.5.6,1,.6,1.4s0,.4,0,.5ZM149.4,515.5c-.8.4-1.6.9-2.3,1.3-.8.4-1.5,1-2.1,1.8-.9,1.1-1.4,2-1.4,2.7s.2,1.3.7,2c.3.4.5.5.9.5.7,0,1.4-.8,2.2-2.3.8-1.5,1.5-3.5,2.1-6Z" fill="#222"/>
    <path d="M177.2,524.3c0,.6-.4,1.1-1.1,1.5-.7.4-1.5.6-2.4.6-1.3,0-2.2-.4-2.6-1.2.2-8.1,0-12.1-.7-12.2-.7-.1-2.3,3.5-4.8,10.8v2.4c0,.9-.3,1.6-.8,2-.5.4-1,.6-1.6.6-.9,0-2-.5-3-1.5-.3-.3-.5-2.3-.5-6,0,2.3,0-1.9,0-12.7s0-.6,0-1c0-.4,0-.7,0-.9,0-.5.1-.9.4-1.3.3-.5.8-.7,1.5-.7s1.4.2,2.2.6c.8.4,1.2.8,1.4,1.2.1.3.2.5.2.8s-.1.6-.3,1.1c-.2.5-.3.9-.3,1.2v5.4c1.6-3.5,2.9-5.8,3.7-6.9,1.5-1.9,3.2-2.8,5.1-2.7,1.1,0,1.9,1.1,2.4,3.1.4,1.5.6,3.8.6,6.8v7.1c0,.2.2.5.5,1,.2.3.3.6.2,1Z" fill="#222"/>
    <path d="M197.1,507.3c0,.5,0,1.1-.4,1.7-.6,1-.9,1.5-.9,1.6-1.1,2.6-2.8,6.8-5.1,12.6-1,2.8-1.7,5.3-2,7.5,0,.2,0,.7,0,1.4,0,.6,0,1-.3,1.3-.4.5-1,.8-1.9.8-1.5,0-2.5-.6-2.9-1.7-.1-.3-.2-.5-.2-.7s.1-.6.3-.9c.2-.3.3-.6.4-.8l.9-4.9-5.7-16.3c0-.2-.3-.6-.6-1.3-.2-.5-.4-.9-.4-1.2s0-.4,0-.5c.3-.9,1.2-1.4,2.7-1.4s1.7.2,2.2.5c.7.4,1,1.1,1.1,2.1.1,1.6.2,2.5.3,2.7l2.6,8.2,4-10.1c0,0,.1-.7.4-1.7.1-.7.4-1.1.8-1.3.3-.2.6-.2.9-.2.8,0,1.5.3,2.3.8.8.6,1.2,1.2,1.3,2Z" fill="#222"/>
    <path d="M224.2,523.5c.2.7.2,1.1.2,1.3,0,.5-.3,1-1,1.4-.6.4-1.3.5-2.1.5-1.1,0-1.8-.4-2.2-1.3-.1-.3-.2-.6-.2-.9,0-.3.2-.7.5-1.1.3-.4.5-.8.5-1.1.3-1.4.5-3.3.5-5.9,0-4.4-.3-6.7-.9-6.8-.5,0-1.2.7-2.3,2.2-1.1,1.6-2,3.5-2.7,5.5-.9,2.4-1.2,4.5-1.1,6.4,0,.2-.1.3-.1.5,0,.2.1.6.3,1,.2.4.3.8.3,1s0,.5-.3.7c-.7,1-1.4,1.5-2.1,1.5s-1.4-.6-2.1-1.7c-.4-.7-.6-4.6-.6-11.7s0-8.6.2-17.9c0-.2,0-.4,0-.7,0-.3,0-.6,0-.8,0-.3.1-.5.2-.7.3-.5.9-.8,1.8-.8s1.6.2,2.3.7c.7.4,1,1,.8,1.6,0,.2-.2.3-.4.5-.2.2-.3.4-.3.6v12.6c1.5-3.3,3.7-5.1,6.6-5.3,1.6-.1,2.8,1.1,3.8,3.5.9,2.3,1.3,5,1.3,8.3s-.3,4.8-.8,6.8Z" fill="#222"/>
    <path d="M245.3,525.2c-.4,1.3-1.4,1.9-2.9,1.9s-.9,0-1.3-.3c-.4-.3-.7-.9-.9-1.7-.3-1.5-.6-2.7-.9-3.5,0,1.4-.9,2.9-2.4,4.4-1.5,1.5-3,2.2-4.5,2.2s-3.2-1.3-4-3.8c-.3-.9-.4-1.8-.4-2.7,0-2.4,1.2-4.5,3.7-6.2,2-1.2,4.1-2.4,6.2-3.6.1-.4.2-.9.2-1.3,0-.8-.2-1.3-.7-1.4-.4-.1-.8-.2-1.1-.2-.5,0-1,.2-1.4.5-.4.4-.7.7-1,1-.3.2-.7.7-1.2,1.5-.4.6-.8.9-1.3,1-.7,0-1.3-.2-1.8-.7s-.8-1.2-.8-1.9.1-.8.3-1.1c.6-1,1.5-1.9,2.7-2.6,1.8-1.1,4.1-1.6,6.9-1.6s3,.8,3.6,2.5c.4,1.1.7,3.2.9,6.3.2,3.7.5,6.5.9,8.2,0,.3.3.8.7,1.3.4.5.6,1,.6,1.4s0,.4,0,.5ZM238.5,515.5c-.8.4-1.6.9-2.3,1.3-.8.4-1.5,1-2.1,1.8-.9,1.1-1.4,2-1.4,2.7s.2,1.3.7,2c.3.4.5.5.9.5.7,0,1.4-.8,2.2-2.3.8-1.5,1.5-3.5,2.1-6Z" fill="#222"/>
    <path d="M263.2,516c0,2.8-.6,5.3-1.8,7.6-1.3,2.5-2.9,3.7-4.8,3.7s-2.2-.8-3.3-2.6v5c0,.4.2,1,.5,1.6s.5,1.2.5,1.5,0,.5-.2.8c-.5,1.2-1.6,1.8-3.2,1.8s-2.1-.5-2.4-1.4c-.1-.3-.2-.6-.2-.9s0-.7.3-1.2c.2-.5.3-.9.3-1.2v-22.3c0-.3-.1-.6-.3-1s-.3-.7-.3-1,0-.4.2-.7c.3-.7,1.3-1.1,2.9-1.1s1.7.2,2,.6c.1.2.2.4.2.6s0,.5-.2.9c-.1.4-.2.7-.2.9,1.2-1.7,2.6-2.6,4.2-2.6s3.8,1.2,4.8,3.7c.8,1.9,1.1,4.4,1.1,7.4ZM258.3,516c0-2.5,0-4.1-.2-4.8-.3-1.7-.9-2.6-2-2.6s-1.1.8-1.6,2.5c-.5,1.6-.7,3.3-.7,4.8s.3,2.6.8,4.2c.5,1.7,1,2.6,1.6,2.6s1.2-.8,1.6-2.4c.4-1.4.5-2.9.5-4.4Z" fill="#222"/>
    <path d="M280.1,516c0,2.8-.6,5.3-1.8,7.6-1.3,2.5-2.9,3.7-4.8,3.7s-2.2-.8-3.3-2.6v5c0,.4.2,1,.5,1.6s.5,1.2.5,1.5,0,.5-.2.8c-.5,1.2-1.6,1.8-3.2,1.8s-2.1-.5-2.4-1.4c-.1-.3-.2-.6-.2-.9s0-.7.3-1.2c.2-.5.3-.9.3-1.2v-22.3c0-.3-.1-.6-.3-1s-.3-.7-.3-1,0-.4.2-.7c.3-.7,1.3-1.1,2.9-1.1s1.7.2,2,.6c.1.2.2.4.2.6s0,.5-.2.9c-.1.4-.2.7-.2.9,1.2-1.7,2.6-2.6,4.2-2.6s3.8,1.2,4.8,3.7c.8,1.9,1.1,4.4,1.1,7.4ZM275.2,516c0-2.5,0-4.1-.2-4.8-.3-1.7-.9-2.6-2-2.6s-1.1.8-1.6,2.5c-.5,1.6-.7,3.3-.7,4.8s.3,2.6.8,4.2c.5,1.7,1,2.6,1.6,2.6s1.2-.8,1.6-2.4c.4-1.4.5-2.9.5-4.4Z" fill="#222"/>
    <path d="M299.2,507.3c0,.5,0,1.1-.4,1.7-.6,1-.9,1.5-.9,1.6-1.1,2.6-2.8,6.8-5.1,12.6-1,2.8-1.7,5.3-2,7.5,0,.2,0,.7,0,1.4,0,.6,0,1-.3,1.3-.4.5-1,.8-1.9.8-1.5,0-2.5-.6-2.9-1.7-.1-.3-.2-.5-.2-.7s.1-.6.3-.9c.2-.3.3-.6.4-.8l.9-4.9-5.7-16.3c0-.2-.3-.6-.6-1.3-.2-.5-.4-.9-.4-1.2s0-.4,0-.5c.3-.9,1.2-1.4,2.7-1.4s1.7.2,2.2.5c.7.4,1,1.1,1.1,2.1.1,1.6.2,2.5.3,2.7l2.6,8.2,4-10.1c0,0,.1-.7.4-1.7.1-.7.4-1.1.8-1.3.3-.2.6-.2.9-.2.8,0,1.5.3,2.3.8.8.6,1.2,1.2,1.3,2Z" fill="#222"/>
    <path d="M336.8,526.8c-.3,1-1.1,1.5-2.3,1.5s-2.6-.5-3.4-1.6c-.4-.6-.6-2.6-.6-5.9v-2.1c0-.9,0-1.6,0-1.9,0-1.8,0-2.8-.3-2.8-.4-.2-1.7,3.5-4,11,0,0,0,.7-.2,1.9,0,.8-.3,1.3-.8,1.5-.3.2-.7.3-1.1.3-.8,0-1.5-.2-2.2-.7s-1.2-1.1-1.3-1.8c-.3-1-.4-2.9-.4-5.7,0-4.2,0-6.2,0-6,0-1.1-.1-1.7-.2-1.7-.6,1-1.1,2-1.6,2.9-1.1,2.2-1.7,4-1.8,5.5-.1.3-.1.9,0,1.8.1.8,0,1.3-.4,1.6-.3.3-.8.4-1.4.4s-1.3-.2-1.9-.5c-.6-.4-1.1-.8-1.4-1.2-.4-.7-.7-2.6-.7-5.7v-9.3c0-.3-.1-.6-.3-1.1-.2-.5-.3-.8-.3-1.1s0-.5.2-.7c.3-.5,1.2-.8,2.6-.8s2.7.4,3.1,1.3c0,.2.1.4.1.5s-.1.6-.4,1c-.2.4-.4.8-.4,1.1v4.5c.8-1.6,1.8-3.7,3.1-6.3.2-.3.3-.7.5-1,.1-.3.4-.6.6-.9.3-.3.8-.4,1.5-.4,1,0,2.1.2,3.2.7,1.1.5,1.6,1,1.6,1.7,0,.7,0,1.2-.3,1.6s-.3.6-.3.9v8.5c.3-.9,1.1-3.2,2.2-6.7.9-2.7,1.5-4.2,2-4.5.6-.4,1.4-.6,2.6-.6,2.1,0,3.2.6,3.3,1.8,0,3.2,0,8.5,0,16,0,.3.3.6.8,1,.5.4.8.8.8,1.3s0,.5-.2.7Z" fill="#222"/>
    <path d="M351.2,506.6c1.8,1.8,2.6,4.8,2.6,9s-.6,6.1-1.8,8.4c-1.4,2.6-3.3,3.9-5.7,3.9s-4.3-1.2-5.6-3.5c-1.2-2-1.7-4.6-1.7-7.8s.4-5.3,1.3-7.5c.9-2.4,2.1-3.7,3.6-4.2.8-.2,1.5-.3,2.4-.3,2,0,3.7.7,4.9,2ZM346.7,508.4c-.9,0-1.6.7-2.2,2.4-.5,1.5-.8,3.2-.8,4.9,0,2.5.1,4.2.3,5.2.4,1.8,1.1,2.8,2.3,3,.7.1,1.4-.9,2-3,.6-2,.9-4.2.9-6.6,0-3.8-.8-5.8-2.5-6Z" fill="#222"/>
    <path d="M383,526.8c-.3,1-1.1,1.5-2.3,1.5s-2.6-.5-3.4-1.6c-.4-.6-.6-2.6-.6-5.9v-2.1c0-.9,0-1.6,0-1.9,0-1.8,0-2.8-.3-2.8-.4-.2-1.7,3.5-4,11,0,0,0,.7-.2,1.9,0,.8-.3,1.3-.8,1.5-.3.2-.7.3-1.1.3-.8,0-1.5-.2-2.2-.7s-1.2-1.1-1.3-1.8c-.3-1-.4-2.9-.4-5.7,0-4.2,0-6.2,0-6,0-1.1-.1-1.7-.2-1.7-.6,1-1.1,2-1.6,2.9-1.1,2.2-1.7,4-1.8,5.5-.1.3-.1.9,0,1.8.1.8,0,1.3-.4,1.6-.3.3-.8.4-1.4.4s-1.3-.2-1.9-.5c-.6-.4-1.1-.8-1.4-1.2-.4-.7-.7-2.6-.7-5.7v-9.3c0-.3-.1-.6-.3-1.1-.2-.5-.3-.8-.3-1.1s0-.5.2-.7c.3-.5,1.2-.8,2.6-.8s2.7.4,3.1,1.3c0,.2.1.4.1.5s-.1.6-.4,1c-.2.4-.4.8-.4,1.1v4.5c.8-1.6,1.8-3.7,3.1-6.3.2-.3.3-.7.5-1,.1-.3.4-.6.6-.9.3-.3.8-.4,1.5-.4,1,0,2.1.2,3.2.7,1.1.5,1.6,1,1.6,1.7,0,.7,0,1.2-.3,1.6s-.3.6-.3.9v8.5c.3-.9,1.1-3.2,2.2-6.7.9-2.7,1.5-4.2,2-4.5.6-.4,1.4-.6,2.6-.6,2.1,0,3.2.6,3.3,1.8,0,3.2,0,8.5,0,16,0,.3.3.6.8,1,.5.4.8.8.8,1.3s0,.5-.2.7Z" fill="#222"/>
    <path d="M398.9,522.7c-.2,1-.9,2.1-2.1,3.2-.2.3-.9.7-2.2,1.1-1.4.5-2.7.8-3.7.7-2-.1-3.5-1.3-4.6-3.4-1-2-1.5-4.4-1.5-7.2s.6-5.8,1.7-8.1c1.3-2.6,3-4,5.1-4.3.4,0,.8,0,1.2,0,3.1,0,4.8,1.9,5.1,5.7.2,1.8-.5,3.7-2.1,5.7-1.7,2.3-3.8,3.9-6.4,4.8.3,1,.5,1.7.7,2,.4.7.9,1,1.5,1s1.2-.2,1.9-.7c.6-.4,1-.8,1.2-1.1.1,0,.2-.3.3-.9s.4-.9.8-1.2c.2,0,.3-.1.5-.1.6,0,1.2.3,1.8.9s.8,1.2.7,1.9ZM392.7,508.9c-1,0-1.9.7-2.6,2.2-.9,2-1.2,4-1.1,5.9,1.2-.4,2.4-1.3,3.4-2.7s1.6-2.7,1.6-3.8-.5-1.5-1.4-1.5Z" fill="#222"/>
    <path d="M419.8,524.3c0,.6-.4,1.1-1.1,1.5-.7.4-1.5.6-2.4.6-1.3,0-2.2-.4-2.6-1.2.2-8.1,0-12.1-.7-12.2-.7-.1-2.3,3.5-4.8,10.8v2.4c0,.9-.3,1.6-.8,2-.5.4-1,.6-1.6.6-.9,0-2-.5-3-1.5-.3-.3-.5-2.3-.5-6,0,2.3,0-1.9,0-12.7s0-.6,0-1c0-.4,0-.7,0-.9,0-.5.1-.9.4-1.3.3-.5.8-.7,1.5-.7s1.4.2,2.2.6c.8.4,1.2.8,1.4,1.2.1.3.2.5.2.8s-.1.6-.3,1.1c-.2.5-.3.9-.3,1.2v5.4c1.6-3.5,2.9-5.8,3.7-6.9,1.5-1.9,3.2-2.8,5.1-2.7,1.1,0,1.9,1.1,2.4,3.1.4,1.5.6,3.8.6,6.8v7.1c0,.2.2.5.5,1,.2.3.3.6.2,1Z" fill="#222"/>
    <path d="M436,509c-.2,0-.5,0-1-.3-.4-.2-.8-.3-1-.3s-.4,0-.5.1l-1.5.7v13.4c0,.5.3,1.1.8,1.9.5.8.8,1.4.6,1.9-.1.6-.5,1-1.2,1.4-.6.3-1.3.5-2.1.5-1.4,0-2.3-.6-2.9-1.8-.2-.4-.2-1.5-.3-3.5,0-1.3,0-3.4,0-6.1,0-3.1,0-5.1,0-6-.2,0-.4.2-.8.5s-.7.5-1.1.5-.7,0-1.1-.2c-1.8-.6-2.7-1.3-2.7-1.9s0-.3.1-.5c.2-.4.5-.7,1-.7.8-.1,1.2-.2,1.4-.3.6-.2,1.7-.8,3.3-1.7v-3.4c0-.3,0-.6-.2-1-.1-.4-.2-.8-.2-1s0-.5.2-.7c.7-1,1.6-1.6,2.7-1.6s2.3.5,2.8,1.6c.2.4.3.8.3,1s-.2.6-.5,1c-.3.3-.5.7-.5.9v1.9c.5-.2,1-.6,1.6-1.1.4-.4.8-.5,1.1-.5s.3,0,.4,0c1.6.4,2.5,1.4,2.5,3s-.2,1-.5,1.4c-.3.4-.7.7-1.2.7Z" fill="#222"/>
    <path d="M451.9,521.5c0,1.8-.7,3.4-2,4.7-1.3,1.3-2.9,1.9-4.6,1.9s-2.3-.5-3.5-1.6c-.9-.9-1.8-1.9-2.6-3.2-.7-1.1-.9-1.8-.9-2.1.3-.7,1.2-1,2.7-1s1.1,0,1.5.3c.6.3,1,.8,1.1,1.3,0,.6.2,1,.4,1.1.5.8,1,1.3,1.5,1.3s.7-.2,1-.7c.3-.5.5-1,.5-1.6s0-.8-.2-1.2-.8-1-2.1-1.8c-1.5-1-2.6-1.8-3.3-2.6-1.1-1.3-1.7-2.7-1.7-4.4s.6-3.7,1.7-5.2c1.2-1.5,2.6-2.2,4.4-2.2s3.2.7,4.2,2.1c.8,1.1,1.1,2.3,1,3.4.3.3.4.8.4,1.6s-.3,1.5-.9,2c-.6.5-1.2.8-1.8.8-.9,0-1.7-.6-2.3-1.8-.2-.3-.3-.7-.3-1.3s0-.6,0-1c0-.4,0-.7,0-.9,0-.7-.2-1-.7-1-.8,0-1.1.7-1.1,2.2s.5,2.7,1.5,3.7c.4.4,1.2.9,2.6,1.6,1.1.6,1.9,1.2,2.4,1.8.7.9,1.1,2.2,1.1,3.7Z" fill="#222"/>
    <path d="M134.6,556.1c-.2,0-.5,0-1-.3-.4-.2-.8-.3-1-.3s-.4,0-.5.1l-1.5.7v13.4c0,.5.3,1.1.8,1.9.5.8.8,1.4.6,1.9-.1.6-.5,1-1.2,1.4-.6.3-1.3.5-2.1.5-1.4,0-2.3-.6-2.9-1.8-.2-.4-.2-1.5-.3-3.5,0-1.3,0-3.4,0-6.1,0-3.1,0-5.1,0-6-.2,0-.4.2-.8.5-.4.3-.7.5-1.1.5s-.7,0-1.1-.2c-1.8-.6-2.7-1.3-2.7-1.9s0-.3.1-.5c.2-.4.5-.7,1-.7.8-.1,1.2-.2,1.4-.3.6-.2,1.7-.8,3.3-1.7v-3.4c0-.3,0-.6-.2-1-.1-.4-.2-.8-.2-1s0-.5.2-.7c.7-1,1.6-1.6,2.7-1.6s2.3.5,2.8,1.6c.2.4.3.8.3,1s-.2.6-.5,1c-.3.3-.5.7-.5.9v1.9c.5-.2,1-.6,1.6-1.1.4-.4.8-.5,1.1-.5s.3,0,.4,0c1.6.4,2.5,1.4,2.5,3s-.2,1-.5,1.4c-.3.4-.7.7-1.2.7Z" fill="#222"/>
    <path d="M154.6,570.6c.2.7.2,1.1.2,1.3,0,.5-.3,1-1,1.4-.6.4-1.3.5-2.1.5-1.1,0-1.8-.4-2.2-1.3-.1-.3-.2-.6-.2-.9,0-.3.2-.7.5-1.1.3-.4.5-.8.5-1.1.3-1.4.5-3.3.5-5.9,0-4.4-.3-6.7-.9-6.8-.5,0-1.2.7-2.3,2.2-1.1,1.6-2,3.5-2.7,5.5-.9,2.4-1.2,4.5-1.1,6.4,0,.2-.1.3-.1.5,0,.2.1.6.3,1,.2.4.3.8.3,1s0,.5-.3.7c-.7,1-1.4,1.5-2.1,1.5s-1.4-.6-2.1-1.7c-.4-.7-.6-4.6-.6-11.7s0-8.6.2-17.9c0-.2,0-.4,0-.7,0-.3,0-.6,0-.8,0-.3.1-.5.2-.7.3-.5.9-.8,1.8-.8s1.6.2,2.3.7c.7.4,1,1,.8,1.6,0,.2-.2.3-.4.5-.2.2-.3.4-.3.6v12.6c1.5-3.3,3.7-5.1,6.6-5.3,1.6-.1,2.8,1.1,3.8,3.5.9,2.3,1.3,5,1.3,8.3s-.3,4.8-.8,6.8Z" fill="#222"/>
    <path d="M173.4,553.9c-.1.5-.6.9-1.5,1.1-1,.3-1.7.6-2,.9l-6.4,7.4v6c0,.6.2,1.2.5,1.7.3.6.5,1,.5,1.4s0,.7-.3,1.1c-.4,1-1.3,1.5-2.7,1.5s-1.7-.3-2.2-.9c-.4-.4-.5-.9-.5-1.5s0-.5,0-1c0-.5,0-.9,0-1.1v-14.7c0-.2-.1-.5-.3-.9-.2-.3-.3-.6-.3-.8s0-.3.2-.5c.3-.6,1.4-.9,3.2-.9s2.2.3,2.4,1c0,.3.1.5.1.7,0,.3-.1.5-.3.7-.2.2-.3.3-.3.5v1.4c0,0,3.5-3.6,3.5-3.6.4-.4.8-.9,1.2-1.3.4-.4.9-.7,1.5-.7.9,0,1.7.1,2.6.6.8.5,1.2,1.1,1.2,1.8s0,.3,0,.4Z" fill="#222"/>
    <path d="M186.3,553.7c1.8,1.8,2.6,4.8,2.6,9s-.6,6.1-1.8,8.4c-1.4,2.6-3.3,3.9-5.7,3.9s-4.3-1.2-5.6-3.5c-1.2-2-1.7-4.6-1.7-7.8s.4-5.3,1.3-7.5c.9-2.4,2.1-3.7,3.6-4.2.8-.2,1.5-.3,2.4-.3,2,0,3.7.7,4.9,2ZM181.8,555.6c-.9,0-1.6.7-2.2,2.4-.5,1.5-.8,3.2-.8,4.9,0,2.5.1,4.2.3,5.2.4,1.8,1.1,2.8,2.3,3,.7.1,1.4-.9,2-3,.6-2,.9-4.2.9-6.6,0-3.8-.8-5.8-2.5-6Z" fill="#222"/>
    <path d="M206.8,554.8c0,.4,0,.8-.2,1.3-.3.6-.4,1-.5,1.3,0,5.4-.2,9.2-.7,11.3-1,4.5-3,6.7-6.2,6.7-4.6,0-6.9-4.2-6.9-12.5s.2-4.6.5-7.1c-.2-.6-.3-1.1-.3-1.6,0-.8.2-1.4.7-1.9.4-.4,1-.7,1.8-.7s1.3.1,1.8.4c.6.3.9.6,1,1,0,.2,0,.4,0,.5,0,.3-.1.9-.4,1.6-.3.7-.4,1.4-.4,1.8-.3,1.5-.4,3.3-.4,5.5s.1,4.1.4,5.6c.4,1.7.9,2.6,1.5,2.6,1.1,0,1.8-1.9,2.2-5.6.2-1.9.3-4.8.3-8.9s0-.6-.1-1.1-.1-.9-.1-1.1c0-.6.2-1.1.7-1.3.3-.1.6-.2,1.1-.2.9,0,1.7.2,2.4.5.9.4,1.3,1,1.5,1.8Z" fill="#222"/>
    <path d="M223.4,553.1c0,2.3.2,6,.4,11.1.1,3.6.2,6.2.2,7.8,0,3.5-.3,5.8-.8,7.1-.5,1.3-1.7,1.9-3.3,2.1-2.1.2-3.9-.4-5.5-1.6-.8-.2-1.3-.4-1.5-.5-.4-.3-.7-.7-.9-1.3-.2-1.2.7-1.8,2.9-1.8s1.1,0,1.6.2c.4,0,.8.4,1.2.9.4.5.9.8,1.3.8.8,0,1.1-1,1.1-3.2s0-2.5-.2-4.6c-.9,1.6-1.6,2.6-2,3.1-.9.9-1.9,1.3-3,1.3s-2.9-1.1-3.9-3.4c-.9-2.1-1.4-4.6-1.4-7.5s.5-5.6,1.5-7.7c1.1-2.4,2.6-3.6,4.6-3.6,1,0,1.8.2,2.3.6.5.4,1,.9,1.5,1.4-.3-.9-.3-1.6.2-2.1.3-.3.7-.4,1.3-.4s1.1.1,1.6.4c.5.3.9.6,1.1,1.1ZM218.7,563.1c.1-1.5,0-3-.5-4.3-.5-1.5-1.2-2.3-2-2.3s-1.3.8-1.8,2.3c-.5,1.4-.7,2.8-.8,4.3,0,1.6,0,3,.4,4.3.4,1.5.9,2.3,1.5,2.3s1.2-.7,2-2.2c.8-1.5,1.2-2.9,1.3-4.4Z" fill="#222"/>
    <path d="M243.1,570.6c.2.7.2,1.1.2,1.3,0,.5-.3,1-1,1.4-.6.4-1.3.5-2.1.5-1.1,0-1.8-.4-2.2-1.3-.1-.3-.2-.6-.2-.9,0-.3.2-.7.5-1.1.3-.4.5-.8.5-1.1.3-1.4.5-3.3.5-5.9,0-4.4-.3-6.7-.9-6.8-.5,0-1.2.7-2.3,2.2-1.1,1.6-2,3.5-2.7,5.5-.9,2.4-1.2,4.5-1.1,6.4,0,.2-.1.3-.1.5,0,.2.1.6.3,1,.2.4.3.8.3,1s0,.5-.3.7c-.7,1-1.4,1.5-2.1,1.5s-1.4-.6-2.1-1.7c-.4-.7-.6-4.6-.6-11.7s0-8.6.2-17.9c0-.2,0-.4,0-.7,0-.3,0-.6,0-.8,0-.3.1-.5.2-.7.3-.5.9-.8,1.8-.8s1.6.2,2.3.7c.7.4,1,1,.8,1.6,0,.2-.2.3-.4.5-.2.2-.3.4-.3.6v12.6c1.5-3.3,3.7-5.1,6.6-5.3,1.6-.1,2.8,1.1,3.8,3.5.9,2.3,1.3,5,1.3,8.3s-.3,4.8-.8,6.8Z" fill="#222"/>
    <path d="M259.5,553.7c1.8,1.8,2.6,4.8,2.6,9s-.6,6.1-1.8,8.4c-1.4,2.6-3.3,3.9-5.7,3.9s-4.3-1.2-5.6-3.5c-1.2-2-1.7-4.6-1.7-7.8s.4-5.3,1.3-7.5c.9-2.4,2.1-3.7,3.6-4.2.8-.2,1.5-.3,2.4-.3,2,0,3.7.7,4.9,2ZM255,555.6c-.9,0-1.6.7-2.2,2.4-.5,1.5-.8,3.2-.8,4.9,0,2.5.1,4.2.3,5.2.4,1.8,1.1,2.8,2.3,3,.7.1,1.4-.9,2-3,.6-2,.9-4.2.9-6.6,0-3.8-.8-5.8-2.5-6Z" fill="#222"/>
    <path d="M280,554.8c0,.4,0,.8-.2,1.3-.3.6-.4,1-.5,1.3,0,5.4-.2,9.2-.7,11.3-1,4.5-3,6.7-6.2,6.7-4.6,0-6.9-4.2-6.9-12.5s.2-4.6.5-7.1c-.2-.6-.3-1.1-.3-1.6,0-.8.2-1.4.7-1.9.4-.4,1-.7,1.8-.7s1.3.1,1.8.4c.6.3.9.6,1,1,0,.2,0,.4,0,.5,0,.3-.1.9-.4,1.6-.3.7-.4,1.4-.4,1.8-.3,1.5-.4,3.3-.4,5.5s.1,4.1.4,5.6c.4,1.7.9,2.6,1.5,2.6,1.1,0,1.8-1.9,2.2-5.6.2-1.9.3-4.8.3-8.9s0-.6-.1-1.1-.1-.9-.1-1.1c0-.6.2-1.1.7-1.3.3-.1.6-.2,1.1-.2.9,0,1.7.2,2.4.5.9.4,1.3,1,1.5,1.8Z" fill="#222"/>
    <path d="M297,556.1c-.2,0-.5,0-1-.3-.4-.2-.8-.3-1-.3s-.4,0-.5.1l-1.5.7v13.4c0,.5.3,1.1.8,1.9.5.8.8,1.4.6,1.9-.1.6-.5,1-1.2,1.4-.6.3-1.3.5-2.1.5-1.4,0-2.3-.6-2.9-1.8-.2-.4-.2-1.5-.3-3.5,0-1.3,0-3.4,0-6.1,0-3.1,0-5.1,0-6-.2,0-.4.2-.8.5s-.7.5-1.1.5-.7,0-1.1-.2c-1.8-.6-2.7-1.3-2.7-1.9s0-.3.1-.5c.2-.4.5-.7,1-.7.8-.1,1.2-.2,1.4-.3.6-.2,1.7-.8,3.3-1.7v-3.4c0-.3,0-.6-.2-1-.1-.4-.2-.8-.2-1s0-.5.2-.7c.7-1,1.6-1.6,2.7-1.6s2.3.5,2.8,1.6c.2.4.3.8.3,1s-.2.6-.5,1c-.3.3-.5.7-.5.9v1.9c.5-.2,1-.6,1.6-1.1.4-.4.8-.5,1.1-.5s.3,0,.4,0c1.6.4,2.5,1.4,2.5,3s-.2,1-.5,1.4c-.3.4-.7.7-1.2.7Z" fill="#222"/>
    <path d="M320.9,556.1c-.2,0-.5,0-1-.3-.4-.2-.8-.3-1-.3s-.4,0-.5.1l-1.5.7v13.4c0,.5.3,1.1.8,1.9.5.8.8,1.4.6,1.9-.1.6-.5,1-1.2,1.4-.6.3-1.3.5-2.1.5-1.4,0-2.3-.6-2.9-1.8-.2-.4-.2-1.5-.3-3.5,0-1.3,0-3.4,0-6.1,0-3.1,0-5.1,0-6-.2,0-.4.2-.8.5s-.7.5-1.1.5-.7,0-1.1-.2c-1.8-.6-2.7-1.3-2.7-1.9s0-.3.1-.5c.2-.4.5-.7,1-.7.8-.1,1.2-.2,1.4-.3.6-.2,1.7-.8,3.3-1.7v-3.4c0-.3,0-.6-.2-1-.1-.4-.2-.8-.2-1s0-.5.2-.7c.7-1,1.6-1.6,2.7-1.6s2.3.5,2.8,1.6c.2.4.3.8.3,1s-.2.6-.5,1c-.3.3-.5.7-.5.9v1.9c.5-.2,1-.6,1.6-1.1.4-.4.8-.5,1.1-.5s.3,0,.4,0c1.6.4,2.5,1.4,2.5,3s-.2,1-.5,1.4c-.3.4-.7.7-1.2.7Z" fill="#222"/>
    <path d="M340.9,570.6c.2.7.2,1.1.2,1.3,0,.5-.3,1-1,1.4-.6.4-1.3.5-2.1.5-1.1,0-1.8-.4-2.2-1.3-.1-.3-.2-.6-.2-.9,0-.3.1-.7.5-1.1.3-.4.5-.8.5-1.1.3-1.4.5-3.3.5-5.9,0-4.4-.3-6.7-.9-6.8-.5,0-1.2.7-2.3,2.2s-2,3.5-2.7,5.5c-.9,2.4-1.2,4.5-1.1,6.4,0,.2-.1.3-.1.5,0,.2.1.6.3,1,.2.4.3.8.3,1s0,.5-.3.7c-.7,1-1.4,1.5-2.1,1.5s-1.4-.6-2.1-1.7c-.4-.7-.6-4.6-.6-11.7s0-8.6.2-17.9c0-.2,0-.4,0-.7,0-.3,0-.6,0-.8,0-.3.1-.5.2-.7.3-.5.9-.8,1.8-.8s1.6.2,2.3.7c.7.4,1,1,.8,1.6,0,.2-.2.3-.4.5-.2.2-.3.4-.3.6v12.6c1.5-3.3,3.7-5.1,6.6-5.3,1.6-.1,2.8,1.1,3.8,3.5.9,2.3,1.3,5,1.3,8.3s-.3,4.8-.8,6.8Z" fill="#222"/>
    <path d="M359.2,569.8c-.2,1-.9,2.1-2.1,3.2-.2.3-.9.7-2.2,1.1-1.4.5-2.7.8-3.7.7-2-.1-3.5-1.3-4.6-3.4-1-2-1.5-4.4-1.5-7.2s.6-5.8,1.7-8.1c1.3-2.6,3-4,5.1-4.3.4,0,.8,0,1.2,0,3.1,0,4.8,1.9,5.1,5.7.2,1.8-.5,3.7-2.1,5.7-1.7,2.3-3.8,3.9-6.4,4.8.3,1,.5,1.7.7,2,.4.7.9,1,1.5,1s1.2-.2,1.9-.7c.6-.4,1-.8,1.2-1.1.1,0,.2-.3.3-.9s.4-.9.8-1.2c.2,0,.3-.1.5-.1.6,0,1.2.3,1.8.9s.8,1.2.7,1.9ZM353,556c-1,0-1.9.7-2.6,2.2-.9,2-1.2,4-1.1,5.9,1.2-.4,2.4-1.3,3.4-2.7s1.6-2.7,1.6-3.8-.5-1.5-1.4-1.5Z" fill="#222"/>
    <path d="M387,554.4c0,.5,0,1.1-.4,1.7-.6,1-.9,1.5-.9,1.6-1.1,2.6-2.8,6.8-5.1,12.6-1,2.8-1.7,5.3-2,7.5,0,.2,0,.7,0,1.4,0,.6,0,1-.3,1.3-.4.5-1,.8-1.9.8-1.5,0-2.5-.6-2.9-1.7-.1-.3-.2-.5-.2-.7s.1-.6.3-.9c.2-.3.3-.6.4-.8l.9-4.9-5.7-16.3c0-.2-.3-.6-.6-1.3-.2-.5-.4-.9-.4-1.2s0-.4,0-.5c.3-.9,1.2-1.4,2.7-1.4s1.7.2,2.2.5c.7.4,1,1.1,1.1,2.1.1,1.6.2,2.5.3,2.7l2.6,8.2,4-10.1c0,0,.1-.7.4-1.7.1-.7.4-1.1.8-1.3.3-.2.6-.2.9-.2.8,0,1.5.3,2.3.8.8.6,1.2,1.2,1.3,2Z" fill="#222"/>
    <path d="M402.4,569.8c-.2,1-.9,2.1-2.1,3.2-.2.3-.9.7-2.2,1.1-1.4.5-2.7.8-3.7.7-2-.1-3.5-1.3-4.6-3.4-1-2-1.5-4.4-1.5-7.2s.6-5.8,1.7-8.1c1.3-2.6,3-4,5.1-4.3.4,0,.8,0,1.2,0,3.1,0,4.8,1.9,5.1,5.7.2,1.8-.5,3.7-2.1,5.7-1.7,2.3-3.8,3.9-6.4,4.8.3,1,.5,1.7.7,2,.4.7.9,1,1.5,1s1.2-.2,1.9-.7c.6-.4,1-.8,1.2-1.1.1,0,.2-.3.3-.9s.4-.9.8-1.2c.2,0,.3-.1.5-.1.6,0,1.2.3,1.8.9s.8,1.2.7,1.9ZM396.2,556c-1,0-1.9.7-2.6,2.2-.9,2-1.2,4-1.1,5.9,1.2-.4,2.4-1.3,3.4-2.7s1.6-2.7,1.6-3.8-.5-1.5-1.4-1.5Z" fill="#222"/>
    <path d="M422.8,572.3c-.4,1.3-1.4,1.9-2.9,1.9s-.9,0-1.3-.3c-.4-.3-.7-.9-.9-1.7-.3-1.5-.6-2.7-.9-3.5,0,1.4-.9,2.9-2.4,4.4-1.5,1.5-3,2.2-4.5,2.2s-3.2-1.3-4-3.8c-.3-.9-.4-1.8-.4-2.7,0-2.4,1.2-4.5,3.7-6.2,2-1.2,4.1-2.4,6.2-3.6.1-.4.2-.9.2-1.3,0-.8-.2-1.3-.7-1.4-.4-.1-.8-.2-1.1-.2-.5,0-1,.2-1.4.5-.4.4-.7.7-1,1-.3.2-.7.7-1.2,1.5-.4.6-.8.9-1.3,1-.7,0-1.3-.2-1.8-.7-.5-.5-.8-1.2-.8-1.9s.1-.8.3-1.1c.6-1,1.5-1.9,2.7-2.6,1.8-1.1,4.1-1.6,6.9-1.6s3,.8,3.6,2.5c.4,1.1.7,3.2.9,6.3.2,3.7.5,6.5.9,8.2,0,.3.3.8.7,1.3.4.5.6,1,.6,1.4s0,.4,0,.5ZM416,562.6c-.8.4-1.6.9-2.3,1.3-.8.4-1.5,1-2.1,1.8-.9,1.1-1.4,2-1.4,2.7s.2,1.3.7,2c.3.4.5.5.9.5.7,0,1.4-.8,2.2-2.3.8-1.5,1.5-3.5,2.1-6Z" fill="#222"/>
    <path d="M441,553.9c-.1.5-.6.9-1.5,1.1-1,.3-1.7.6-2,.9l-6.4,7.4v6c0,.6.2,1.2.5,1.7s.5,1,.5,1.4,0,.7-.3,1.1c-.4,1-1.3,1.5-2.7,1.5s-1.7-.3-2.2-.9c-.4-.4-.5-.9-.5-1.5s0-.5,0-1c0-.5,0-.9,0-1.1v-14.7c0-.2-.1-.5-.3-.9-.2-.3-.3-.6-.3-.8s0-.3.2-.5c.3-.6,1.4-.9,3.2-.9s2.2.3,2.4,1c0,.3.1.5.1.7,0,.3-.1.5-.3.7-.2.2-.3.3-.3.5v1.4c0,0,3.5-3.6,3.5-3.6.4-.4.8-.9,1.2-1.3.4-.4.9-.7,1.5-.7.9,0,1.7.1,2.6.6.8.5,1.2,1.1,1.2,1.8s0,.3,0,.4Z" fill="#222"/>
    <path d="M246.7,619.4c-.4,1.3-1.4,1.9-2.9,1.9s-.9,0-1.3-.3c-.4-.3-.7-.9-.9-1.7-.3-1.5-.6-2.7-.9-3.5,0,1.4-.9,2.9-2.4,4.4-1.5,1.5-3,2.2-4.5,2.2s-3.2-1.3-4-3.8c-.3-.9-.4-1.8-.4-2.7,0-2.4,1.2-4.5,3.7-6.2,2-1.2,4.1-2.4,6.2-3.6.1-.4.2-.9.2-1.3,0-.8-.2-1.3-.7-1.4-.4-.1-.8-.2-1.1-.2-.5,0-1,.2-1.4.5-.4.4-.7.7-1,1-.3.2-.7.7-1.2,1.5-.4.6-.8.9-1.3,1-.7,0-1.3-.2-1.8-.7s-.8-1.2-.8-1.9.1-.8.3-1.1c.6-1,1.5-1.9,2.7-2.6,1.8-1.1,4.1-1.6,6.9-1.6s3,.8,3.6,2.5c.4,1.1.7,3.2.9,6.3.2,3.7.5,6.5.9,8.2,0,.3.3.8.7,1.3.4.5.6,1,.6,1.4s0,.4,0,.5ZM239.9,609.7c-.8.4-1.6.9-2.3,1.3-.8.4-1.5,1-2.1,1.8-.9,1.1-1.4,2-1.4,2.7s.2,1.3.7,2c.3.4.5.5.9.5.7,0,1.4-.8,2.2-2.3.8-1.5,1.5-3.5,2.1-6Z" fill="#222"/>
    <path d="M265.5,617.7c.2.7.2,1.1.2,1.3,0,.5-.3,1-1,1.4-.6.4-1.3.5-2.1.5-1.1,0-1.8-.4-2.2-1.3-.1-.3-.2-.6-.2-.9,0-.3.2-.7.5-1.1.3-.4.5-.8.5-1.1.3-1.4.5-3.3.5-5.9,0-4.4-.3-6.7-.9-6.8-.5,0-1.2.7-2.3,2.2-1.1,1.6-2,3.5-2.7,5.5-.9,2.4-1.2,4.5-1.1,6.4,0,.2-.1.3-.1.5,0,.2.1.6.3,1,.2.4.3.8.3,1s0,.5-.3.7c-.7,1-1.4,1.5-2.1,1.5s-1.4-.6-2.1-1.7c-.4-.7-.6-4.6-.6-11.7s0-8.6.2-17.9c0-.2,0-.4,0-.7,0-.3,0-.6,0-.8,0-.3.1-.5.2-.7.3-.5.9-.8,1.8-.8s1.6.2,2.3.7c.7.4,1,1,.8,1.6,0,.2-.2.3-.4.5-.2.2-.3.4-.3.6v12.6c1.5-3.3,3.7-5.1,6.6-5.3,1.6-.1,2.8,1.1,3.8,3.5.9,2.3,1.3,5,1.3,8.3s-.3,4.8-.8,6.8Z" fill="#222"/>
    <path d="M283.8,616.9c-.2,1-.9,2.1-2.1,3.2-.2.3-.9.7-2.2,1.1-1.4.5-2.7.8-3.7.7-2-.1-3.5-1.3-4.6-3.4-1-2-1.5-4.4-1.5-7.2s.6-5.8,1.7-8.1c1.3-2.6,3-4,5.1-4.3.4,0,.8,0,1.2,0,3.1,0,4.8,1.9,5.1,5.7.2,1.8-.5,3.7-2.1,5.7-1.7,2.3-3.8,3.9-6.4,4.8.3,1,.5,1.7.7,2,.4.7.9,1,1.5,1s1.2-.2,1.9-.7c.6-.4,1-.8,1.2-1.1.1,0,.2-.3.3-.9s.4-.9.8-1.2c.2,0,.3-.1.5-.1.6,0,1.2.3,1.8.9s.8,1.2.7,1.9ZM277.6,603.1c-1,0-1.9.7-2.6,2.2-.9,2-1.2,4-1.1,5.9,1.2-.4,2.4-1.3,3.4-2.7,1-1.4,1.6-2.7,1.6-3.8s-.5-1.5-1.4-1.5Z" fill="#222"/>
    <path d="M304.2,619.4c-.4,1.3-1.4,1.9-2.9,1.9s-.9,0-1.3-.3c-.4-.3-.7-.9-.9-1.7-.3-1.5-.6-2.7-.9-3.5,0,1.4-.9,2.9-2.4,4.4-1.5,1.5-3,2.2-4.5,2.2s-3.2-1.3-4-3.8c-.3-.9-.4-1.8-.4-2.7,0-2.4,1.2-4.5,3.7-6.2,2-1.2,4.1-2.4,6.2-3.6.1-.4.2-.9.2-1.3,0-.8-.2-1.3-.7-1.4-.4-.1-.8-.2-1.1-.2-.5,0-1,.2-1.4.5-.4.4-.7.7-1,1-.3.2-.7.7-1.2,1.5-.4.6-.8.9-1.3,1-.7,0-1.3-.2-1.8-.7-.5-.5-.8-1.2-.8-1.9s.1-.8.3-1.1c.6-1,1.5-1.9,2.7-2.6,1.8-1.1,4.1-1.6,6.9-1.6s3,.8,3.6,2.5c.4,1.1.7,3.2.9,6.3.2,3.7.5,6.5.9,8.2,0,.3.3.8.7,1.3.4.5.6,1,.6,1.4s0,.4,0,.5ZM297.4,609.7c-.8.4-1.6.9-2.3,1.3-.8.4-1.5,1-2.1,1.8-.9,1.1-1.4,2-1.4,2.7s.2,1.3.7,2c.3.4.5.5.9.5.7,0,1.4-.8,2.2-2.3.8-1.5,1.5-3.5,2.1-6Z" fill="#222"/>
    <path d="M321.4,620.8c-.3.7-1.3,1.1-2.9,1.1s-1.7-.2-2-.6c-.1-.1-.2-.3-.2-.5s0-.5.2-.9.2-.7.2-.9c-1.2,1.7-2.6,2.6-4.2,2.6s-3.8-1.2-4.8-3.7c-.8-1.9-1.1-4.3-1.1-7.3s.6-5.3,1.8-7.6c1.3-2.5,2.9-3.7,4.8-3.7s2.2.9,3.3,2.6v-5.1c0-.4-.2-1-.5-1.6-.3-.7-.5-1.2-.5-1.5s0-.5.2-.8c.5-1.2,1.6-1.8,3.2-1.8s2.1.5,2.4,1.4c.1.3.2.6.2.9s0,.7-.3,1.2c-.2.5-.3.9-.3,1.2v22.4c0,.3.1.6.3,1,.2.4.3.7.3,1s0,.4-.2.7ZM315.9,610.4c0-1.2-.2-2.6-.7-4.2-.5-1.7-1.1-2.6-1.6-2.6s-1.1.8-1.5,2.4c-.3,1.3-.4,2.8-.4,4.4s0,.8,0,1.4v1.5c0,3,.6,4.4,1.9,4.4s1.2-.9,1.6-2.6c.5-1.6.7-3.2.7-4.8Z" fill="#222"/>
    <path d="M330.7,616.6c0,.3,0,.7,0,1.1-.2.7-.3,1-.4,1.1,0,.4,0,.9,0,1.3,0,.5-.2.8-.4,1.1-.2.3-.7.4-1.5.4s-1.4-.1-1.9-.4c-.7-.3-1-.7-1-1.3,0-.2,0-.5.2-.9.1-.3.2-.6.3-.8,0-.2,0-.7,0-1.5,0-.6.1-1,.5-1.3.3-.3.8-.4,1.4-.4s1.3.2,1.9.5,1,.7,1.1,1.2Z" fill="#222"/>
  </g>
</svg>