<?xml version="1.0" encoding="utf-8"?>
<!-- Generator: Adobe Illustrator 30.1.0, SVG Export Plug-In . SVG Version: 9.03 Build 0)  -->
<svg version="1.0" id="Layer_1" xmlns="http://www.w3.org/2000/svg" xmlns:xlink="http://www.w3.org/1999/xlink" x="0px" y="0px"
	 viewBox="0 0 227.4 231.4" enable-background="new 0 0 227.4 231.4" xml:space="preserve">
<g>
	<path fill="#B1B1B1" d="M218.8,103.2c-1.3,50.8-51.5,100.9-96.1,120c-35,9.5-88.8-50.5-103.5-79.2c-39.6-66,41.2-129.4,94.6-74.4
		C146.9,30,215.2,51.4,218.8,103.2z"/>
	<path fill="#5D5D5D" d="M220.7,94.9c-1.4,51.7-52.4,102.7-97.8,122.1c-35.7,9.7-90.4-51.4-105.4-80.6
		c-40.3-67.1,42-131.8,96.3-75.7C147.5,20.3,217,42.1,220.7,94.9z"/>
	<path fill="#5E5E5E" d="M220.7,87.7c-1.4,51.7-52.4,102.7-97.8,122.1c-35.7,9.7-90.4-51.4-105.4-80.6
		c-40.3-67.1,42-131.8,96.3-75.7C147.5,13.1,217,34.9,220.7,87.7z"/>
	
		<radialGradient id="SVGID_1_" cx="92.005" cy="508.4617" r="131.6013" fx="71.7914" fy="499.204" gradientTransform="matrix(1 0 0 -1.0463 0 625.3217)" gradientUnits="userSpaceOnUse">
		<stop  offset="0" style="stop-color:#AFAFAF"/>
		<stop  offset="1" style="stop-color:#5E5E5E"/>
	</radialGradient>
	<path fill="url(#SVGID_1_)" stroke="#5F5F5F" stroke-width="1.8817" stroke-miterlimit="10" d="M218.8,81.1
		c-1.3,50.8-51.5,100.9-96.1,120c-35,9.5-88.8-50.5-103.5-79.2C-20.4,56,60.4-7.5,113.8,47.6C146.9,7.9,215.2,29.2,218.8,81.1z"/>
	<g>
		<g>
			<defs>
				<path id="SVGID_00000048487619489957654460000002177166974058245293_" d="M218.8,81.1c-1.3,50.8-51.5,100.9-96.1,120
					c-35,9.5-88.8-50.5-103.5-79.2C-20.4,56,60.4-7.5,113.8,47.6C146.9,7.9,215.2,29.2,218.8,81.1z"/>
			</defs>
			<clipPath id="SVGID_00000070824535051968974550000018114070173578555528_">
				<use xlink:href="#SVGID_00000048487619489957654460000002177166974058245293_"  overflow="visible"/>
			</clipPath>
			
				<circle clip-path="url(#SVGID_00000070824535051968974550000018114070173578555528_)" fill="#8B8B8B" cx="48.2" cy="29.4" r="114.7"/>
			
				<use xlink:href="#SVGID_00000048487619489957654460000002177166974058245293_"  overflow="visible" fill="none" stroke="#A9A9AA" stroke-miterlimit="10"/>
		</g>
		<g>
			<defs>
				<path id="SVGID_00000093881457675964562210000018136857713347071895_" d="M212.7-76.8C247.7-40,247.7,30.9,229.6,76
					c-18,31.5-98.5,27.1-129.2,17.2C25.8,74.5,38.1-27.5,114.8-26.3C110.1-77.8,173.5-111,212.7-76.8z"/>
			</defs>
			<clipPath id="SVGID_00000170245781940591075500000005788878670665924244_">
				<use xlink:href="#SVGID_00000093881457675964562210000018136857713347071895_"  overflow="visible"/>
			</clipPath>
		</g>
	</g>
	<path fill="#FFFFFF" d="M39.6,51.5C32.1,60,27.5,68.1,29.3,69.8c1.8,1.6,9.4-3.9,17-12.3s12.1-16.6,10.3-18.3
		C54.7,37.5,47.1,43.1,39.6,51.5z"/>
	<path fill="#FFFFFF" d="M30.2,92.7c0-6.1-1.1-11.1-2.4-11.1s-2.4,5-2.4,11.1s1.1,11.1,2.4,11.1S30.2,98.9,30.2,92.7z"/>
</g>
</svg>
