<?xml version="1.0" encoding="utf-8"?>
<!-- Generator: Adobe Illustrator 30.1.0, SVG Export Plug-In . SVG Version: 9.03 Build 0)  -->
<svg version="1.0" id="Layer_1" xmlns="http://www.w3.org/2000/svg" xmlns:xlink="http://www.w3.org/1999/xlink" x="0px" y="0px"
	 viewBox="0 0 227.4 231.4" enable-background="new 0 0 227.4 231.4" xml:space="preserve">
<g>
	<path fill="#C13909" d="M220.7,88.3c-1.4,51.7-52.4,102.7-97.8,122.1c-35.7,9.7-90.4-51.4-105.4-80.6C-22.8,62.7,59.5-2,113.8,54.1
		C147.5,13.7,217,35.5,220.7,88.3z"/>
	<path fill="#D1330F" d="M220.7,81.1c-1.4,51.7-52.4,102.7-97.8,122.1c-35.7,9.7-90.4-51.4-105.4-80.6
		c-40.3-67.1,42-131.8,96.3-75.7C147.5,6.5,217,28.3,220.7,81.1z"/>
	
		<radialGradient id="SVGID_1_" cx="91.9372" cy="4.4238" r="131.6013" fx="71.7236" fy="-4.8339" gradientTransform="matrix(1 0 0 -1.0463 0 91.3217)" gradientUnits="userSpaceOnUse">
		<stop  offset="0" style="stop-color:#FFA509"/>
		<stop  offset="1" style="stop-color:#FF1919"/>
	</radialGradient>
	<path fill="url(#SVGID_1_)" stroke="#CE360D" stroke-width="1.8817" stroke-miterlimit="10" d="M218.8,74.5
		c-1.3,50.8-51.5,100.9-96.1,120c-35,9.5-88.8-50.5-103.5-79.2C-20.4,49.4,60.4-14.1,113.8,41C146.9,1.3,215.2,22.6,218.8,74.5z"/>
	<g>
		<g>
			<g>
				<g>
					<defs>
						<path id="SVGID_00000030471054407389986600000010914528276564893366_" d="M218.8,74.5c-1.3,50.8-51.5,100.9-96.1,120
							c-35,9.5-88.8-50.5-103.5-79.2C-20.4,49.4,60.4-14.1,113.8,41C146.9,1.3,215.2,22.6,218.8,74.5z"/>
					</defs>
					<clipPath id="SVGID_00000145024509623614032570000015007988593323344564_">
						<use xlink:href="#SVGID_00000030471054407389986600000010914528276564893366_"  overflow="visible"/>
					</clipPath>
					
						<circle clip-path="url(#SVGID_00000145024509623614032570000015007988593323344564_)" fill="#EF6E16" cx="48.2" cy="22.8" r="114.7"/>
				</g>
			</g>
		</g>
	</g>
	<path fill="#FFFFFF" d="M39.6,44.9c-7.5,8.5-12.1,16.6-10.3,18.3c1.8,1.6,9.4-3.9,17-12.3s12.1-16.6,10.3-18.3
		C54.7,30.9,47.1,36.5,39.6,44.9z"/>
	<path fill="#FFFFFF" d="M30.2,86.1c0-6.1-1.1-11.1-2.4-11.1s-2.4,5-2.4,11.1s1.1,11.1,2.4,11.1S30.2,92.3,30.2,86.1z"/>
	<g>
		<g>
			<g>
				<g>
					<defs>
						<path id="SVGID_00000011715689409580671450000008911093942020216215_" d="M218.8,74.5c-1.3,50.8-51.5,100.9-96.1,120
							c-35,9.5-88.8-50.5-103.5-79.2C-20.4,49.4,60.4-14.1,113.8,41C146.9,1.3,215.2,22.6,218.8,74.5z"/>
					</defs>
					<clipPath id="SVGID_00000065068116108871635800000000908776480578994821_">
						<use xlink:href="#SVGID_00000011715689409580671450000008911093942020216215_"  overflow="visible"/>
					</clipPath>
					
						<circle clip-path="url(#SVGID_00000065068116108871635800000000908776480578994821_)" fill="none" cx="48.2" cy="22.8" r="114.7"/>
				</g>
				<g>
					
						<path id="SVGID_00000023281804034152840850000011485988302188655777_" fill="none" stroke="#FFFFFF" stroke-width="12" stroke-miterlimit="10" d="
						M218.8,74.5c-1.3,50.8-51.5,100.9-96.1,120c-35,9.5-88.8-50.5-103.5-79.2C-20.4,49.4,60.4-14.1,113.8,41
						C146.9,1.3,215.2,22.6,218.8,74.5z"/>
				</g>
			</g>
		</g>
	</g>
</g>
</svg>
