<?xml version="1.0" encoding="UTF-8"?>
<svg id="Layer_1" xmlns="http://www.w3.org/2000/svg" version="1.1" viewBox="0 0 1080 1920">
  <!-- Generator: Adobe Illustrator 30.1.0, SVG Export Plug-In . SVG Version: 2.1.1 Build 136)  -->
  <path d="M631.8,991c-84.5,58.4-190.5,49.5-236.8-19.9s-15.3-173,69.2-231.4c84.5-58.4,190.5-49.5,236.8,19.9s15.3,173-69.2,231.4" fill="#221f20"/>
  <path d="M629.1,978.4c-79.3,54.9-178.9,46.5-222.3-18.7s-14.3-162.5,65-217.4c79.3-54.9,178.9-46.5,222.3,18.7s14.3,162.5-65,217.4" fill="#f34"/>
  <path d="M645.4,819.7c-7.1-7-18.6-20.8-21.8-38.7-1-5.4-2.6-11-6.6-14.8-39.4-38-92.8-40.3-130.3-33.5-13.4-.9-51-11.9-64.5,4.1-8,9.4-4.5,24.3-2.3,32.2.4,1.4,3.6,8.7,2.6,9.7-.1.2,2.6,1.4,2.4,1.5-44.2,54.8-60.7,138.4-21.7,186,50,61,140.7,56.8,192.2,31.1-125.3,40.4-108.7-136.7-26.6-99.7,8.8,3.9,27.5,10.9,38.5,8.5,15.2-3.3,18.8-15.6,22.8-25.4l18.1-48.3c1.7-4.5.6-9.5-2.8-12.8" fill="#221f20"/>
  <path d="M605.5,832.4c-.2,1.2-2,1.1-2.1,0-1.3-16.1-8.8-43-59.9-39.9-1.4,0-1.7-.8-.4-1.2,23.1-5.8,50-2.4,58.2-.2,2.1.6,0,6.6.2,8.8,1.1,6.7,7.1,17.2,4,32.7M536.6,761.4c-4.7-.6-8.1-3.8-7.7-7.1.4-3.4,4.6-5.6,9.2-5,4.7.6,8.1,3.8,7.7,7.1-.4,3.4-4.6,5.6-9.2,5M559,759.2c.7-2.2,3.7-3.2,6.8-2.2s4.9,3.5,4.3,5.7c-.7,2.2-3.7,3.2-6.8,2.2-3-1-4.9-3.5-4.3-5.7M482.9,759.5c-20.1,0-28.9,16.8-34.5,25-.8-1.2-17.7-26.1-10.6-33.2,6.9-6.9,32.3.9,45.6,5.7,1.4.5,1,2.5-.5,2.5M439.6,820.7c-4.1,7.1-11.1,10.7-15.6,8.1-4.5-2.6-4.8-10.5-.7-17.6,4.1-7.1,11.1-10.7,15.6-8.1,4.5,2.6,4.8,10.5.7,17.6M419.2,856.8c-1.2,6.2-5.3,10.6-9.3,9.9-4-.7-6.2-6.4-5.1-12.6,1.2-6.2,5.3-10.6,9.3-9.9,4,.7,6.2,6.4,5.1,12.6M407.3,894.5c-2.4,0-4.3-3-4.1-6.3.2-3.4,2.3-6,4.7-5.9,2.4,0,4.3,3,4.1,6.3-.2,3.4-2.3,6-4.7,5.9M630.2,829.6c1.8,0,11.4-1.9,11.4-1.9h0c-.6-.3-19-11.3-24.7-42.4-1-5.5-2.9-11.1-7-14.8-48.9-44.7-119.2-28.7-123-24.2-22-5.1-51.2-13-59.3-1.6-4.9,6.9,1.8,17.6,5.5,30.6.3,1,1.4,4.4.2,5.6-101.5,107.4-28.8,270.3,134.5,226.6-4.5,1-11.9,1.8-16.7,1.8-34.8,0-58.9-27.1-58.9-61.8s3.5-23.5,9.5-33.2c-14.3,11.3-23.7,28.5-24.8,47.6-.6-2.5-1-5.1-1.3-7.7-3.9-36.7,20.9-69.5,55.9-75.8,10.2-2.9,23-2.5,38.5,2.2,9.9,3,28.1,12.9,41,10.7,4.6-.8,8.2-5.1,12.4-15.6l3.9-8.7c-6.5,9.2-44.8,3-37.5-10.7s30,24.2,41.4-2.2h0l3.8-10.5c.8-2.1.2-4.6-1.5-6-5.5-4.6-4.6-7.6-3.3-8" fill="#fff"/>
</svg>