<?xml version="1.0" encoding="UTF-8"?>
<svg id="Layer_1" xmlns="http://www.w3.org/2000/svg" xmlns:xlink="http://www.w3.org/1999/xlink" version="1.1" viewBox="0 0 680.3 566.9">
  <!-- Generator: Adobe Illustrator 30.1.0, SVG Export Plug-In . SVG Version: 2.1.1 Build 136)  -->
  <defs>
    <radialGradient id="radial-gradient" cx="1185.5" cy="3898.4" fx="1185.5" fy="3898.4" r="579.9" gradientTransform="translate(-121.5 -1269.1) scale(.4)" gradientUnits="userSpaceOnUse">
      <stop offset="0" stop-color="#fdb77a"/>
      <stop offset="1" stop-color="#f78f36"/>
    </radialGradient>
    <radialGradient id="radial-gradient1" cx="1186.6" cy="3446.9" fx="1186.6" fy="3446.9" r="298.2" gradientTransform="translate(-121.5 -1269.1) scale(.4)" gradientUnits="userSpaceOnUse">
      <stop offset="0" stop-color="#ff7c00"/>
      <stop offset="1" stop-color="#d57d2f"/>
    </radialGradient>
    <radialGradient id="radial-gradient2" cx="1183.3" cy="6139.5" fx="1183.3" fy="6139.5" r="330.2" gradientTransform="translate(-120.2 -1684.5) scale(.4 .3)" xlink:href="#radial-gradient1"/>
    <radialGradient id="radial-gradient3" cx="1186.6" cy="3986.8" fx="1186.6" fy="3986.8" r="864.1" gradientTransform="translate(-121.5 -1269.1) scale(.4)" gradientUnits="userSpaceOnUse">
      <stop offset=".4" stop-color="#f7e9d8"/>
      <stop offset="1" stop-color="#f9e1c4"/>
    </radialGradient>
    <radialGradient id="radial-gradient4" cx="241.7" cy="2069.5" fx="241.7" fy="2069.5" r="21.4" gradientTransform="translate(0 -1869.1)" gradientUnits="userSpaceOnUse">
      <stop offset="0" stop-color="#f58061"/>
      <stop offset="1" stop-color="#f15d37"/>
    </radialGradient>
    <radialGradient id="radial-gradient5" cx="284.5" cy="2071.7" fx="284.5" fy="2071.7" r="25.2" gradientTransform="translate(0 -1869.1)" gradientUnits="userSpaceOnUse">
      <stop offset="0" stop-color="#f58061"/>
      <stop offset="1" stop-color="#f15d37"/>
    </radialGradient>
    <radialGradient id="radial-gradient6" cx="339" cy="2272.9" fx="339" fy="2272.9" r="24.1" gradientTransform="translate(0 -2070.2)" gradientUnits="userSpaceOnUse">
      <stop offset="0" stop-color="#f58061"/>
      <stop offset="1" stop-color="#f15d37"/>
    </radialGradient>
    <radialGradient id="radial-gradient7" cx="376.5" cy="2071.7" fx="376.5" fy="2071.7" r="19" gradientTransform="translate(0 -1869.1)" gradientUnits="userSpaceOnUse">
      <stop offset="0" stop-color="#f58061"/>
      <stop offset="1" stop-color="#f15d37"/>
    </radialGradient>
    <radialGradient id="radial-gradient8" cx="415.1" cy="2071.8" fx="415.1" fy="2071.8" r="25.4" gradientTransform="translate(0 -1869.1)" gradientUnits="userSpaceOnUse">
      <stop offset="0" stop-color="#f58061"/>
      <stop offset="1" stop-color="#f15d37"/>
    </radialGradient>
  </defs>
  <path d="M536.2,130.4h-.6c-4.4-7.5-12.5-12.8-21.4-13-6.2-.2-12.4-.4-18.6-.5-27.4-18-86.7-32-155-31.9-68.3,0-127.6,13.9-155,31.9-6.2.2-12.4.3-18.6.5-9,.3-17.1,5.6-21.4,13h-.6c-13,.4-24.3,11.2-24.9,24.1-3.7,78.6-3.2,213.7,1.5,292.2.8,12.8,12,23.7,24.9,24.3,4.2,8.2,12.7,14.2,22.1,14.6,114.6,4.3,229.3,4.3,343.9,0,9.4-.4,17.9-6.3,22.1-14.6,12.9-.6,24.1-11.4,24.9-24.3,4.7-78.6,5.2-213.7,1.5-292.2-.6-12.9-11.8-23.7-24.9-24.1h.1Z" fill="#b55107"/>
  <path d="M536.2,126h-.6c-4.4-7.5-12.5-12.8-21.4-13-6.2-.2-12.4-.4-18.6-.5-27.4-18-86.7-32-155-31.9-68.3,0-127.6,13.9-155,31.9-6.2.2-12.4.3-18.6.5-9,.3-17.1,5.6-21.4,13h-.6c-13,.4-24.3,11.2-24.9,24.1-3.7,78.6-3.2,213.7,1.5,292.2.8,12.8,12,23.7,24.9,24.3,4.2,8.2,12.7,14.2,22.1,14.6,114.6,4.3,229.3,4.3,343.9,0,9.4-.4,17.9-6.3,22.1-14.6,12.9-.6,24.1-11.4,24.9-24.3,4.7-78.6,5.2-213.7,1.5-292.2-.6-12.9-11.8-23.7-24.9-24.1h.1Z" fill="#bc6d2e"/>
  <path d="M536.2,119.9h-.6c-4.4-7.5-12.5-12.8-21.4-13-6.2-.2-12.4-.4-18.6-.5-27.4-18-86.7-32-155-31.9-68.3,0-127.6,13.9-155,31.9-6.2.2-12.4.3-18.6.5-9,.3-17.1,5.6-21.4,13h-.6c-13,.4-24.3,11.2-24.9,24.1-3.7,78.6-3.2,213.7,1.5,292.2.8,12.8,12,23.7,24.9,24.3,4.2,8.2,12.7,14.2,22.1,14.6,114.6,4.3,229.3,4.3,343.9,0,9.4-.4,17.9-6.3,22.1-14.6,12.9-.6,24.1-11.4,24.9-24.3,4.7-78.6,5.2-213.7,1.5-292.2-.6-12.9-11.8-23.7-24.9-24.1h.1Z" fill="#f49441"/>
  <path d="M534.3,121.4h-.6c-4.3-7.4-12.3-12.6-21.2-12.9-6.1-.2-12.3-.4-18.4-.5-27.2-17.9-85.9-31.7-153.5-31.6-67.6,0-126.3,13.8-153.5,31.6-6.1.2-12.3.3-18.4.5-8.9.3-16.9,5.5-21.2,12.9h-.6c-12.9.4-24,11.1-24.6,23.9-3.7,77.8-3.2,211.6,1.5,289.4.8,12.7,11.9,23.5,24.6,24.1,4.2,8.2,12.6,14.1,21.9,14.4,113.5,4.2,227,4.2,340.6,0,9.3-.3,17.7-6.3,21.9-14.4,12.8-.6,23.9-11.3,24.6-24.1,4.7-77.8,5.2-211.6,1.5-289.4-.6-12.8-11.7-23.5-24.6-23.9h0Z" fill="#fad73c"/>
  <path d="M533.8,125.1h-.6c-4.3-7.4-12.3-12.6-21.2-12.9-6.1-.2-12.3-.4-18.4-.5-27.2-17.9-85.9-31.7-153.5-31.6-67.6,0-126.3,13.8-153.5,31.6-6.1.2-12.3.3-18.4.5-8.9.3-16.9,5.5-21.2,12.9h-.6c-12.9.4-24,11.1-24.6,23.9-3.7,77.8-3.2,211.6,1.5,289.4.8,12.7,11.9,23.5,24.6,24.1,4.2,8.2,12.6,14.1,21.9,14.4,113.5,4.2,227,4.2,340.6,0,9.3-.3,17.7-6.3,21.9-14.4,12.8-.6,23.9-11.3,24.6-24.1,4.7-77.8,5.2-211.6,1.5-289.4-.6-12.8-11.7-23.5-24.6-23.9h0Z" fill="url(#radial-gradient)"/>
  <path d="M480.9,142.9H200.3c-10.8,0-14.5-16.4-5-22.3,30.7-18.9,84.3-31.4,145.3-31.4s114.6,12.5,145.3,31.4c9.5,5.9,5.9,22.3-5,22.3h0Z" fill="url(#radial-gradient1)"/>
  <path d="M183.3,121.6h314.7c6.4,0,11.5,5.1,11.5,11.5h0c0,6.3-5.1,11.4-11.5,11.4H183.3c-6.4,0-11.5-5.1-11.5-11.4h0c0-6.3,5.1-11.5,11.5-11.5Z" fill="url(#radial-gradient2)"/>
  <path d="M530.2,158.1c-124-5.4-255.3-5.4-379.3,0-7.8.3-14.6,7-15.1,14.7-6.3,90.4-6.6,176-.8,266.4.5,7.8,7.3,14.4,15.1,14.7,1.3,0,2.6.1,4,.2,1.4,6.9,7.7,12.5,14.8,12.8,112.1,4.4,231.4,4.4,343.5,0,7.1-.3,13.4-5.9,14.8-12.8,1.3,0,2.6-.1,4-.2,7.8-.3,14.6-6.9,15.1-14.7,5.8-90.4,5.5-176-.8-266.4-.6-7.8-7.4-14.4-15.1-14.7h-.2Z" fill="url(#radial-gradient3)"/>
  <g>
    <path d="M528.1,413.5c-1.4,5.8-.3,11,3.3,15.8,1.6,2.1,1.3,2.7-1.3,2-5.8-1.4-11-.3-15.8,3.3-2.1,1.6-2.7,1.3-2-1.3,1.4-5.8.3-11-3.3-15.8-1.6-2.1-1.3-2.7,1.3-2,5.8,1.4,11,.3,15.8-3.3,2.1-1.6,2.7-1.3,2,1.3Z" fill="#fdcea2"/>
    <path d="M501.7,418.9c-.8,3.5-.2,6.6,2,9.4,1,1.3.8,1.6-.8,1.2-3.5-.8-6.6-.2-9.4,2-1.3,1-1.6.8-1.2-.8.8-3.5.2-6.6-2-9.4-1-1.3-.8-1.6.8-1.2,3.5.8,6.6.2,9.4-2,1.3-1,1.6-.8,1.2.8Z" fill="#fdcea2"/>
    <path d="M504.7,439.6c-.5,2.2-.1,4.3,1.3,6.1.6.8.5,1-.5.8-2.2-.5-4.3-.1-6.1,1.3-.8.6-1,.5-.8-.5.5-2.2.1-4.3-1.3-6.1-.6-.8-.5-1,.5-.8,2.2.5,4.3.1,6.1-1.3.8-.6,1-.5.8.5Z" fill="#fdcea2"/>
  </g>
  <g>
    <path d="M153.1,413.5c1.4,5.8.3,11-3.3,15.8-1.6,2.1-1.3,2.7,1.3,2,5.8-1.4,11-.3,15.8,3.3,2.1,1.6,2.7,1.3,2-1.3-1.4-5.8-.3-11,3.3-15.8,1.6-2.1,1.3-2.7-1.3-2-5.8,1.4-11,.3-15.8-3.3-2.1-1.6-2.7-1.3-2,1.3Z" fill="#fdcea2"/>
    <path d="M179.5,418.9c.8,3.5.2,6.6-2,9.4-1,1.3-.8,1.6.8,1.2,3.5-.8,6.6-.2,9.4,2,1.3,1,1.6.8,1.2-.8-.8-3.5-.2-6.6,2-9.4,1-1.3.8-1.6-.8-1.2-3.5.8-6.6.2-9.4-2-1.3-1-1.6-.8-1.2.8Z" fill="#fdcea2"/>
    <path d="M176.5,439.6c.5,2.2.1,4.3-1.3,6.1-.6.8-.5,1,.5.8,2.2-.5,4.3-.1,6.1,1.3.8.6,1,.5.8-.5-.5-2.2-.1-4.3,1.3-6.1.6-.8.5-1-.5-.8-2.2.5-4.3.1-6.1-1.3-.8-.6-1-.5-.8.5Z" fill="#fdcea2"/>
  </g>
  <g>
    <path d="M247.6,190.1c0,6.5-1.1,13.1-3.2,19.7-.4,1.5-1.2,2.2-2.3,2.2h-1.6c-.9,0-1.6-.8-2-2.4-2.2-6.9-3.3-13.4-3.3-19.5v-15.2c0-2.7,1.5-4,4.5-4h3.5c2.9,0,4.4,1.3,4.4,4v15.2h0ZM248.1,223.8c0,2.5-.5,4.1-1.4,5s-2.6,1.3-4.9,1.3-4-.4-4.9-1.3c-.9-.8-1.3-2.5-1.3-5.1s.4-4.4,1.3-5.3c.8-.9,2.5-1.3,5-1.3s4.3.4,5.1,1.3c.8.8,1.2,2.6,1.2,5.3h-.1Z" fill="url(#radial-gradient4)"/>
    <path d="M307.7,201.9c0,9.1-1.5,15.7-4.5,19.8-3.8,5.3-10,8-18.6,8h-.1c-9.2,0-15.7-2.6-19.2-7.7-2.7-3.8-4-10.2-4-19.1s1-15.8,3-19.1c3.4-5.5,10.1-8.2,20.3-8.2h.1c12,0,19.1,3.9,21.4,11.8,1.1,3.4,1.7,8.3,1.7,14.5h0ZM295.6,208v-11c0-3.7-.7-6.4-2-8.2-1.5-2-4.2-3-8-3h-2.9c-3.7,0-6.1.9-7.5,2.7-1.2,1.5-1.8,4.2-1.8,8v11.6c0,3.9.6,6.7,1.8,8.4,1.5,2,4.3,3,8.4,3h2c6.7,0,10-3.8,10-11.4h0Z" fill="url(#radial-gradient5)"/>
    <path d="M360.2,210.4c0,12.7-7.3,19-22,19s-13.7-.6-18.3-1.7c-1.3-.3-2-1.2-2-2.8v-4.4c0-1.8.7-2.6,2.1-2.4,5.7.5,11.2.8,16.5.8s7.7-.6,9.2-1.7c1.5-1.1,2.3-3,2.3-5.6v-20c0-2.2-.8-3.7-2.3-4.4-1.1-.5-3.5-.8-7.1-.8s-7.2,0-8.9.3v11.3c0,.3.5.4,1.2.4h7.3c1.3,0,2,.7,2,2.2v4.9c0,1.8-1.3,2.6-3.8,2.6h-13.8c-1.8,0-2.9-.1-3.4-.4-.9-.5-1.3-1.8-1.3-3.8v-23.3c0-1.4.8-2.3,2.5-2.6,5.2-1.3,11.1-1.9,17.7-1.9s15.2,1.6,18.2,4.8c2.6,2.8,3.9,7.1,3.9,13v16.5h0Z" fill="url(#radial-gradient6)"/>
    <path d="M382.5,226.4c0,1.2-.2,1.9-.6,2.1-.4.3-1,.4-1.7.4h-7.5c-1.5,0-2.2-.8-2.2-2.5v-47.3c0-1.8.7-2.6,2.2-2.6h7.6c1,0,1.6.2,1.9.5.2.3.3,1,.3,2.1v47.3h0Z" fill="url(#radial-gradient7)"/>
    <path d="M439.2,227c0,1.3-.4,2-1.3,2h-9.2c-1,0-1.8-.2-2.3-.6,0,0-.5-.7-1.3-1.8l-17.3-24c-.3.1-.9,2.2-1.7,6.3l-3.3,17.5c-.4,1.8-1.3,2.6-2.7,2.6h-6.9c-1.5,0-2.2-.8-2.2-2.5v-.5l2.3-12.5c1.1-5.6,2.9-9.6,5.3-11.9l5.2-4.7-12.2-16.2c-.7-.9-1-1.6-1-2.1,0-1.4.5-2.1,1.5-2.1h9c1,0,2,.7,3.1,2.1l15.9,21.2c.6-.6,1.3-2.5,1.9-5.8l2.7-14.9c.4-1.8,1.2-2.6,2.4-2.6h7.7c1.7,0,2.5.5,2.5,1.5s-.1.9-.3,2l-1.7,9.2c-1,5.3-3.1,9.3-6.2,12l-4.9,4.3,14.3,19.6c.6.8,1,1.5,1,2h-.3Z" fill="url(#radial-gradient8)"/>
    <g>
      <path d="M245.5,275.9c0,.7,0,1.1-.3,1.3s-.6.3-1.2.3h-8.6c-.7,0-1-.4-1-1.2v-3.4c0-.6,0-.9.3-1.1s.5-.2.9-.2h3.7v-17.4h-1.7c-.8,0-1.2-.3-1.2-1.1v-4c0-.2.3-.3.8-.4,2.5-.4,6.9-.5,13.3-.5s6.7.8,8.3,2.3,2.5,4.1,2.5,7.8v17.8c0,.9-.4,1.4-1.1,1.4h-4.1c-.7,0-1.1-.5-1.1-1.4v-17.8c0-1.6-.4-2.7-1.1-3.3s-2-.9-3.7-.9h-4.9v21.9h.2Z" fill="#231f20"/>
      <path d="M273.6,276.1c0,.7,0,1.1-.3,1.2s-.5.2-.9.2h-3.9c-.8,0-1.2-.5-1.2-1.4v-26.4c0-1,.4-1.5,1.2-1.5h4c.5,0,.8,0,1,.3s.2.6.2,1.2v26.4h-.1Z" fill="#231f20"/>
      <path d="M285.2,264.2c0,.6,0,.9-.2,1.1s-.4.2-.9.2h-4c-.8,0-1.2-.4-1.2-1.3v-14.9c0-.7.4-1.1,1.2-1.1h4c.5,0,.9,0,1,.2s.2.5.2,1.1v14.7h-.1Z" fill="#231f20"/>
      <path d="M296.9,276.1c0,.7,0,1.1-.3,1.2s-.5.2-.9.2h-3.9c-.8,0-1.2-.5-1.2-1.4v-26.4c0-1,.4-1.5,1.2-1.5h4c.5,0,.8,0,1,.3s.2.6.2,1.2v26.4h-.1Z" fill="#231f20"/>
      <path d="M323.9,249.8l-.9,8.8c-.3,3.6-1.1,6.6-2.3,9.1-1.1,2.2-2.8,4.4-5.1,6.6-2.4,2.3-6.3,4.9-11.5,7.8-.7.4-1.2.6-1.5.6s-.5-.1-.6-.4l-1.3-2.5c-.3-.6-.5-1-.5-1.2,0-.4.2-.7.6-.9,2.1-1.1,4.3-2.6,6.7-4.4l.2-.2-6.7-23.3c-.3-1,0-1.5.9-1.5h4.2c.6,0,.9.1,1.1.3s.3.7.5,1.3l3,11.5c.6,2.3.9,4.2.9,5.7s0,2-.2,3.1l.2.2c1.7-1.4,2.9-3,3.6-4.8.7-1.5,1.1-3.7,1.3-6.6l.8-8.9c0-1.2.5-1.9,1.2-1.9h4.3c.8,0,1.1.5,1,1.5h0Z" fill="#231f20"/>
      <path d="M352.3,266.3c0,4.2-1,7.3-3,9-1.8,1.6-4.8,2.5-8.9,2.5s-7.4-.3-10.2-.8c-.8-.2-1.2-.6-1.2-1.3v-26.2c0-.5,0-.8.2-1s.5-.2.9-.2h3.8c.8,0,1.3.4,1.3,1.3v22.3c1.3.2,3,.2,5.2.2s3.8-.3,4.5-1,1.1-2.2,1.1-4.5v-9.4c0-2.2-1.3-3.2-3.9-3.2h-2.2c-.4.2-.7.1-.8,0s-.1-.4-.1-.9v-3c0-.5,0-.8.1-.9s.4-.3.8-.4c.8-.3,2.3-.4,4.4-.4,5.2,0,7.8,3.3,7.8,9.8v8.3l.2-.2h0Z" fill="#231f20"/>
      <path d="M392.6,276.4c0,.7-.2,1.1-.7,1.1h-4.8c-.5,0-.9-.1-1.2-.4,0,0-.3-.4-.7-1l-9-13.4c-.2,0-.5,1.2-.9,3.5l-1.7,9.8c-.2,1-.7,1.5-1.4,1.5h-3.6c-.8,0-1.2-.5-1.2-1.4v-.3l1.2-6.9c.6-3.1,1.5-5.3,2.8-6.6l2.7-2.6-6.4-9c-.4-.5-.5-.9-.5-1.2,0-.8.3-1.2.8-1.2h4.7c.5,0,1.1.4,1.6,1.2l8.3,11.8c.3-.3.7-1.4,1-3.2l1.4-8.3c.2-1,.6-1.5,1.3-1.5h4c.9,0,1.3.3,1.3.8s0,.5-.2,1.1l-.9,5.1c-.5,2.9-1.6,5.2-3.2,6.7l-2.6,2.4,7.5,10.9c.3.5.5.8.5,1.1h0Z" fill="#231f20"/>
      <path d="M417.3,250.4l-8.2,25.5c-.3,1-.8,1.5-1.4,1.5h-4.5c-.4,0-.6-.3-.6-.8s.1-.8.3-1.3l6.8-21.1h-13.4c-.8,0-1.2-.4-1.2-1.3v-12.8c0-.8.4-1.2,1.3-1.2h3.9c.7,0,1.1.5,1.1,1.5v7.8h14.9c.8,0,1.3.4,1.3,1.1s0,.6-.2,1.1h0Z" fill="#231f20"/>
      <path d="M446.9,267.8c0,3.2-.7,5.6-2.1,7.4s-3.5,2.6-6.1,2.6-3.7-.2-4.9-.7c-.5-.2-.7-.3-.8-.5s-.1-.5-.1-1v-2.8c0-.8.4-1.1,1.3-1,1.5.1,2.4.2,2.6.2,2.6,0,3.9-1.3,3.9-3.9v-9.6c0-2.9-1.3-4.3-3.9-4.3h-3.8c-1.7,0-2.8.4-3.3,1.3v20.7c0,.6,0,.9-.2,1.1s-.4.2-.9.2h-4.1c-.5,0-.8,0-.9-.2s-.2-.5-.2-1.1v-19.1c0-.9-.3-1.7-.8-2.4l-1.3-1.6c-.4-.5-.6-.9-.6-1.2s.2-.6.6-1l2.6-2.5c.4-.4.8-.6,1.2-.6s.6.1.9.4l1,1.2c.4.5,1,1.2,1.6,2,2.2-2.1,4.2-3.2,6.1-3.2h3.9c5.6,0,8.4,3,8.4,9v10.7h-.1Z" fill="#231f20"/>
      <path d="M200.7,327.6c0,.7-.3,1-.9,1h-3c-.4,0-.6,0-.7-.2s-.2-.4-.2-.8v-23.7c0-1-.3-1.6-.8-2s-1.5-.5-3-.5c-2.7,0-4.8,0-6.3.2-.5,0-.8-.3-.8-.9v-2.1c0-.7.2-1.1.8-1.1,2-.3,4.5-.5,7.5-.5s4.6.5,5.7,1.7,1.7,3,1.7,5.5v23.5h0Z" fill="#231f20"/>
      <path d="M227.9,298.3l-2.6,13.4c-1,5.3-3.9,7.8-8.7,7.8h-2.5c-2.1,0-3.9-.5-5.1-1.7s-2.1-3-2.5-5.6l-2.4-13.9c-.2-.9,0-1.4.5-1.4h3.3c.5,0,.8.4.9,1.2l1.7,10.4h.2c1-.6,1.5-1.7,1.8-3.2l1.1-7.3c.2-.8.5-1.2.9-1.2h3.2c.4,0,.7.2.7.5s0,.5-.2,1l-1.2,7c-.4,2.1-1.3,3.5-2.7,4.3l-3.3,1.9.2,1.4c.3,1.4,1.2,2.2,2.8,2.2h2.2c2.2,0,3.5-1.1,4-3.3l2.8-14c.2-.7.5-1.1,1-1.1h3.3c.5,0,.7.5.5,1.3h0Z" fill="#231f20"/>
      <path d="M250.2,311.9c0,2.4-.5,4.3-1.6,5.6s-2.7,2-4.6,2-2.8-.2-3.7-.5c-.4-.2-.5-.2-.6-.4s0-.4,0-.8v-2.1c0-.6.3-.8,1-.8,1.1,0,1.8.2,2,.2,2,0,3-1,3-3v-7.3c0-2.2-1-3.3-3-3.3h-2.9c-1.3,0-2.1.3-2.5,1v15.8c0,.5,0,.7-.2.8s-.3.2-.7.2h-3.1c-.4,0-.6,0-.7-.2s-.2-.4-.2-.8v-14.5c0-.7-.2-1.3-.6-1.8l-1-1.2c-.3-.4-.5-.7-.5-.9s.2-.5.5-.8l2-1.9c.3-.3.6-.5.9-.5s.5,0,.7.3l.8.9c.3.4.8.9,1.2,1.5,1.7-1.6,3.2-2.4,4.6-2.4h3c4.3,0,6.4,2.3,6.4,6.8v8.1h0Z" fill="#231f20"/>
      <path d="M271.3,318.2c0,.5,0,.8-.2.9s-.4.2-.7.2h-3c-.6,0-.9-.4-.9-1.1v-14.3c0-1.4-.8-2.1-2.3-2.4-1-.2-2.4-.2-4.1-.2s-3.4,0-5.3.2c-.6,0-1-.2-1-.8v-2.4c0-.7.3-1,.9-1.1,2.8-.3,5.4-.5,7.8-.5s5.3.5,6.6,1.6,2.1,2.8,2.1,5.3v14.4h0ZM259.2,318.2c0,.5,0,.8-.2.9s-.4.2-.7.2h-3c-.6,0-.9-.4-.9-1.1v-6.6c0-1.5.4-2.9,1.1-4.3.2-.4.5-.5.9-.5h2c.5,0,.8.3.8.9v10.6h0Z" fill="#231f20"/>
      <path d="M291.5,298.7l-6.2,19.4c-.2.8-.6,1.1-1.1,1.1h-3.4c-.3,0-.5-.2-.5-.6s0-.6.2-1l5.2-16.1h-10.2c-.6,0-.9-.3-.9-1v-9.7c0-.6.3-.9,1-.9h3c.5,0,.8.4.8,1.1v5.9h11.3c.6,0,1,.3,1,.8s0,.5-.2.8h0Z" fill="#231f20"/>
      <path d="M310.7,318.1c0,.5,0,.8-.2,1s-.5.2-.9.2h-6.5c-.5,0-.8-.3-.8-.9v-2.6c0-.5,0-.7.2-.8s.4-.2.7-.2h2.8v-13.2h-1.3c-.6,0-.9-.2-.9-.8v-3c0-.2.2-.2.6-.3,1.9-.3,5.3-.4,10.1-.4s5.1.6,6.3,1.8,1.9,3.1,1.9,5.9v13.5c0,.7-.3,1.1-.8,1.1h-3.1c-.5,0-.8-.4-.8-1.1v-13.5c0-1.2-.3-2.1-.8-2.5s-1.5-.7-2.8-.7h-3.7v16.7h.2Z" fill="#231f20"/>
      <path d="M332,318.2c0,.5,0,.8-.2.9s-.4.2-.7.2h-3c-.6,0-.9-.4-.9-1.1v-20.1c0-.8.3-1.1.9-1.1h3c.4,0,.6,0,.8.2s.2.5.2.9v20.1h0Z" fill="#231f20"/>
      <path d="M340.9,309.2c0,.5,0,.7-.2.8s-.3.2-.7.2h-3c-.6,0-.9-.3-.9-1v-11.3c0-.5.3-.8.9-.8h3c.4,0,.7,0,.8.2s.2.4.2.8v11.2h0Z" fill="#231f20"/>
      <path d="M353.9,318.1c0,.5,0,.8-.2,1s-.5.2-.9.2h-7.9c-.4,0-.6,0-.7-.2s-.2-.4-.2-.8v-2.6c0-.5,0-.7.2-.8s.4-.2.7-.2h4.3v-11c0-.9-.2-1.6-.5-1.9s-1-.5-1.9-.5-.9,0-1.4.2-.8-.2-.8-.8v-2.2c0-.4,0-.6,0-.8s.2-.2.6-.4c.5-.2,1.4-.3,2.7-.3,2.1,0,3.5.5,4.5,1.5s1.4,2.7,1.4,5.1v14.4h0Z" fill="#231f20"/>
      <path d="M381.1,298.3l-2.6,13.4c-1,5.3-3.9,7.8-8.7,7.8h-2.5c-2.1,0-3.9-.5-5.1-1.7s-2.1-3-2.5-5.6l-2.4-13.9c-.2-.9,0-1.4.5-1.4h3.3c.5,0,.8.4.9,1.2l1.7,10.4h.2c1-.6,1.5-1.7,1.8-3.2l1.1-7.3c.2-.8.5-1.2.9-1.2h3.2c.4,0,.7.2.7.5s0,.5-.2,1l-1.2,7c-.4,2.1-1.3,3.5-2.7,4.3l-3.3,1.9.2,1.4c.3,1.4,1.2,2.2,2.8,2.2h2.2c2.2,0,3.5-1.1,4-3.3l2.8-14c.2-.7.5-1.1,1-1.1h3.3c.5,0,.7.5.5,1.3h0Z" fill="#231f20"/>
      <path d="M408.1,318.2c0,.8-.3,1.1-1,1.1h-13.7c-.8,0-1.1-.4-1.1-1.1v-2c0-.6.2-1.1.7-1.6l8.1-8.2c1.1-1.2,1.8-2.3,1.8-3.3v-.4c0-1.1-.3-1.9-.8-2.3s-1.8-.6-3.6-.6h0c-1.6,0-3,0-4,.2-.5,0-.8-.2-.8-.8v-2.4c0-.4.2-.7.5-.8.8-.4,2.8-.5,6-.5h.2c4.8,0,7.2,2.3,7.2,6.8s-1,5-3,6.9l-6.1,5.8h8.9c.7,0,1,.4,1,1.1v2.2h0Z" fill="#231f20"/>
      <path d="M426.6,307.5c0,4.3-.5,7.2-1.5,9.1-1.1,2.1-3.2,3-6.2,3h-.5c-3.2,0-5.3-1-6.4-3-.9-1.7-1.3-4.6-1.3-9.1s.5-7.5,1.4-9.2c1.1-2.1,3.2-3,6.2-3h.5c3.2,0,5.3,1,6.4,3,.9,1.7,1.3,4.7,1.3,9.2h0ZM422,309.3v-3.5c0-2.5-.2-4.1-.5-4.8-.4-.8-1.4-1.3-2.9-1.3h-.2c-1.4,0-2.3.5-2.7,1.4-.3.7-.5,2.2-.5,4.6v3.5c0,2.5.2,4,.5,4.8.4.9,1.4,1.3,2.9,1.3h.2c1.4,0,2.3-.5,2.7-1.4.3-.7.5-2.2.5-4.6Z" fill="#231f20"/>
      <path d="M455.3,318.2c0,.5,0,.8-.2.9s-.4.2-.7.2h-3c-.6,0-.9-.4-.9-1.1v-14.3c0-1.4-.8-2.1-2.3-2.4-1-.2-2.4-.2-4.1-.2s-3.4,0-5.3.2c-.6,0-1-.2-1-.8v-2.4c0-.7.3-1,.9-1.1,2.8-.3,5.4-.5,7.8-.5s5.3.5,6.6,1.6,2.1,2.8,2.1,5.3v14.4h0ZM443.2,318.2c0,.5,0,.8-.2.9s-.4.2-.7.2h-3c-.6,0-.9-.4-.9-1.1v-6.6c0-1.5.4-2.9,1.1-4.3.2-.4.5-.5.9-.5h2c.5,0,.8.3.8.9v10.6h0Z" fill="#231f20"/>
      <path d="M474.2,307.7c0,4.7-.7,7.8-2.1,9.4s-3.7,2.4-6.8,2.4-4.3-.2-5.7-.7c-.5-.2-.8-.5-.8-1.1v-2.4c0-.5.4-.8,1.1-.7,1.8.2,3.3.3,4.7.3s2.9-.2,3.6-.8,1-1.5,1-3v-5.8c0-1.5-.5-2.6-1.3-3.1-.7-.5-2-.7-3.8-.7s-3,.2-4.5.4c-.5,0-.8-.2-.8-.7v-2.4c0-.6.2-1,.7-1.1,1.3-.5,3.2-.8,5.8-.8s4.9.5,6.2,1.4c1,.8,1.7,1.9,2.1,3.3s.6,3.4.6,6.1h0Z" fill="#231f20"/>
      <path d="M495.9,318.2c0,.7-.3,1-.9,1h-3c-.3,0-.5,0-.7-.2s-.2-.4-.2-.8v-13.9c0-1.2-.2-2-.7-2.4s-1.4-.6-2.8-.6c-2.4,0-4,0-4.5.2v16.8c0,.7-.3,1-.9,1h-3c-.3,0-.5,0-.7-.2s-.2-.4-.2-.8v-19.9c0-.6.3-.9,1-1,2.4-.3,5.4-.5,9-.5s4.6.5,5.9,1.6,1.8,2.9,1.8,5.4v14.4h0Z" fill="#231f20"/>
    </g>
  </g>
</svg>